<mxfile host="65bd71144e" scale="1" border="50">
    <diagram id="JOEfDfr4nYjkxCkB0hPR" name="Page-1">
        <mxGraphModel dx="1932" dy="750" grid="1" gridSize="10" guides="1" tooltips="1" connect="1" arrows="1" fold="1" page="1" pageScale="1" pageWidth="850" pageHeight="1100" background="#FFFFFF" math="0" shadow="0">
            <root>
                <mxCell id="0"/>
                <mxCell id="1" parent="0"/>
                <mxCell id="45" value="" style="rounded=0;whiteSpace=wrap;html=1;dashed=1;strokeColor=#666666;strokeWidth=2;fillColor=none;fontSize=19;" vertex="1" parent="1">
                    <mxGeometry x="-250" y="530" width="970" height="330" as="geometry"/>
                </mxCell>
                <mxCell id="41" value="" style="rounded=0;whiteSpace=wrap;html=1;fontSize=18;fillColor=none;dashed=1;strokeWidth=2;strokeColor=#666666;" vertex="1" parent="1">
                    <mxGeometry x="-250" y="130" width="830" height="320" as="geometry"/>
                </mxCell>
                <mxCell id="27" style="edgeStyle=orthogonalEdgeStyle;rounded=0;orthogonalLoop=1;jettySize=auto;html=1;exitX=1;exitY=0.5;exitDx=0;exitDy=0;" parent="1" source="6" target="15" edge="1">
                    <mxGeometry relative="1" as="geometry"/>
                </mxCell>
                <mxCell id="28" style="edgeStyle=orthogonalEdgeStyle;rounded=0;orthogonalLoop=1;jettySize=auto;html=1;exitX=0.75;exitY=1;exitDx=0;exitDy=0;entryX=0;entryY=0.5;entryDx=0;entryDy=0;" parent="1" source="6" target="19" edge="1">
                    <mxGeometry relative="1" as="geometry">
                        <Array as="points">
                            <mxPoint x="218" y="380"/>
                        </Array>
                    </mxGeometry>
                </mxCell>
                <mxCell id="29" style="edgeStyle=orthogonalEdgeStyle;rounded=0;orthogonalLoop=1;jettySize=auto;html=1;exitX=0;exitY=0.5;exitDx=0;exitDy=0;entryX=1;entryY=0.5;entryDx=0;entryDy=0;" parent="1" source="6" target="9" edge="1">
                    <mxGeometry relative="1" as="geometry"/>
                </mxCell>
                <mxCell id="34" style="edgeStyle=orthogonalEdgeStyle;rounded=0;orthogonalLoop=1;jettySize=auto;html=1;exitX=0.5;exitY=1;exitDx=0;exitDy=0;entryX=1;entryY=0.5;entryDx=0;entryDy=0;" parent="1" source="19" target="25" edge="1">
                    <mxGeometry relative="1" as="geometry"/>
                </mxCell>
                <mxCell id="25" value="" style="shape=image;verticalLabelPosition=bottom;labelBackgroundColor=#ffffff;verticalAlign=top;aspect=fixed;imageAspect=0;image=data:image/svg+xml,PHN2ZyB4bWxucz0iaHR0cDovL3d3dy53My5vcmcvMjAwMC9zdmciIHdpZHRoPSI4MTAiIGhlaWdodD0iNTIyIiB2aWV3Qm94PSIwIDAgODEwIDUyMiI+PGRlZnM+PGxpbmVhckdyYWRpZW50IHgxPSItNy41NjQlIiB5MT0iNTAuMDA1JSIgeDI9IjkzLjMyOCUiIHkyPSI0OS45OTYlIiBpZD0icHJlZml4X19hIj48c3RvcCBzdG9wLWNvbG9yPSIjMzU1NDYxIiBvZmZzZXQ9IjAlIi8+PHN0b3Agc3RvcC1jb2xvcj0iIzM2NTY2NCIgb2Zmc2V0PSIzMi43NiUiLz48c3RvcCBzdG9wLWNvbG9yPSIjM0E1RTZEIiBvZmZzZXQ9IjU0LjUxJSIvPjxzdG9wIHN0b3AtY29sb3I9IiM0MDZBN0MiIG9mZnNldD0iNzMuMDYlIi8+PHN0b3Agc3RvcC1jb2xvcj0iIzQ5N0M5MSIgb2Zmc2V0PSI4OS43MiUiLz48c3RvcCBzdG9wLWNvbG9yPSIjNTA4QUEyIiBvZmZzZXQ9IjEwMCUiLz48L2xpbmVhckdyYWRpZW50PjwvZGVmcz48ZyBmaWxsLXJ1bGU9Im5vbnplcm8iIGZpbGw9Im5vbmUiPjxwYXRoIGZpbGw9IiNFRkVGRUYiIGQ9Ik05IDhoODAwLjF2MzYyLjVIOXoiLz48cGF0aCBmaWxsPSIjRkZGIiBkPSJNMiAxaDgwMC4xdjM2Mi41SDJ6Ii8+PHBhdGggZmlsbD0iI0IyQjJCMiIgZD0iTTgwMyAzNjQuNWgtMy41di0yaDEuNVYzNjFoMnpNNzk0IDM2NC41aC01di0yaDV2MnptLTEwLjUgMGgtNXYtMmg1djJ6bS0xMC41IDBoLTV2LTJoNXYyem0tMTAuNiAwaC01di0yaDV2MnptLTEwLjUgMGgtNXYtMmg1djJ6bS0xMC41IDBoLTV2LTJoNXYyem0tMTAuNiAwaC01di0yaDV2MnptLTEwLjUgMGgtNXYtMmg1djJ6bS0xMC41IDBoLTV2LTJoNXYyem0tMTAuNSAwaC01di0yaDV2MnptLTEwLjYgMGgtNXYtMmg1djJ6bS0xMC41IDBoLTV2LTJoNXYyem0tMTAuNSAwaC01di0yaDV2MnptLTEwLjUgMGgtNXYtMmg1djJ6bS0xMC42IDBoLTV2LTJoNXYyem0tMTAuNSAwaC01di0yaDV2MnptLTEwLjUgMGgtNXYtMmg1djJ6bS0xMC42IDBoLTV2LTJoNXYyem0tMTAuNSAwaC01di0yaDV2MnptLTEwLjUgMGgtNXYtMmg1djJ6bS0xMC41IDBoLTV2LTJoNXYyem0tMTAuNiAwaC01di0yaDV2MnptLTEwLjUgMGgtNXYtMmg1djJ6bS0xMC41IDBoLTV2LTJoNXYyem0tMTAuNSAwaC01di0yaDV2MnptLTEwLjYgMGgtNXYtMmg1djJ6bS0xMC41IDBoLTV2LTJoNXYyem0tMTAuNSAwaC01di0yaDV2MnptLTEwLjUgMGgtNXYtMmg1djJ6bS0xMC42IDBoLTV2LTJoNXYyem0tMTAuNSAwaC01di0yaDV2MnptLTEwLjUgMGgtNXYtMmg1djJ6bS0xMC42IDBoLTV2LTJoNXYyem0tMTAuNSAwaC01di0yaDV2MnptLTEwLjUgMGgtNXYtMmg1djJ6bS0xMC41IDBoLTV2LTJoNXYyem0tMTAuNiAwaC01di0yaDV2MnptLTEwLjUgMGgtNXYtMmg1djJ6bS0xMC41IDBoLTV2LTJoNXYyem0tMTAuNSAwaC01di0yaDV2MnptLTEwLjYgMGgtNXYtMmg1djJ6bS0xMC41IDBoLTV2LTJoNXYyem0tMTAuNSAwaC01di0yaDV2MnptLTEwLjYgMGgtNXYtMmg1djJ6bS0xMC41IDBoLTV2LTJoNXYyem0tMTAuNSAwaC01di0yaDV2MnptLTEwLjUgMGgtNXYtMmg1djJ6bS0xMC42IDBoLTV2LTJoNXYyem0tMTAuNSAwaC01di0yaDV2MnptLTEwLjUgMGgtNXYtMmg1djJ6bS0xMC41IDBoLTV2LTJoNXYyem0tMTAuNiAwaC01di0yaDV2MnptLTEwLjUgMGgtNXYtMmg1djJ6bS0xMC41IDBoLTV2LTJoNXYyem0tMTAuNiAwaC01di0yaDV2MnptLTEwLjUgMGgtNXYtMmg1djJ6bS0xMC41IDBoLTV2LTJoNXYyem0tMTAuNSAwaC01di0yaDV2MnptLTEwLjYgMGgtNXYtMmg1djJ6bS0xMC41IDBoLTV2LTJoNXYyem0tMTAuNSAwaC01di0yaDV2MnptLTEwLjUgMGgtNXYtMmg1djJ6bS0xMC42IDBoLTV2LTJoNXYyem0tMTAuNSAwaC01di0yaDV2MnptLTEwLjUgMGgtNXYtMmg1djJ6bS0xMC42IDBoLTV2LTJoNXYyem0tMTAuNSAwaC01di0yaDV2MnptLTEwLjUgMGgtNXYtMmg1djJ6bS0xMC41IDBoLTV2LTJoNXYyem0tMTAuNiAwaC01di0yaDV2MnptLTEwLjUgMGgtNXYtMmg1djJ6bS0xMC41IDBoLTV2LTJoNXYyem0tMTAuNSAwaC01di0yaDV2MnptLTEwLjYgMGgtNXYtMmg1djJ6bS0xMC41IDBoLTV2LTJoNXYyek00LjUgMzY0LjVIMVYzNjFoMnYxLjVoMS41ek0zIDM1NS42SDF2LTQuOWgydjQuOXptMC0xMC4zSDF2LTQuOWgydjQuOXptMC0xMC40SDFWMzMwaDJ2NC45em0wLTEwLjRIMXYtNC45aDJ2NC45em0wLTEwLjNIMXYtNC45aDJ2NC45em0wLTEwLjRIMXYtNC45aDJ2NC45em0wLTEwLjNIMXYtNC45aDJ2NC45em0wLTEwLjRIMXYtNC45aDJ2NC45em0wLTEwLjNIMXYtNC45aDJ2NC45em0wLTEwLjRIMXYtNC45aDJ2NC45em0wLTEwLjNIMXYtNC45aDJ2NC45em0wLTEwLjRIMXYtNC45aDJ2NC45em0wLTEwLjRIMXYtNC45aDJ2NC45ek0zIDIyMUgxdi00LjloMnY0Ljl6bTAtMTAuNEgxdi00LjloMnY0Ljl6bTAtMTAuM0gxdi00LjloMnY0Ljl6bTAtMTAuNEgxVjE4NWgydjQuOXptMC0xMC4zSDF2LTQuOWgydjQuOXptMC0xMC40SDF2LTQuOWgydjQuOXptMC0xMC40SDF2LTQuOWgydjQuOXptMC0xMC4zSDF2LTQuOWgydjQuOXptMC0xMC40SDF2LTQuOWgydjQuOXptMC0xMC4zSDF2LTQuOWgydjQuOXptMC0xMC40SDF2LTQuOWgydjQuOXptMC0xMC4zSDF2LTQuOWgydjQuOXptMC0xMC40SDF2LTQuOWgydjQuOXptMC0xMC4zSDF2LTQuOWgydjQuOXpNMyA3Nkgxdi00LjloMlY3NnptMC0xMC40SDF2LTQuOWgydjQuOXptMC0xMC4zSDF2LTQuOWgydjQuOXptMC0xMC40SDFWNDBoMnY0Ljl6bTAtMTAuM0gxdi00LjloMnY0Ljl6bTAtMTAuNEgxdi00LjloMnY0Ljl6bTAtMTAuM0gxdi01aDJ2NXpNMyAzLjVIMVYwaDMuNXYySDN6TTc5NCAyaC01VjBoNXYyem0tMTAuNSAwaC01VjBoNXYyek03NzMgMmgtNVYwaDV2MnptLTEwLjYgMGgtNVYwaDV2MnptLTEwLjUgMGgtNVYwaDV2MnptLTEwLjUgMGgtNVYwaDV2MnptLTEwLjYgMGgtNVYwaDV2MnptLTEwLjUgMGgtNVYwaDV2MnptLTEwLjUgMGgtNVYwaDV2MnptLTEwLjUgMGgtNVYwaDV2MnptLTEwLjYgMGgtNVYwaDV2MnptLTEwLjUgMGgtNVYwaDV2MnptLTEwLjUgMGgtNVYwaDV2MnptLTEwLjUgMGgtNVYwaDV2MnptLTEwLjYgMGgtNVYwaDV2MnptLTEwLjUgMGgtNVYwaDV2MnptLTEwLjUgMGgtNVYwaDV2MnptLTEwLjUgMGgtNVYwaDV2MnptLTEwLjYgMGgtNVYwaDV2MnpNNTk0IDJoLTVWMGg1djJ6bS0xMC41IDBoLTVWMGg1djJ6bS0xMC42IDBoLTVWMGg1djJ6bS0xMC41IDBoLTVWMGg1djJ6bS0xMC41IDBoLTVWMGg1djJ6bS0xMC41IDBoLTVWMGg1djJ6bS0xMC42IDBoLTVWMGg1djJ6bS0xMC41IDBoLTVWMGg1djJ6bS0xMC41IDBoLTVWMGg1djJ6bS0xMC41IDBoLTVWMGg1djJ6bS0xMC42IDBoLTVWMGg1djJ6bS0xMC41IDBoLTVWMGg1djJ6bS0xMC41IDBoLTVWMGg1djJ6bS0xMC42IDBoLTVWMGg1djJ6bS0xMC41IDBoLTVWMGg1djJ6bS0xMC41IDBoLTVWMGg1djJ6bS0xMC41IDBoLTVWMGg1djJ6TTQxNSAyaC01VjBoNXYyem0tMTAuNSAwaC01VjBoNXYyek0zOTQgMmgtNVYwaDV2MnptLTEwLjUgMGgtNVYwaDV2MnptLTEwLjYgMGgtNVYwaDV2MnptLTEwLjUgMGgtNVYwaDV2MnptLTEwLjUgMGgtNVYwaDV2MnptLTEwLjYgMGgtNVYwaDV2MnptLTEwLjUgMGgtNVYwaDV2MnptLTEwLjUgMGgtNVYwaDV2MnptLTEwLjUgMGgtNVYwaDV2MnptLTEwLjYgMGgtNVYwaDV2MnptLTEwLjUgMGgtNVYwaDV2MnptLTEwLjUgMGgtNVYwaDV2MnptLTEwLjUgMGgtNVYwaDV2MnptLTEwLjYgMGgtNVYwaDV2MnptLTEwLjUgMGgtNVYwaDV2MnptLTEwLjUgMGgtNVYwaDV2MnptLTEwLjYgMGgtNVYwaDV2MnpNMjE1IDJoLTVWMGg1djJ6bS0xMC41IDBoLTVWMGg1djJ6TTE5NCAyaC01VjBoNXYyem0tMTAuNiAwaC01VjBoNXYyem0tMTAuNSAwaC01VjBoNXYyem0tMTAuNSAwaC01VjBoNXYyem0tMTAuNSAwaC01VjBoNXYyem0tMTAuNiAwaC01VjBoNXYyem0tMTAuNSAwaC01VjBoNXYyem0tMTAuNSAwaC01VjBoNXYyem0tMTAuNiAwaC01VjBoNXYyek05OS4yIDJoLTVWMGg1djJ6TTg4LjcgMmgtNVYwaDV2MnpNNzguMiAyaC01VjBoNXYyek02Ny42IDJoLTVWMGg1djJ6TTU3LjEgMmgtNVYwaDV2MnpNNDYuNiAyaC01VjBoNXYyek0zNi4xIDJoLTVWMGg1djJ6TTI1LjUgMmgtNVYwaDV2MnpNMTUgMmgtNVYwaDV2MnpNODAzIDMuNWgtMlYyaC0xLjVWMGgzLjV6TTgwMyAzNTUuNmgtMnYtNC45aDJ2NC45em0wLTEwLjNoLTJ2LTQuOWgydjQuOXptMC0xMC40aC0yVjMzMGgydjQuOXptMC0xMC40aC0ydi00LjloMnY0Ljl6bTAtMTAuM2gtMnYtNC45aDJ2NC45em0wLTEwLjRoLTJ2LTQuOWgydjQuOXptMC0xMC4zaC0ydi00LjloMnY0Ljl6bTAtMTAuNGgtMnYtNC45aDJ2NC45em0wLTEwLjNoLTJ2LTQuOWgydjQuOXptMC0xMC40aC0ydi00LjloMnY0Ljl6bTAtMTAuM2gtMnYtNC45aDJ2NC45em0wLTEwLjRoLTJ2LTQuOWgydjQuOXptMC0xMC40aC0ydi00LjloMnY0Ljl6bTAtMTAuM2gtMnYtNWgydjV6bTAtMTAuNGgtMnYtNC45aDJ2NC45em0wLTEwLjNoLTJ2LTQuOWgydjQuOXptMC0xMC40aC0yVjE4NWgydjQuOXptMC0xMC4zaC0ydi00LjloMnY0Ljl6bTAtMTAuNGgtMnYtNC45aDJ2NC45em0wLTEwLjRoLTJ2LTQuOWgydjQuOXptMC0xMC4zaC0ydi00LjloMnY0Ljl6bTAtMTAuNGgtMnYtNC45aDJ2NC45em0wLTEwLjNoLTJ2LTQuOWgydjQuOXptMC0xMC40aC0ydi00LjloMnY0Ljl6bTAtMTAuM2gtMnYtNC45aDJ2NC45em0wLTEwLjRoLTJ2LTQuOWgydjQuOXptMC0xMC4zaC0ydi00LjloMnY0Ljl6bTAtMTAuNGgtMnYtNC45aDJWNzZ6bTAtMTAuNGgtMnYtNC45aDJ2NC45em0wLTEwLjNoLTJ2LTQuOWgydjQuOXptMC0xMC40aC0yVjQwaDJ2NC45em0wLTEwLjNoLTJ2LTQuOWgydjQuOXptMC0xMC40aC0ydi00LjloMnY0Ljl6bTAtMTAuM2gtMnYtNWgydjV6Ii8+PHBhdGggZmlsbD0iI0VGRUZFRiIgZD0iTTMxLjggMTI4LjdoMjc3djY1aC0yNzd6Ii8+PHBhdGggZmlsbD0iIzAwMCIgZD0iTTE0MCAxNjEuNGgtMS4zdjUuN2gtMi4xdi0xMy4zaDIuMXY1LjZoMS4zbDUtNS42aDIuOGwtNiA2LjUgNi40IDYuOGgtMi45ek0xNTcuNiAxNjMuMmMtLjEgMi4zLTIgNC4yLTQuMyA0LjEtMi4yLS4xLTQtMS45LTQuMS00LjFWMTU4aDJ2NS4xYzAgMS44IDEgMi40IDIuMiAyLjQgMS4yIDAgMi4yLS42IDIuMi0yLjRWMTU4aDJ2NS4yek0xNzAgMTYyLjVjLjEgMi41LTEuOCA0LjctNC4zIDQuOGgtLjJjLTEuMSAwLTIuMi0uNC0yLjktMS4zdjEuMWgtMnYtMTMuN2gydjUuN2MuNy0uOSAxLjctMS40IDIuOS0xLjMgMi41IDAgNC42IDIuMSA0LjYgNC42LS4xIDAtLjEgMC0uMS4xem0tNy41IDBjLjEgMS41IDEuNCAyLjcgMi45IDIuNiAxLjUtLjEgMi43LTEuNCAyLjYtMi45LS4xLTEuNS0xLjMtMi42LTIuNy0yLjYtMS41IDAtMi43IDEuMi0yLjggMi43di4yek0xODAuNyAxNjIuNXYuN0gxNzRjLjEgMS40IDEuMyAyLjQgMi43IDIuMyAxIDAgMS45LS40IDIuNi0xbDEgMS40Yy0xIC45LTIuNCAxLjMtMy43IDEuMy0yLjUuMS00LjYtMS44LTQuNy00LjN2LS41Yy0uMi0yLjQgMS42LTQuNiA0LjEtNC44aC41YzIuNC4xIDQuMSAyIDQuMiA0Ljl6bS02LjgtLjhoNC43YzAtMS4zLTEuMS0yLjItMi4zLTIuMi0xLjMtLjEtMi4zLjktMi40IDIuMnpNMTg1LjEgMTY3aC0ydi0xMy43aDJ6TTE5Ni40IDE2Mi41di43aC02LjdjLjEgMS40IDEuMyAyLjQgMi43IDIuMyAxIDAgMS45LS40IDIuNi0xbDEgMS40Yy0xIC45LTIuNCAxLjMtMy43IDEuMy0yLjUuMS00LjYtMS44LTQuNy00LjN2LS41Yy0uMi0yLjQgMS42LTQuNiA0LjEtNC44aC41YzIuNC4xIDQuMiAyIDQuMiA0Ljl6bS02LjgtLjhoNC43YzAtMS4zLTEuMS0yLjItMi4zLTIuMi0xLjItLjEtMi4zLjktMi40IDIuMnpNMjA1IDE1OS43aC0zLjV2NGMwIDEuMi42IDEuNyAxLjQgMS43LjcgMCAxLjMtLjMgMS44LS42bC44IDEuNmMtLjguNi0xLjguOS0yLjguOS0yLjEgMC0zLjMtMS4xLTMuMy0zLjV2LTRoLTEuOFYxNThoMS44di0yLjhoMnYyLjhoMy41djEuN2guMXoiLz48cGF0aCBmaWxsPSIjRUZFRkVGIiBkPSJNMzEuOCAyMDguN2gyNzd2NjVoLTI3N3oiLz48cGF0aCBmaWxsPSIjMDAwIiBkPSJNMTIzLjYgMjQxLjRoLTEuM3Y1LjdoLTIuMXYtMTMuM2gyLjF2NS42aDEuM2w1LTUuNmgyLjhsLTYgNi41IDYuNCA2LjhoLTIuOXpNMTQxLjIgMjQzLjJjLS4xIDIuMy0yIDQuMi00LjMgNC4xLTIuMi0uMS00LTEuOS00LjEtNC4xVjIzOGgydjUuMWMwIDEuOCAxIDIuNCAyLjIgMi40IDEuMiAwIDIuMi0uNiAyLjItMi40VjIzOGgydjUuMnpNMTUzLjcgMjQyLjVjLjEgMi41LTEuOCA0LjctNC4zIDQuOGgtLjJjLTEuMSAwLTIuMi0uNC0yLjktMS4zdjEuMWgtMnYtMTMuN2gydjUuN2MuNy0uOSAxLjctMS40IDIuOS0xLjMgMi41IDAgNC42IDIuMSA0LjYgNC42LS4xIDAtLjEgMC0uMS4xem0tNy42IDBjLjEgMS41IDEuNCAyLjcgMi45IDIuNiAxLjUtLjEgMi43LTEuNCAyLjYtMi45LS4xLTEuNS0xLjMtMi42LTIuNy0yLjYtMS41IDAtMi43IDEuMi0yLjggMi43di4yek0xNjQuMyAyNDIuNXYuN2gtNi43Yy4xIDEuNCAxLjMgMi40IDIuNyAyLjMgMSAwIDEuOS0uNCAyLjYtMWwxIDEuNGMtMSAuOS0yLjQgMS4zLTMuNyAxLjMtMi41LjEtNC42LTEuOC00LjctNC4zdi0uNWMtLjItMi40IDEuNi00LjYgNC4xLTQuOGguNWMyLjQuMSA0LjIgMiA0LjIgNC45em0tNi44LS44aDQuN2MwLTEuMy0xLjEtMi4yLTIuMy0yLjItMS4yLS4xLTIuMy45LTIuNCAyLjJ6TTE3NC4zIDI0MS44djUuMmgtMi4xdi0xMy4zaDUuMmMzLjEgMCA0LjcgMS41IDQuNyA0cy0xLjYgNC00LjcgNGwtMy4xLjF6bTAtNnY0aDNjMS43IDAgMi41LS42IDIuNS0ycy0uOC0yLTIuNS0yaC0zek0xOTAuNiAyMzhsLS41IDJjLS41LS4yLTEtLjMtMS41LS4zLTEuMiAwLTIuMi45LTIuMiAyLjF2NS4zaC0yVjIzOGgydjFjLjYtLjggMS42LTEuMyAyLjYtMS4zLjYgMCAxLjEuMSAxLjYuM3pNMjAxLjQgMjQyLjVjLjEgMi43LTIuMSA0LjktNC44IDUtMi43LjEtNC45LTIuMS01LTQuOC0uMS0yLjcgMi4xLTQuOSA0LjgtNWguMWMyLjYtLjEgNC44IDEuOSA0LjkgNC42di4yem0tNy44IDBjMCAxLjYgMS4zIDIuOCAyLjkgMi44IDEuNiAwIDIuOC0xLjMgMi44LTIuOSAwLTEuNi0xLjMtMi44LTIuOS0yLjgtMS41IDAtMi44IDEuMi0yLjkgMi43LjEuMS4xLjEuMS4yek0yMDguMSAyNDIuNGwzLjQgNC43aC0yLjRsLTIuMy0zLjItMi4zIDMuMmgtMi4zbDMuNC00LjYtMy40LTQuNWgyLjRsMi4yIDMgMi4yLTNoMi4zek0yMTUgMjUwLjloLTIuMmwzLjMtNS43LTQtNy4yaDIuMmwyLjkgNS4yIDIuOC01LjJoMi4yeiIvPjxwYXRoIGZpbGw9IiNFRkVGRUYiIGQ9Ik0zMzguNiAyMjguN2g0MzMuN3Y0NUgzMzguNnoiLz48cGF0aCBkPSJNNDgwLjkgMjQ2LjNsLTEuOCAxLjJjLS44LTEuMi0yLjItMS45LTMuNy0xLjktMi43LjEtNC44IDIuMy00LjcgNSAuMSAyLjYgMi4xIDQuNiA0LjcgNC43IDEuNSAwIDIuOS0uNyAzLjctMS45bDEuNyAxLjNjLTEuMyAxLjctMy4zIDIuOC01LjUgMi43LTMuOCAwLTYuOS0zLTctNi44LS4xLTMuOCAzLTYuOSA2LjgtN2guMWMyLjQtLjIgNC41LjkgNS43IDIuN3pNNDkyLjQgMjUyLjVjLjEgMi43LTIuMSA0LjktNC44IDUtMi43LjEtNC45LTIuMS01LTQuOC0uMS0yLjcgMi4xLTQuOSA0LjgtNWguMWMyLjYtLjEgNC44IDEuOSA0LjkgNC42di4yem0tNy44IDBjMCAxLjYgMS4zIDIuOCAyLjkgMi44IDEuNiAwIDIuOC0xLjMgMi44LTIuOSAwLTEuNi0xLjMtMi44LTIuOS0yLjgtMS41IDAtMi44IDEuMi0yLjkgMi43LjEuMS4xLjEuMS4yek01MDMuMyAyNTEuM3Y1LjdoLTJ2LTVjMC0xLjUtLjgtMi40LTIuMS0yLjQtMS4yLS4xLTIuMy45LTIuNCAyLjF2NS4zaC0ydi05LjFoMnYxLjFjLjYtLjkgMS43LTEuNCAyLjgtMS4zIDEuOS0uMSAzLjYgMS40IDMuNyAzLjN2LjN6TTUxMi41IDI0OS43SDUwOXY0YzAgMS4yLjYgMS43IDEuNCAxLjcuNyAwIDEuMy0uMyAxLjgtLjZsLjggMS42Yy0uOC42LTEuOC45LTIuOC45LTIuMSAwLTMuMy0xLjEtMy4zLTMuNXYtNGgtMS44VjI0OGgxLjh2LTIuOGgydjIuOGgzLjVsLjEgMS43ek01MjMuNiAyNTdoLTJ2LTFjLS43LjktMS43IDEuNC0yLjkgMS4zLTIuNi0uMS00LjctMi40LTQuNS01IC4xLTIuNSAyLjEtNC40IDQuNS00LjUgMS4xIDAgMi4yLjUgMi45IDEuM1YyNDhoMnY5em0tNy4zLTQuNWMuMSAxLjUgMS40IDIuNyAyLjkgMi42IDEuNS0uMSAyLjctMS40IDIuNi0yLjktLjEtMS41LTEuMy0yLjYtMi43LTIuNi0xLjUgMC0yLjcgMS4yLTIuOCAyLjd2LjJ6TTUyOS4xIDI0NC44YzAgLjgtLjYgMS40LTEuNCAxLjQtLjggMC0xLjQtLjYtMS40LTEuM3YtLjFjMC0uOC42LTEuNCAxLjMtMS40LjkgMCAxLjUuNiAxLjUgMS40em0tLjQgMTIuMmgtMnYtOS4xaDJ2OS4xek01NDAuMyAyNTEuM3Y1LjdoLTJ2LTVjMC0xLjUtLjgtMi40LTIuMS0yLjQtMS4yLS4xLTIuMy45LTIuNCAyLjF2NS4zaC0ydi05LjFoMnYxLjFjLjYtLjkgMS43LTEuNCAyLjgtMS4zIDEuOS0uMSAzLjYgMS40IDMuNyAzLjN2LjN6TTU1MS41IDI1Mi41di43aC02LjdjLjEgMS40IDEuMyAyLjQgMi43IDIuMyAxIDAgMS45LS40IDIuNi0xbDEgMS40Yy0xIC45LTIuNCAxLjMtMy43IDEuMy0yLjUuMS00LjYtMS44LTQuNy00LjN2LS41Yy0uMi0yLjQgMS42LTQuNiA0LjEtNC44aC41YzIuNS4xIDQuMiAyIDQuMiA0Ljl6bS02LjctLjhoNC43YzAtMS4zLTEuMS0yLjItMi4zLTIuMi0xLjMtLjEtMi40LjktMi40IDIuMnpNNTYwLjEgMjQ4bC0uNSAyYy0uNS0uMi0xLS4zLTEuNS0uMy0xLjIgMC0yLjIuOS0yLjIgMi4xdjUuM2gtMlYyNDhoMnYxYy42LS44IDEuNi0xLjMgMi42LTEuMy42IDAgMS4xLjEgMS42LjN6TTU3Mi44IDI0My43YzMuMSAwIDQuNyAxLjQgNC43IDMuOCAwIDIuMy0xLjcgMy44LTQuNCAzLjlsNC40IDUuNmgtMi43bC00LjItNS42aC0xLjF2NS42aC0yLjF2LTEzLjNoNS40em0tMy4zIDIuMXYzLjdoMy4zYzEuNyAwIDIuNS0uNiAyLjUtMS45IDAtMS4zLS45LTEuOC0yLjUtMS44aC0zLjN6TTU4OC4zIDI1My4yYy0uMSAyLjMtMiA0LjItNC4zIDQuMS0yLjItLjEtNC0xLjktNC4xLTQuMVYyNDhoMnY1LjFjMCAxLjggMSAyLjQgMi4yIDIuNCAxLjIgMCAyLjItLjYgMi4yLTIuNFYyNDhoMnY1LjJ6TTU5OS43IDI1MS4zdjUuN2gtMnYtNWMwLTEuNS0uOC0yLjQtMi4xLTIuNC0xLjItLjEtMi4zLjktMi40IDIuMXY1LjNoLTJ2LTkuMWgydjEuMWMuNi0uOSAxLjctMS40IDIuOC0xLjMgMS45LS4xIDMuNiAxLjQgMy43IDMuM3YuM3pNNjA4LjkgMjQ5LjdoLTMuNXY0YzAgMS4yLjYgMS43IDEuNCAxLjcuNyAwIDEuMy0uMyAxLjgtLjZsLjggMS42Yy0uOC42LTEuOC45LTIuOC45LTIuMSAwLTMuMy0xLjEtMy4zLTMuNXYtNGgtMS44VjI0OGgxLjh2LTIuOGgydjIuOGgzLjVsLjEgMS43ek02MTMuNyAyNDQuOGMwIC44LS42IDEuNC0xLjQgMS40LS44IDAtMS40LS42LTEuNC0xLjN2LS4xYzAtLjguNi0xLjQgMS4zLTEuNC44IDAgMS41LjYgMS41IDEuNHptLS40IDEyLjJoLTJ2LTkuMWgydjkuMXpNNjMxLjMgMjUxLjN2NS43aC0ydi01YzAtMS41LS44LTIuNC0yLjEtMi40LTEuMi0uMS0yLjMuOS0yLjQgMi4xdjUuM2gtMnYtNWMwLTEuNS0uOC0yLjQtMi4xLTIuNC0xLjItLjEtMi4zLjktMi40IDIuMXY1LjNoLTJ2LTkuMWgydjEuMWMuNi0uOSAxLjctMS40IDIuOC0xLjMgMS4zIDAgMi41LjYgMy4xIDEuNi43LTEuMSAyLTEuNyAzLjMtMS42IDEuOS0uMSAzLjYgMS40IDMuNyAzLjMuMS4xLjEuMi4xLjN6TTY0Mi41IDI1Mi41di43aC02LjdjLjEgMS40IDEuMyAyLjQgMi43IDIuMyAxIDAgMS45LS40IDIuNi0xbDEgMS40Yy0xIC45LTIuNCAxLjMtMy43IDEuMy0yLjUuMS00LjYtMS44LTQuNy00LjN2LS41Yy0uMi0yLjQgMS42LTQuNiA0LjEtNC44aC41YzIuNS4xIDQuMiAyIDQuMiA0Ljl6bS02LjctLjhoNC43YzAtMS4zLTEuMS0yLjItMi4zLTIuMi0xLjMtLjEtMi40LjktMi40IDIuMnoiIGZpbGw9IiMwMDAiLz48cGF0aCBmaWxsPSIjRUZFRkVGIiBkPSJNMzM4LjYgMjg4LjdoNDMzLjd2NDVIMzM4LjZ6Ii8+PHBhdGggZD0iTTQ4MS45IDMwNi4zbC0xLjggMS4yYy0uOC0xLjItMi4yLTEuOS0zLjctMS45LTIuNy4xLTQuOCAyLjMtNC43IDUgLjEgMi42IDIuMSA0LjYgNC43IDQuNyAxLjUgMCAyLjktLjcgMy43LTEuOWwxLjcgMS4zYy0xLjMgMS43LTMuMyAyLjgtNS41IDIuNy0zLjggMC02LjktMy03LTYuOC0uMS0zLjggMy02LjkgNi44LTdoLjFjMi4zLS4yIDQuNC45IDUuNyAyLjd6TTQ5My40IDMwNi43Yy0xLjEtLjctMi40LTEuMS0zLjctMS4xLTEuOCAwLTMgLjgtMyAyIDAgMS4xIDEgMS41IDIuOCAxLjhsLjkuMWMyLjIuMyA0LjMgMS4yIDQuMyAzLjcgMCAyLjctMi41IDQuMi01LjMgNC4yLTEuOSAwLTMuOC0uNi01LjQtMS44bDEuMi0xLjdjMS4yLjkgMi43IDEuNSA0LjIgMS41IDEuNyAwIDMuMS0uNyAzLjEtMiAwLTEtMS0xLjUtMy0xLjhsLTEtLjFjLTItLjMtMy45LTEuMi0zLjktMy43IDAtMi43IDIuNC00LjIgNS4yLTQuMiAxLjcgMCAzLjQuNSA0LjggMS40bC0xLjIgMS43ek00OTkuNiAzMTdoLTIuMXYtMTMuM2gyLjF6TTUxNC40IDMxN2gtMi43bC01LjEtMTMuM2gyLjNsNC4xIDExLjEgNC4yLTExLjFoMi4yek01MjkuMyAzMTIuNWMuMSAyLjctMi4xIDQuOS00LjggNS0yLjcuMS00LjktMi4xLTUtNC44LS4xLTIuNyAyLjEtNC45IDQuOC01aC4xYzIuNi0uMSA0LjggMS45IDQuOSA0LjZ2LjJ6bS03LjggMGMwIDEuNiAxLjMgMi44IDIuOSAyLjggMS42IDAgMi44LTEuMyAyLjgtMi45IDAtMS42LTEuMy0yLjgtMi45LTIuOC0xLjUgMC0yLjggMS4yLTIuOSAyLjcuMS4xLjEuMS4xLjJ6TTUzMy44IDMxN2gtMnYtMTMuN2gyek01NDUuMiAzMTMuMmMtLjEgMi4zLTIgNC4yLTQuMyA0LjEtMi4yLS4xLTQtMS45LTQuMS00LjFWMzA4aDJ2NS4xYzAgMS44IDEgMi40IDIuMiAyLjQgMS4yIDAgMi4yLS42IDIuMi0yLjRWMzA4aDJ2NS4yek01NjMuMiAzMTEuM3Y1LjdoLTJ2LTVjMC0xLjUtLjgtMi40LTIuMS0yLjQtMS4yLS4xLTIuMy45LTIuNCAyLjF2NS4zaC0ydi01YzAtMS41LS44LTIuNC0yLjEtMi40LTEuMi0uMS0yLjMuOS0yLjQgMi4xdjUuM2gtMnYtOS4xaDJ2MS4xYy42LS45IDEuNy0xLjQgMi44LTEuMyAxLjMgMCAyLjUuNiAzLjEgMS42LjctMS4xIDItMS43IDMuMy0xLjYgMS45LS4xIDMuNiAxLjQgMy43IDMuMy4xLjEuMS4yLjEuM3pNNTc0LjQgMzEyLjV2LjdoLTYuN2MuMSAxLjQgMS4zIDIuNCAyLjcgMi4zIDEgMCAxLjktLjQgMi42LTFsMSAxLjRjLTEgLjktMi40IDEuMy0zLjcgMS4zLTIuNS4xLTQuNi0xLjgtNC43LTQuM3YtLjVjLS4yLTIuNCAxLjYtNC42IDQuMS00LjhoLjVjMi40LjEgNC4yIDIgNC4yIDQuOXptLTYuOC0uOGg0LjdjMC0xLjMtMS4xLTIuMi0yLjMtMi4yLTEuMy0uMS0yLjMuOS0yLjQgMi4yek01ODcuNSAzMDMuN2M0LjIgMCA2LjkgMi42IDYuOSA2LjdzLTIuNyA2LjctNi45IDYuN2gtNS4zdi0xMy4zaDUuM3YtLjF6bS0zLjIgMi4xdjkuMmgzLjFjMy4xIDAgNC43LTEuOSA0LjctNC42IDAtMi43LTEuNS00LjYtNC43LTQuNmgtMy4xek02MDMuMiAzMDhsLS41IDJjLS41LS4yLTEtLjMtMS41LS4zLTEuMiAwLTIuMi45LTIuMiAyLjF2NS4zaC0yVjMwOGgydjFjLjYtLjggMS42LTEuMyAyLjYtMS4zLjYgMCAxLjEuMSAxLjYuM3pNNjA3LjYgMzA0LjhjMCAuOC0uNiAxLjQtMS40IDEuNC0uOCAwLTEuNC0uNi0xLjQtMS4zdi0uMWMwLS44LjYtMS40IDEuMy0xLjQuOCAwIDEuNS42IDEuNSAxLjR6bS0uNCAxMi4yaC0ydi05LjFoMnY5LjF6TTYxNSAzMTdoLTIuNGwtMy43LTkuMWgyLjJsMi43IDcgMi43LTdoMi4xek02MjguNSAzMTIuNXYuN2gtNi43Yy4xIDEuNCAxLjMgMi40IDIuNyAyLjMgMSAwIDEuOS0uNCAyLjYtMWwxIDEuNGMtMSAuOS0yLjQgMS4zLTMuNyAxLjMtMi41LjEtNC42LTEuOC00LjctNC4zdi0uNWMtLjItMi40IDEuNi00LjYgNC4xLTQuOGguNWMyLjQuMSA0LjIgMiA0LjIgNC45em0tNi44LS44aDQuN2MwLTEuMy0xLjEtMi4yLTIuMy0yLjItMS4yLS4xLTIuMy45LTIuNCAyLjJ6TTYzNy4xIDMwOGwtLjUgMmMtLjUtLjItMS0uMy0xLjUtLjMtMS4yIDAtMi4yLjktMi4yIDIuMXY1LjNoLTJWMzA4aDJ2MWMuNi0uOCAxLjYtMS4zIDIuNi0xLjMuNiAwIDEuMS4xIDEuNi4zeiIgZmlsbD0iIzAwMCIvPjxwYXRoIGZpbGw9InVybCgjcHJlZml4X19hKSIgZD0iTTAgMzk0LjZoODA0djUzLjJIMHoiLz48cGF0aCBkPSJNNDAyLjIgNDIwLjJjMCA1LTMuNCA4LjctOC4zIDguNy00LjggMC04LjItMy43LTguMi04LjcgMC01IDMuNC04LjcgOC4yLTguNyA0LjkgMCA4LjMgMy43IDguMyA4Ljd6bS0xMy4yIDBjMCAzLjMgMi4xIDUuNSA1IDUuNXM1LTIuMiA1LTUuNS0yLjEtNS41LTUtNS41LTUgMi4yLTUgNS41ek00MTUuNSA0MTZjLTEuMy0uOS0yLjktMS40LTQuNS0xLjQtMS44IDAtMyAuNy0zIDIgMCAxLjIgMS40IDEuNiAzLjIgMS45bC45LjJjMi44LjUgNSAxLjggNSA0LjcgMCAzLjctMyA1LjUtNi40IDUuNS0yLjQgMC00LjctLjctNi42LTIuMmwxLjYtMi43YzEuNCAxLjIgMy4yIDEuOCA1IDEuOCAxLjcgMCAzLjEtLjcgMy4xLTIgMC0xLjItMS4xLTEuNi0zLjMtMmwtMS0uMmMtMi44LS41LTQuOC0xLjgtNC44LTQuOCAwLTMuNSAyLjktNS4zIDYuMy01LjMgMi4xIDAgNC4yLjYgNiAxLjhsLTEuNSAyLjd6TTYwMy4xIDUyMC42Yy0xMC4xIDAtMjEtMi4yLTIxLTd2LTEwLjRjLjktMS4yLjktMi44IDAtNHYtMTAuNGMuOS0xLjIuOS0yLjggMC00di0xMC40YzAtNC44IDEwLjktNyAyMS03czIxIDIuMiAyMSA3djEwLjRhMy4zIDMuMyAwIDAwMCA0djEwLjRhMy4zIDMuMyAwIDAwMCA0djEwLjRjLjEgNC44LTEwLjkgNy0yMSA3eiIgZmlsbD0iI0ZGRiIvPjxwYXRoIGQ9Ik02MDMuMSA0NjguOGMxMC44IDAgMTkuNSAyLjUgMTkuNSA1LjV2MTAuNGMtMS4xLjUtMS42IDEuOC0xLjEgMi45LjIuNS42LjkgMS4xIDEuMXYxMC40Yy0xLjEuNS0xLjYgMS44LTEuMSAyLjkuMi41LjYuOSAxLjEgMS4xdjEwLjRjMCAzLjEtOC43IDUuNS0xOS41IDUuNXMtMTkuNS0yLjUtMTkuNS01LjV2LTEwLjRjMS4xLS41IDEuNi0xLjggMS4xLTIuOS0uMi0uNS0uNi0uOS0xLjEtMS4xdi0xMC40YzEuMS0uNSAxLjYtMS44IDEuMS0yLjktLjItLjUtLjYtLjktMS4xLTEuMXYtMTAuNGMwLTMgOC43LTUuNSAxOS41LTUuNW0wLTNjLTIuMyAwLTIyLjUuMi0yMi41IDguNXYxMC40Yy42IDEuMy42IDIuNyAwIDR2MTAuNGMuNiAxLjMuNiAyLjcgMCA0djEwLjRjMCA4LjMgMjAuMiA4LjUgMjIuNSA4LjUgMi4zIDAgMjIuNS0uMiAyMi41LTguNXYtMTAuNGMtLjYtMS4zLS42LTIuNyAwLTR2LTEwLjRjLS42LTEuMy0uNi0yLjcgMC00di0xMC40Yy4xLTguMy0yMC4yLTguNS0yMi41LTguNXoiIGZpbGw9IiM4MjgyODIiLz48cGF0aCBkPSJNNjIyLjcgNTAzLjF2MTAuNGMwIDMuMS04LjcgNS41LTE5LjUgNS41cy0xOS41LTIuNS0xOS41LTUuNXYtMTAuNCIgZmlsbD0iI0ZGRiIvPjxwYXRoIGQ9Ik02MDMuMSA1MTkuNmMtOS43IDAtMjAtMi4xLTIwLTZ2LTEwLjRoMXYxMC40YzAgMi40IDcuOCA1IDE5IDVzMTktMi43IDE5LTV2LTEwLjRoMXYxMC40Yy4xIDMuOC0xMC4zIDYtMjAgNnoiIGZpbGw9IiM4MjgyODIiLz48ZyB0cmFuc2Zvcm09InRyYW5zbGF0ZSg1ODMgNDk3KSI+PGVsbGlwc2UgZmlsbD0iI0ZGRiIgY3g9IjIwLjEiIGN5PSI2LjEiIHJ4PSIxOS41IiByeT0iNS41Ii8+PHBhdGggZD0iTTIwLjEgMTIuMmMtOS43IDAtMjAtMi4xLTIwLTZzMTAuMy02IDIwLTYgMjAgMi4xIDIwIDYtMTAuMyA2LTIwIDZ6bTAtMTEuMWMtMTEuMiAwLTE5IDIuNy0xOSA1czcuOCA1IDE5IDUgMTktMi43IDE5LTUtNy44LTUtMTktNXoiIGZpbGw9IiM4MjgyODIiLz48L2c+PHBhdGggZD0iTTYyMi43IDQ4OC43djEwLjRjMCAzLjEtOC43IDUuNS0xOS41IDUuNXMtMTkuNS0yLjUtMTkuNS01LjV2LTEwLjQiIGZpbGw9IiNGRkYiLz48cGF0aCBkPSJNNjAzLjEgNTA1LjJjLTkuNyAwLTIwLTIuMS0yMC02di0xMC40aDF2MTAuNGMwIDIuNCA3LjggNSAxOSA1czE5LTIuNyAxOS01di0xMC40aDF2MTAuNGMuMSAzLjgtMTAuMyA2LTIwIDZ6IiBmaWxsPSIjODI4MjgyIi8+PGcgdHJhbnNmb3JtPSJ0cmFuc2xhdGUoNTgzIDQ4MikiPjxlbGxpcHNlIGZpbGw9IiNGRkYiIGN4PSIyMC4xIiBjeT0iNi43IiByeD0iMTkuNSIgcnk9IjUuNSIvPjxwYXRoIGQ9Ik0yMC4xIDEyLjhjLTkuNyAwLTIwLTIuMS0yMC02czEwLjMtNiAyMC02IDIwIDIuMSAyMCA2LTEwLjMgNi0yMCA2em0wLTExLjFjLTExLjIgMC0xOSAyLjctMTkgNXM3LjggNSAxOSA1IDE5LTIuNyAxOS01LTcuOC01LTE5LTV6IiBmaWxsPSIjODI4MjgyIi8+PC9nPjxwYXRoIGQ9Ik02MjIuNyA0NzQuM3YxMC40YzAgMy4xLTguNyA1LjUtMTkuNSA1LjVzLTE5LjUtMi41LTE5LjUtNS41di0xMC40IiBmaWxsPSIjRkZGIi8+PHBhdGggZD0iTTYwMy4xIDQ5MC44Yy05LjcgMC0yMC0yLjEtMjAtNnYtMTAuNGgxdjEwLjRjMCAyLjQgNy44IDUgMTkgNXMxOS0yLjcgMTktNXYtMTAuNGgxdjEwLjRjLjEgMy44LTEwLjMgNi0yMCA2eiIgZmlsbD0iIzgyODI4MiIvPjxnIHRyYW5zZm9ybT0idHJhbnNsYXRlKDU4MyA0NjgpIj48ZWxsaXBzZSBmaWxsPSIjRkZGIiBjeD0iMjAuMSIgY3k9IjYuMyIgcng9IjE5LjUiIHJ5PSI1LjUiLz48cGF0aCBkPSJNMjAuMSAxMi40Yy05LjcgMC0yMC0yLjEtMjAtNnMxMC4zLTYgMjAtNiAyMCAyLjEgMjAgNi0xMC4zIDYtMjAgNnptMC0xMS4xYy0xMS4yIDAtMTkgMi43LTE5IDVzNy44IDUgMTkgNSAxOS0yLjcgMTktNS03LjgtNS0xOS01eiIgZmlsbD0iIzgyODI4MiIvPjwvZz48cGF0aCBkPSJNNjE3LjQgNDg1LjJjLS41IDAtLjktLjItMS4yLS41LS40LS40LS41LTEtLjQtMS43LjEtLjYuNS0xLjIgMS0xLjcgMS4xLTEuMSAyLjYtMS4zIDMuNC0uNS40LjQuNSAxIC40IDEuNy0uMS42LS41IDEuMi0xIDEuNy0uNy42LTEuNSAxLTIuMiAxem0xLjUtMy44Yy0uNCAwLTEgLjItMS41LjctLjQuNC0uNi44LS43IDEuMiAwIC4yLS4xLjUuMS44LjMuMyAxLjIuMiAxLjktLjUuNC0uNC42LS44LjctMS4yIDAtLjIuMS0uNS0uMS0uOCAwLS4yLS4yLS4yLS40LS4yek02MTcuNCA0OTkuNmMtLjUgMC0uOS0uMi0xLjItLjUtLjQtLjQtLjUtMS0uNC0xLjcuMS0uNi41LTEuMiAxLTEuNyAxLjEtMS4xIDIuNi0xLjMgMy40LS41LjQuNC41IDEgLjQgMS43LS4xLjYtLjUgMS4yLTEgMS43LS43LjYtMS41IDEtMi4yIDF6bTEuNS0zLjhjLS40IDAtMSAuMi0xLjQuNy0uNy43LS45IDEuNi0uNSAxLjkuMy4zIDEuMi4yIDEuOS0uNS40LS40LjYtLjguNy0xLjIgMC0uMi4xLS41LS4xLS44LS4yLS4xLS40LS4xLS42LS4xek02MTcuNCA1MTRjLS41IDAtLjktLjItMS4yLS41LS40LS40LS41LTEtLjQtMS43LjEtLjYuNS0xLjIgMS0xLjcgMS4xLTEuMSAyLjYtMS4zIDMuNC0uNS40LjQuNSAxIC40IDEuNy0uMS42LS41IDEuMi0xIDEuNy0uNy42LTEuNSAxLTIuMiAxem0xLjUtMy44Yy0uNCAwLTEgLjItMS40LjctLjQuNC0uNi44LS43IDEuMiAwIC4yLS4xLjUuMS44LjMuMyAxLjIuMiAxLjktLjUuNC0uNC42LS44LjctMS4yIDAtLjIuMS0uNS0uMS0uOC0uMS0uMi0uMy0uMi0uNS0uMnoiIGZpbGw9IiM4MjgyODIiLz48cGF0aCBkPSJNNTIyLjcgNTIwLjZjLTEwLjEgMC0yMS0yLjItMjEtN3YtMTAuNGMuOS0xLjIuOS0yLjggMC00di0xMC40Yy45LTEuMi45LTIuOCAwLTR2LTEwLjRjMC00LjggMTAuOS03IDIxLTdzMjEgMi4yIDIxIDd2MTAuNGEzLjMgMy4zIDAgMDAwIDR2MTAuNGEzLjMgMy4zIDAgMDAwIDR2MTAuNGMwIDQuOC0xMC45IDctMjEgN3oiIGZpbGw9IiNGRkYiLz48cGF0aCBkPSJNNTIyLjcgNDY4LjhjMTAuOCAwIDE5LjUgMi41IDE5LjUgNS41djEwLjRjLTEuMS41LTEuNiAxLjgtMS4xIDIuOS4yLjUuNi45IDEuMSAxLjF2MTAuNGMtMS4xLjUtMS42IDEuOC0xLjEgMi45LjIuNS42LjkgMS4xIDEuMXYxMC40YzAgMy4xLTguNyA1LjUtMTkuNSA1LjVzLTE5LjUtMi41LTE5LjUtNS41di0xMC40YzEuMS0uNSAxLjYtMS44IDEuMS0yLjktLjItLjUtLjYtLjktMS4xLTEuMXYtMTAuNGMxLjEtLjUgMS42LTEuOCAxLjEtMi45LS4yLS41LS42LS45LTEuMS0xLjF2LTEwLjRjLS4xLTMgOC43LTUuNSAxOS41LTUuNW0wLTNjLTIuMyAwLTIyLjUuMi0yMi41IDguNXYxMC40Yy42IDEuMy42IDIuNyAwIDR2MTAuNGMuNiAxLjMuNiAyLjcgMCA0djEwLjRjMCA4LjMgMjAuMiA4LjUgMjIuNSA4LjUgMi4zIDAgMjIuNS0uMiAyMi41LTguNXYtMTAuNGMtLjYtMS4zLS42LTIuNyAwLTR2LTEwLjRjLS42LTEuMy0uNi0yLjcgMC00di0xMC40YzAtOC4zLTIwLjItOC41LTIyLjUtOC41eiIgZmlsbD0iIzgyODI4MiIvPjxwYXRoIGQ9Ik01NDIuMiA1MDMuMXYxMC40YzAgMy4xLTguNyA1LjUtMTkuNSA1LjVzLTE5LjUtMi41LTE5LjUtNS41di0xMC40IiBmaWxsPSIjRkZGIi8+PHBhdGggZD0iTTUyMi43IDUxOS42Yy05LjcgMC0yMC0yLjEtMjAtNnYtMTAuNGgxdjEwLjRjMCAyLjQgNy44IDUgMTkgNXMxOS0yLjcgMTktNXYtMTAuNGgxdjEwLjRjMCAzLjgtMTAuMyA2LTIwIDZ6IiBmaWxsPSIjODI4MjgyIi8+PGcgdHJhbnNmb3JtPSJ0cmFuc2xhdGUoNTAyIDQ5NykiPjxlbGxpcHNlIGZpbGw9IiNGRkYiIGN4PSIyMC43IiBjeT0iNi4xIiByeD0iMTkuNSIgcnk9IjUuNSIvPjxwYXRoIGQ9Ik0yMC43IDEyLjJjLTkuNyAwLTIwLTIuMS0yMC02czEwLjMtNiAyMC02IDIwIDIuMSAyMCA2LTEwLjMgNi0yMCA2em0wLTExLjFjLTExLjIgMC0xOSAyLjctMTkgNXM3LjggNSAxOSA1IDE5LTIuNyAxOS01LTcuOC01LTE5LTV6IiBmaWxsPSIjODI4MjgyIi8+PC9nPjxwYXRoIGQ9Ik01NDIuMiA0ODguN3YxMC40YzAgMy4xLTguNyA1LjUtMTkuNSA1LjVzLTE5LjUtMi41LTE5LjUtNS41di0xMC40IiBmaWxsPSIjRkZGIi8+PHBhdGggZD0iTTUyMi43IDUwNS4yYy05LjcgMC0yMC0yLjEtMjAtNnYtMTAuNGgxdjEwLjRjMCAyLjQgNy44IDUgMTkgNXMxOS0yLjcgMTktNXYtMTAuNGgxdjEwLjRjMCAzLjgtMTAuMyA2LTIwIDZ6IiBmaWxsPSIjODI4MjgyIi8+PGcgdHJhbnNmb3JtPSJ0cmFuc2xhdGUoNTAyIDQ4MikiPjxlbGxpcHNlIGZpbGw9IiNGRkYiIGN4PSIyMC43IiBjeT0iNi43IiByeD0iMTkuNSIgcnk9IjUuNSIvPjxwYXRoIGQ9Ik0yMC43IDEyLjhjLTkuNyAwLTIwLTIuMS0yMC02czEwLjMtNiAyMC02IDIwIDIuMSAyMCA2LTEwLjMgNi0yMCA2em0wLTExLjFjLTExLjIgMC0xOSAyLjctMTkgNXM3LjggNSAxOSA1IDE5LTIuNyAxOS01LTcuOC01LTE5LTV6IiBmaWxsPSIjODI4MjgyIi8+PC9nPjxwYXRoIGQ9Ik01NDIuMiA0NzQuM3YxMC40YzAgMy4xLTguNyA1LjUtMTkuNSA1LjVzLTE5LjUtMi41LTE5LjUtNS41di0xMC40IiBmaWxsPSIjRkZGIi8+PHBhdGggZD0iTTUyMi43IDQ5MC44Yy05LjcgMC0yMC0yLjEtMjAtNnYtMTAuNGgxdjEwLjRjMCAyLjQgNy44IDUgMTkgNXMxOS0yLjcgMTktNXYtMTAuNGgxdjEwLjRjMCAzLjgtMTAuMyA2LTIwIDZ6IiBmaWxsPSIjODI4MjgyIi8+PGcgdHJhbnNmb3JtPSJ0cmFuc2xhdGUoNTAyIDQ2OCkiPjxlbGxpcHNlIGZpbGw9IiNGRkYiIGN4PSIyMC43IiBjeT0iNi4zIiByeD0iMTkuNSIgcnk9IjUuNSIvPjxwYXRoIGQ9Ik0yMC43IDEyLjRjLTkuNyAwLTIwLTIuMS0yMC02czEwLjMtNiAyMC02IDIwIDIuMSAyMCA2LTEwLjMgNi0yMCA2em0wLTExLjFjLTExLjIgMC0xOSAyLjctMTkgNXM3LjggNSAxOSA1IDE5LTIuNyAxOS01LTcuOC01LTE5LTV6IiBmaWxsPSIjODI4MjgyIi8+PC9nPjxwYXRoIGQ9Ik01MzcgNDg1LjJjLS41IDAtLjktLjItMS4yLS41LS44LS44LS42LTIuMy41LTMuNHMyLjYtMS4zIDMuNC0uNWMuOC44LjYgMi4zLS41IDMuNC0uNy42LTEuNSAxLTIuMiAxem0xLjUtMy44Yy0uNCAwLTEgLjItMS41LjctLjcuNy0uOSAxLjYtLjUgMS45LjMuMyAxLjIuMiAxLjktLjVzLjktMS42LjUtMS45YzAtLjItLjItLjItLjQtLjJ6TTUzNyA0OTkuNmMtLjUgMC0uOS0uMi0xLjItLjUtLjgtLjgtLjYtMi4zLjUtMy40czIuNi0xLjMgMy40LS41Yy44LjguNiAyLjMtLjUgMy40LS43LjYtMS41IDEtMi4yIDF6bTAtMy4xYy0uNy43LS45IDEuNi0uNSAxLjkuMy4zIDEuMi4yIDEuOS0uNXMuOS0xLjYuNS0xLjljLS4yLS40LTEuMS0uMy0xLjkuNXpNNTM3IDUxNGMtLjUgMC0uOS0uMi0xLjItLjUtLjgtLjgtLjYtMi4zLjUtMy40czIuNi0xLjMgMy40LS41Yy44LjguNiAyLjMtLjUgMy40LS43LjYtMS41IDEtMi4yIDF6bTEuNS0zLjhjLS40IDAtMSAuMi0xLjQuNy0uNy43LS45IDEuNi0uNSAxLjkuMy4zIDEuMi4yIDEuOS0uNXMuOS0xLjYuNS0xLjljLS4xLS4yLS4zLS4yLS41LS4yeiIgZmlsbD0iIzgyODI4MiIvPjxwYXRoIGQ9Ik00NDIuMiA1MjAuNmMtMTAuMSAwLTIxLTIuMi0yMS03di0xMC40Yy45LTEuMi45LTIuOCAwLTR2LTEwLjRjLjktMS4yLjktMi44IDAtNHYtMTAuNGMwLTQuOCAxMC45LTcgMjEtN3MyMSAyLjIgMjEgN3YxMC40YTMuMyAzLjMgMCAwMDAgNHYxMC40YTMuMyAzLjMgMCAwMDAgNHYxMC40Yy4xIDQuOC0xMC44IDctMjEgN3oiIGZpbGw9IiNGRkYiLz48cGF0aCBkPSJNNDQyLjIgNDY4LjhjMTAuOCAwIDE5LjUgMi41IDE5LjUgNS41djEwLjRjLTEuMS41LTEuNiAxLjgtMS4xIDIuOS4yLjUuNi45IDEuMSAxLjF2MTAuNGMtMS4xLjUtMS42IDEuOC0xLjEgMi45LjIuNS42LjkgMS4xIDEuMXYxMC40YzAgMy4xLTguNyA1LjUtMTkuNSA1LjVzLTE5LjUtMi41LTE5LjUtNS41di0xMC40YzEuMS0uNSAxLjYtMS44IDEuMS0yLjktLjItLjUtLjYtLjktMS4xLTEuMXYtMTAuNGMxLjEtLjUgMS42LTEuOCAxLjEtMi45LS4yLS41LS42LS45LTEuMS0xLjF2LTEwLjRjMC0zIDguNy01LjUgMTkuNS01LjVtMC0zYy0yLjMgMC0yMi41LjItMjIuNSA4LjV2MTAuNGMuNiAxLjMuNiAyLjcgMCA0djEwLjRjLjYgMS4zLjYgMi43IDAgNHYxMC40YzAgOC4zIDIwLjIgOC41IDIyLjUgOC41IDIuMyAwIDIyLjUtLjIgMjIuNS04LjV2LTEwLjRjLS42LTEuMy0uNi0yLjcgMC00di0xMC40Yy0uNi0xLjMtLjYtMi43IDAtNHYtMTAuNGMuMS04LjMtMjAuMi04LjUtMjIuNS04LjV6IiBmaWxsPSIjODI4MjgyIi8+PHBhdGggZD0iTTQ2MS44IDUwMy4xdjEwLjRjMCAzLjEtOC43IDUuNS0xOS41IDUuNXMtMTkuNS0yLjUtMTkuNS01LjV2LTEwLjQiIGZpbGw9IiNGRkYiLz48cGF0aCBkPSJNNDQyLjIgNTE5LjZjLTkuNyAwLTIwLTIuMS0yMC02di0xMC40aDF2MTAuNGMwIDIuNCA3LjggNSAxOSA1czE5LTIuNyAxOS01di0xMC40aDF2MTAuNGMuMSAzLjgtMTAuMyA2LTIwIDZ6IiBmaWxsPSIjODI4MjgyIi8+PGcgdHJhbnNmb3JtPSJ0cmFuc2xhdGUoNDIyIDQ5NykiPjxlbGxpcHNlIGZpbGw9IiNGRkYiIGN4PSIyMC4yIiBjeT0iNi4xIiByeD0iMTkuNSIgcnk9IjUuNSIvPjxwYXRoIGQ9Ik0yMC4yIDEyLjJjLTkuNyAwLTIwLTIuMS0yMC02czEwLjMtNiAyMC02IDIwIDIuMSAyMCA2LTEwLjMgNi0yMCA2em0wLTExLjFjLTExLjIgMC0xOSAyLjctMTkgNXM3LjggNSAxOSA1IDE5LTIuNyAxOS01LTcuOC01LTE5LTV6IiBmaWxsPSIjODI4MjgyIi8+PC9nPjxwYXRoIGQ9Ik00NjEuOCA0ODguN3YxMC40YzAgMy4xLTguNyA1LjUtMTkuNSA1LjVzLTE5LjUtMi41LTE5LjUtNS41di0xMC40IiBmaWxsPSIjRkZGIi8+PHBhdGggZD0iTTQ0Mi4yIDUwNS4yYy05LjcgMC0yMC0yLjEtMjAtNnYtMTAuNGgxdjEwLjRjMCAyLjQgNy44IDUgMTkgNXMxOS0yLjcgMTktNXYtMTAuNGgxdjEwLjRjLjEgMy44LTEwLjMgNi0yMCA2eiIgZmlsbD0iIzgyODI4MiIvPjxnIHRyYW5zZm9ybT0idHJhbnNsYXRlKDQyMiA0ODIpIj48ZWxsaXBzZSBmaWxsPSIjRkZGIiBjeD0iMjAuMiIgY3k9IjYuNyIgcng9IjE5LjUiIHJ5PSI1LjUiLz48cGF0aCBkPSJNMjAuMiAxMi44Yy05LjcgMC0yMC0yLjEtMjAtNnMxMC4zLTYgMjAtNiAyMCAyLjEgMjAgNi0xMC4zIDYtMjAgNnptMC0xMS4xYy0xMS4yIDAtMTkgMi43LTE5IDVzNy44IDUgMTkgNSAxOS0yLjcgMTktNS03LjgtNS0xOS01eiIgZmlsbD0iIzgyODI4MiIvPjwvZz48cGF0aCBkPSJNNDYxLjggNDc0LjN2MTAuNGMwIDMuMS04LjcgNS41LTE5LjUgNS41cy0xOS41LTIuNS0xOS41LTUuNXYtMTAuNCIgZmlsbD0iI0ZGRiIvPjxwYXRoIGQ9Ik00NDIuMiA0OTAuOGMtOS43IDAtMjAtMi4xLTIwLTZ2LTEwLjRoMXYxMC40YzAgMi40IDcuOCA1IDE5IDVzMTktMi43IDE5LTV2LTEwLjRoMXYxMC40Yy4xIDMuOC0xMC4zIDYtMjAgNnoiIGZpbGw9IiM4MjgyODIiLz48ZyB0cmFuc2Zvcm09InRyYW5zbGF0ZSg0MjIgNDY4KSI+PGVsbGlwc2UgZmlsbD0iI0ZGRiIgY3g9IjIwLjIiIGN5PSI2LjMiIHJ4PSIxOS41IiByeT0iNS41Ii8+PHBhdGggZD0iTTIwLjIgMTIuNGMtOS43IDAtMjAtMi4xLTIwLTZzMTAuMy02IDIwLTYgMjAgMi4xIDIwIDYtMTAuMyA2LTIwIDZ6bTAtMTEuMWMtMTEuMiAwLTE5IDIuNy0xOSA1czcuOCA1IDE5IDUgMTktMi43IDE5LTUtNy44LTUtMTktNXoiIGZpbGw9IiM4MjgyODIiLz48L2c+PHBhdGggZD0iTTQ1Ni41IDQ4NS4yYy0uNSAwLS45LS4yLTEuMi0uNS0uNC0uNC0uNS0xLS40LTEuNy4xLS42LjUtMS4yIDEtMS43IDEuMS0xLjEgMi42LTEuMyAzLjQtLjUuNC40LjUgMSAuNCAxLjctLjEuNi0uNSAxLjItMSAxLjctLjcuNi0xLjQgMS0yLjIgMXptMS41LTMuOGMtLjQgMC0xIC4yLTEuNS43LS40LjQtLjYuOC0uNyAxLjIgMCAuMi0uMS41LjEuOC4zLjMgMS4yLjIgMS45LS41LjQtLjQuNi0uOC43LTEuMiAwLS4yLjEtLjUtLjEtLjggMC0uMi0uMS0uMi0uNC0uMnpNNDU2LjUgNDk5LjZjLS41IDAtLjktLjItMS4yLS41LS44LS44LS42LTIuMy41LTMuNHMyLjYtMS4zIDMuNC0uNWMuNC40LjUgMSAuNCAxLjctLjEuNi0uNSAxLjItMSAxLjctLjYuNi0xLjQgMS0yLjEgMXptMS41LTMuOGMtLjQgMC0xIC4yLTEuNC43LS43LjctLjkgMS42LS41IDEuOS4zLjMgMS4yLjIgMS45LS41LjQtLjQuNi0uOC43LTEuMiAwLS4yLjEtLjUtLjEtLjgtLjItLjEtLjMtLjEtLjYtLjF6TTQ1Ni41IDUxNGMtLjUgMC0uOS0uMi0xLjItLjUtLjQtLjQtLjUtMS0uNC0xLjcuMS0uNi41LTEuMiAxLTEuNyAxLjEtMS4xIDIuNi0xLjMgMy40LS41LjQuNC41IDEgLjQgMS43LS4xLjYtLjUgMS4yLTEgMS43LS43LjYtMS40IDEtMi4yIDF6bTEuNS0zLjhjLS40IDAtMSAuMi0xLjQuNy0uNC40LS42LjgtLjcgMS4yIDAgLjItLjEuNS4xLjguMy4zIDEuMi4yIDEuOS0uNS40LS40LjYtLjguNy0xLjIgMC0uMi4xLS41LS4xLS44LS4xLS4yLS4yLS4yLS41LS4yeiIgZmlsbD0iIzgyODI4MiIvPjxwYXRoIGQ9Ik0zNjEuOCA1MjAuNmMtMTAuMSAwLTIxLTIuMi0yMS03di0xMC40Yy45LTEuMi45LTIuOCAwLTR2LTEwLjRjLjktMS4yLjktMi44IDAtNHYtMTAuNGMwLTQuOCAxMC45LTcgMjEtN3MyMSAyLjIgMjEgN3YxMC40YTMuMyAzLjMgMCAwMDAgNHYxMC40YTMuMyAzLjMgMCAwMDAgNHYxMC40YzAgNC44LTEwLjkgNy0yMSA3eiIgZmlsbD0iI0ZGRiIvPjxwYXRoIGQ9Ik0zNjEuOCA0NjguOGMxMC44IDAgMTkuNSAyLjUgMTkuNSA1LjV2MTAuNGMtMS4xLjUtMS42IDEuOC0xLjEgMi45LjIuNS42LjkgMS4xIDEuMXYxMC40Yy0xLjEuNS0xLjYgMS44LTEuMSAyLjkuMi41LjYuOSAxLjEgMS4xdjEwLjRjMCAzLjEtOC43IDUuNS0xOS41IDUuNXMtMTkuNS0yLjUtMTkuNS01LjV2LTEwLjRjMS4xLS41IDEuNi0xLjggMS4xLTIuOS0uMi0uNS0uNi0uOS0xLjEtMS4xdi0xMC40YzEuMS0uNSAxLjYtMS44IDEuMS0yLjktLjItLjUtLjYtLjktMS4xLTEuMXYtMTAuNGMtLjEtMyA4LjctNS41IDE5LjUtNS41bTAtM2MtMi4zIDAtMjIuNS4yLTIyLjUgOC41djEwLjRjLjYgMS4zLjYgMi43IDAgNHYxMC40Yy42IDEuMy42IDIuNyAwIDR2MTAuNGMwIDguMyAyMC4yIDguNSAyMi41IDguNSAyLjMgMCAyMi41LS4yIDIyLjUtOC41di0xMC40Yy0uNi0xLjMtLjYtMi43IDAtNHYtMTAuNGMtLjYtMS4zLS42LTIuNyAwLTR2LTEwLjRjMC04LjMtMjAuMi04LjUtMjIuNS04LjV6IiBmaWxsPSIjODI4MjgyIi8+PHBhdGggZD0iTTM4MS4zIDUwMy4xdjEwLjRjMCAzLjEtOC43IDUuNS0xOS41IDUuNXMtMTkuNS0yLjUtMTkuNS01LjV2LTEwLjQiIGZpbGw9IiNGRkYiLz48cGF0aCBkPSJNMzYxLjggNTE5LjZjLTkuNyAwLTIwLTIuMS0yMC02di0xMC40aDF2MTAuNGMwIDIuNCA3LjggNSAxOSA1czE5LTIuNyAxOS01di0xMC40aDF2MTAuNGMwIDMuOC0xMC4zIDYtMjAgNnoiIGZpbGw9IiM4MjgyODIiLz48ZyB0cmFuc2Zvcm09InRyYW5zbGF0ZSgzNDEgNDk3KSI+PGVsbGlwc2UgZmlsbD0iI0ZGRiIgY3g9IjIwLjgiIGN5PSI2LjEiIHJ4PSIxOS41IiByeT0iNS41Ii8+PHBhdGggZD0iTTIwLjggMTIuMmMtOS43IDAtMjAtMi4xLTIwLTZzMTAuMy02IDIwLTYgMjAgMi4xIDIwIDYtMTAuMyA2LTIwIDZ6bTAtMTEuMWMtMTEuMiAwLTE5IDIuNy0xOSA1czcuOCA1IDE5IDUgMTktMi43IDE5LTUtNy44LTUtMTktNXoiIGZpbGw9IiM4MjgyODIiLz48L2c+PHBhdGggZD0iTTM4MS4zIDQ4OC43djEwLjRjMCAzLjEtOC43IDUuNS0xOS41IDUuNXMtMTkuNS0yLjUtMTkuNS01LjV2LTEwLjQiIGZpbGw9IiNGRkYiLz48cGF0aCBkPSJNMzYxLjggNTA1LjJjLTkuNyAwLTIwLTIuMS0yMC02di0xMC40aDF2MTAuNGMwIDIuNCA3LjggNSAxOSA1czE5LTIuNyAxOS01di0xMC40aDF2MTAuNGMwIDMuOC0xMC4zIDYtMjAgNnoiIGZpbGw9IiM4MjgyODIiLz48ZyB0cmFuc2Zvcm09InRyYW5zbGF0ZSgzNDEgNDgyKSI+PGVsbGlwc2UgZmlsbD0iI0ZGRiIgY3g9IjIwLjgiIGN5PSI2LjciIHJ4PSIxOS41IiByeT0iNS41Ii8+PHBhdGggZD0iTTIwLjggMTIuOGMtOS43IDAtMjAtMi4xLTIwLTZzMTAuMy02IDIwLTYgMjAgMi4xIDIwIDYtMTAuMyA2LTIwIDZ6bTAtMTEuMWMtMTEuMiAwLTE5IDIuNy0xOSA1czcuOCA1IDE5IDUgMTktMi43IDE5LTUtNy44LTUtMTktNXoiIGZpbGw9IiM4MjgyODIiLz48L2c+PHBhdGggZD0iTTM4MS4zIDQ3NC4zdjEwLjRjMCAzLjEtOC43IDUuNS0xOS41IDUuNXMtMTkuNS0yLjUtMTkuNS01LjV2LTEwLjQiIGZpbGw9IiNGRkYiLz48cGF0aCBkPSJNMzYxLjggNDkwLjhjLTkuNyAwLTIwLTIuMS0yMC02di0xMC40aDF2MTAuNGMwIDIuNCA3LjggNSAxOSA1czE5LTIuNyAxOS01di0xMC40aDF2MTAuNGMwIDMuOC0xMC4zIDYtMjAgNnoiIGZpbGw9IiM4MjgyODIiLz48ZyB0cmFuc2Zvcm09InRyYW5zbGF0ZSgzNDEgNDY4KSI+PGVsbGlwc2UgZmlsbD0iI0ZGRiIgY3g9IjIwLjgiIGN5PSI2LjMiIHJ4PSIxOS41IiByeT0iNS41Ii8+PHBhdGggZD0iTTIwLjggMTIuNGMtOS43IDAtMjAtMi4xLTIwLTZzMTAuMy02IDIwLTYgMjAgMi4xIDIwIDYtMTAuMyA2LTIwIDZ6bTAtMTEuMWMtMTEuMiAwLTE5IDIuNy0xOSA1czcuOCA1IDE5IDUgMTktMi43IDE5LTUtNy44LTUtMTktNXoiIGZpbGw9IiM4MjgyODIiLz48L2c+PHBhdGggZD0iTTM3Ni4xIDQ4NS4yYy0uNSAwLS45LS4yLTEuMi0uNS0uOC0uOC0uNi0yLjMuNS0zLjRzMi42LTEuMyAzLjQtLjVjLjguOC42IDIuMy0uNSAzLjQtLjcuNi0xLjUgMS0yLjIgMXptMC0zLjFjLS43LjctLjkgMS42LS41IDEuOS4zLjMgMS4yLjIgMS45LS41cy45LTEuNi41LTEuOWMtLjItLjQtMS4xLS4zLTEuOS41ek0zNzYuMSA0OTkuNmMtLjUgMC0uOS0uMi0xLjItLjUtLjgtLjgtLjYtMi4zLjUtMy40czIuNi0xLjMgMy40LS41Yy44LjguNiAyLjMtLjUgMy40LS41LjUtMS4xLjgtMS43IDFoLS41em0wLTMuMWMtLjcuNy0uOSAxLjYtLjUgMS45LjIuMi42LjIuOC4xLjQtLjEuOC0uMyAxLjItLjcuNy0uNy45LTEuNi41LTEuOS0uMy0uMy0xLjItLjItMiAuNnpNMzc2LjEgNTE0Yy0uNSAwLS45LS4yLTEuMi0uNS0uOC0uOC0uNi0yLjMuNS0zLjRzMi42LTEuMyAzLjQtLjVjLjguOC42IDIuMy0uNSAzLjQtLjcuNi0xLjUgMS0yLjIgMXptMC0zLjFjLS43LjctLjkgMS42LS41IDEuOS4zLjMgMS4yLjIgMS45LS41cy45LTEuNi41LTEuOWMtLjItLjQtMS4xLS4zLTEuOS41eiIgZmlsbD0iIzgyODI4MiIvPjxwYXRoIGQ9Ik0yODEuMyA1MjAuNmMtMTAuMSAwLTIxLTIuMi0yMS03di0xMC40Yy45LTEuMi45LTIuOCAwLTR2LTEwLjRjLjktMS4yLjktMi44IDAtNHYtMTAuNGMwLTQuOCAxMC45LTcgMjEtN3MyMSAyLjIgMjEgN3YxMC40YTMuMyAzLjMgMCAwMDAgNHYxMC40YTMuMyAzLjMgMCAwMDAgNHYxMC40Yy4xIDQuOC0xMC44IDctMjEgN3oiIGZpbGw9IiNGRkYiLz48cGF0aCBkPSJNMjgxLjMgNDY4LjhjMTAuOCAwIDE5LjUgMi41IDE5LjUgNS41djEwLjRjLTEuMS41LTEuNiAxLjgtMS4xIDIuOS4yLjUuNi45IDEuMSAxLjF2MTAuNGMtMS4xLjUtMS42IDEuOC0xLjEgMi45LjIuNS42LjkgMS4xIDEuMXYxMC40YzAgMy4xLTguNyA1LjUtMTkuNSA1LjVzLTE5LjUtMi41LTE5LjUtNS41di0xMC40YzEuMS0uNSAxLjYtMS44IDEuMS0yLjktLjItLjUtLjYtLjktMS4xLTEuMXYtMTAuNGMxLjEtLjUgMS42LTEuOCAxLjEtMi45LS4yLS41LS42LS45LTEuMS0xLjF2LTEwLjRjMC0zIDguNy01LjUgMTkuNS01LjVtMC0zYy0yLjMgMC0yMi41LjItMjIuNSA4LjV2MTAuNGMuNiAxLjMuNiAyLjcgMCA0djEwLjRjLjYgMS4zLjYgMi43IDAgNHYxMC40YzAgOC4zIDIwLjIgOC41IDIyLjUgOC41IDIuMyAwIDIyLjUtLjIgMjIuNS04LjV2LTEwLjRjLS42LTEuMy0uNi0yLjcgMC00di0xMC40Yy0uNi0xLjMtLjYtMi43IDAtNHYtMTAuNGMuMS04LjMtMjAuMi04LjUtMjIuNS04LjV6IiBmaWxsPSIjODI4MjgyIi8+PHBhdGggZD0iTTMwMC45IDUwMy4xdjEwLjRjMCAzLjEtOC43IDUuNS0xOS41IDUuNXMtMTkuNS0yLjUtMTkuNS01LjV2LTEwLjQiIGZpbGw9IiNGRkYiLz48cGF0aCBkPSJNMjgxLjMgNTE5LjZjLTkuNyAwLTIwLTIuMS0yMC02di0xMC40aDF2MTAuNGMwIDIuNCA3LjggNSAxOSA1czE5LTIuNyAxOS01di0xMC40aDF2MTAuNGMuMSAzLjgtMTAuMyA2LTIwIDZ6IiBmaWxsPSIjODI4MjgyIi8+PGcgdHJhbnNmb3JtPSJ0cmFuc2xhdGUoMjYxIDQ5NykiPjxlbGxpcHNlIGZpbGw9IiNGRkYiIGN4PSIyMC4zIiBjeT0iNi4xIiByeD0iMTkuNSIgcnk9IjUuNSIvPjxwYXRoIGQ9Ik0yMC4zIDEyLjJjLTkuNyAwLTIwLTIuMS0yMC02czEwLjMtNiAyMC02IDIwIDIuMSAyMCA2LTEwLjMgNi0yMCA2em0wLTExLjFjLTExLjIgMC0xOSAyLjctMTkgNXM3LjggNSAxOSA1IDE5LTIuNyAxOS01LTcuOC01LTE5LTV6IiBmaWxsPSIjODI4MjgyIi8+PC9nPjxwYXRoIGQ9Ik0zMDAuOSA0ODguN3YxMC40YzAgMy4xLTguNyA1LjUtMTkuNSA1LjVzLTE5LjUtMi41LTE5LjUtNS41di0xMC40IiBmaWxsPSIjRkZGIi8+PHBhdGggZD0iTTI4MS4zIDUwNS4yYy05LjcgMC0yMC0yLjEtMjAtNnYtMTAuNGgxdjEwLjRjMCAyLjQgNy44IDUgMTkgNXMxOS0yLjcgMTktNXYtMTAuNGgxdjEwLjRjLjEgMy44LTEwLjMgNi0yMCA2eiIgZmlsbD0iIzgyODI4MiIvPjxnIHRyYW5zZm9ybT0idHJhbnNsYXRlKDI2MSA0ODIpIj48ZWxsaXBzZSBmaWxsPSIjRkZGIiBjeD0iMjAuMyIgY3k9IjYuNyIgcng9IjE5LjUiIHJ5PSI1LjUiLz48cGF0aCBkPSJNMjAuMyAxMi44Yy05LjcgMC0yMC0yLjEtMjAtNnMxMC4zLTYgMjAtNiAyMCAyLjEgMjAgNi0xMC4zIDYtMjAgNnptMC0xMS4xYy0xMS4yIDAtMTkgMi43LTE5IDVzNy44IDUgMTkgNSAxOS0yLjcgMTktNS03LjgtNS0xOS01eiIgZmlsbD0iIzgyODI4MiIvPjwvZz48cGF0aCBkPSJNMzAwLjkgNDc0LjN2MTAuNGMwIDMuMS04LjcgNS41LTE5LjUgNS41cy0xOS41LTIuNS0xOS41LTUuNXYtMTAuNCIgZmlsbD0iI0ZGRiIvPjxwYXRoIGQ9Ik0yODEuMyA0OTAuOGMtOS43IDAtMjAtMi4xLTIwLTZ2LTEwLjRoMXYxMC40YzAgMi40IDcuOCA1IDE5IDVzMTktMi43IDE5LTV2LTEwLjRoMXYxMC40Yy4xIDMuOC0xMC4zIDYtMjAgNnoiIGZpbGw9IiM4MjgyODIiLz48ZyB0cmFuc2Zvcm09InRyYW5zbGF0ZSgyNjEgNDY4KSI+PGVsbGlwc2UgZmlsbD0iI0ZGRiIgY3g9IjIwLjMiIGN5PSI2LjMiIHJ4PSIxOS41IiByeT0iNS41Ii8+PHBhdGggZD0iTTIwLjMgMTIuNGMtOS43IDAtMjAtMi4xLTIwLTZzMTAuMy02IDIwLTYgMjAgMi4xIDIwIDYtMTAuMyA2LTIwIDZ6bTAtMTEuMWMtMTEuMiAwLTE5IDIuNy0xOSA1czcuOCA1IDE5IDUgMTktMi43IDE5LTUtNy44LTUtMTktNXoiIGZpbGw9IiM4MjgyODIiLz48L2c+PHBhdGggZD0iTTI5NS43IDQ4NS4yYy0uNSAwLS45LS4yLTEuMi0uNS0uOC0uOC0uNi0yLjMuNS0zLjRzMi42LTEuMyAzLjQtLjVjLjQuNC41IDEgLjQgMS43LS4xLjYtLjUgMS4yLTEgMS43LS42LjYtMS40IDEtMi4xIDF6bTAtMy4xYy0uNy43LS45IDEuNi0uNSAxLjkuMy4zIDEuMi4yIDEuOS0uNXMuOS0xLjYuNS0xLjljLS4zLS40LTEuMi0uMy0xLjkuNXpNMjk1LjcgNDk5LjZjLS41IDAtLjktLjItMS4yLS41LS44LS44LS42LTIuMy41LTMuNHMyLjYtMS4zIDMuNC0uNWMuOC44LjYgMi4zLS41IDMuNC0uNy42LTEuNSAxLTIuMiAxem0wLTMuMWMtLjcuNy0uOSAxLjYtLjUgMS45LjMuMyAxLjIuMiAxLjktLjVzLjktMS42LjUtMS45Yy0uMy0uNC0xLjItLjMtMS45LjV6TTI5NS43IDUxNGMtLjUgMC0uOS0uMi0xLjItLjUtLjgtLjgtLjYtMi4zLjUtMy40czIuNi0xLjMgMy40LS41Yy44LjguNiAyLjMtLjUgMy40LS43LjYtMS41IDEtMi4yIDF6bTAtMy4xYy0uNy43LS45IDEuNi0uNSAxLjkuMy4zIDEuMi4yIDEuOS0uNXMuOS0xLjYuNS0xLjljLS4zLS40LTEuMi0uMy0xLjkuNXoiIGZpbGw9IiM4MjgyODIiLz48cGF0aCBkPSJNMjAwLjkgNTIwLjZjLTEwLjEgMC0yMS0yLjItMjEtN3YtMTAuNGMuOS0xLjIuOS0yLjggMC00di0xMC40Yy45LTEuMi45LTIuOCAwLTR2LTEwLjRjMC00LjggMTAuOS03IDIxLTdzMjEgMi4yIDIxIDd2MTAuNGEzLjMgMy4zIDAgMDAwIDR2MTAuNGEzLjMgMy4zIDAgMDAwIDR2MTAuNGMwIDQuOC0xMC45IDctMjEgN3oiIGZpbGw9IiNGRkYiLz48cGF0aCBkPSJNMjAwLjkgNDY4LjhjMTAuOCAwIDE5LjUgMi41IDE5LjUgNS41djEwLjRjLTEuMS41LTEuNiAxLjgtMS4xIDIuOS4yLjUuNi45IDEuMSAxLjF2MTAuNGMtMS4xLjUtMS42IDEuOC0xLjEgMi45LjIuNS42LjkgMS4xIDEuMXYxMC40YzAgMy4xLTguNyA1LjUtMTkuNSA1LjVzLTE5LjUtMi41LTE5LjUtNS41di0xMC40YzEuMS0uNSAxLjYtMS44IDEuMS0yLjktLjItLjUtLjYtLjktMS4xLTEuMXYtMTAuNGMxLjEtLjUgMS42LTEuOCAxLjEtMi45LS4yLS41LS42LS45LTEuMS0xLjF2LTEwLjRjLS4xLTMgOC43LTUuNSAxOS41LTUuNW0wLTNjLTIuMyAwLTIyLjUuMi0yMi41IDguNXYxMC40Yy42IDEuMy42IDIuNyAwIDR2MTAuNGMuNiAxLjMuNiAyLjcgMCA0djEwLjRjMCA4LjMgMjAuMiA4LjUgMjIuNSA4LjUgMi4zIDAgMjIuNS0uMiAyMi41LTguNXYtMTAuNGMtLjYtMS4zLS42LTIuNyAwLTR2LTEwLjRjLS42LTEuMy0uNi0yLjcgMC00di0xMC40YzAtOC4zLTIwLjItOC41LTIyLjUtOC41eiIgZmlsbD0iIzgyODI4MiIvPjxwYXRoIGQ9Ik0yMjAuNCA1MDMuMXYxMC40YzAgMy4xLTguNyA1LjUtMTkuNSA1LjVzLTE5LjUtMi41LTE5LjUtNS41di0xMC40IiBmaWxsPSIjRkZGIi8+PHBhdGggZD0iTTIwMC45IDUxOS42Yy05LjcgMC0yMC0yLjEtMjAtNnYtMTAuNGgxdjEwLjRjMCAyLjQgNy44IDUgMTkgNXMxOS0yLjcgMTktNXYtMTAuNGgxdjEwLjRjMCAzLjgtMTAuMyA2LTIwIDZ6IiBmaWxsPSIjODI4MjgyIi8+PGcgdHJhbnNmb3JtPSJ0cmFuc2xhdGUoMTgwIDQ5NykiPjxlbGxpcHNlIGZpbGw9IiNGRkYiIGN4PSIyMC45IiBjeT0iNi4xIiByeD0iMTkuNSIgcnk9IjUuNSIvPjxwYXRoIGQ9Ik0yMC45IDEyLjJjLTkuNyAwLTIwLTIuMS0yMC02czEwLjMtNiAyMC02IDIwIDIuMSAyMCA2LTEwLjMgNi0yMCA2em0wLTExLjFjLTExLjIgMC0xOSAyLjctMTkgNXM3LjggNSAxOSA1IDE5LTIuNyAxOS01LTcuOC01LTE5LTV6IiBmaWxsPSIjODI4MjgyIi8+PC9nPjxwYXRoIGQ9Ik0yMjAuNCA0ODguN3YxMC40YzAgMy4xLTguNyA1LjUtMTkuNSA1LjVzLTE5LjUtMi41LTE5LjUtNS41di0xMC40IiBmaWxsPSIjRkZGIi8+PHBhdGggZD0iTTIwMC45IDUwNS4yYy05LjcgMC0yMC0yLjEtMjAtNnYtMTAuNGgxdjEwLjRjMCAyLjQgNy44IDUgMTkgNXMxOS0yLjcgMTktNXYtMTAuNGgxdjEwLjRjMCAzLjgtMTAuMyA2LTIwIDZ6IiBmaWxsPSIjODI4MjgyIi8+PGcgdHJhbnNmb3JtPSJ0cmFuc2xhdGUoMTgwIDQ4MikiPjxlbGxpcHNlIGZpbGw9IiNGRkYiIGN4PSIyMC45IiBjeT0iNi43IiByeD0iMTkuNSIgcnk9IjUuNSIvPjxwYXRoIGQ9Ik0yMC45IDEyLjhjLTkuNyAwLTIwLTIuMS0yMC02czEwLjMtNiAyMC02IDIwIDIuMSAyMCA2LTEwLjMgNi0yMCA2em0wLTExLjFjLTExLjIgMC0xOSAyLjctMTkgNXM3LjggNSAxOSA1IDE5LTIuNyAxOS01LTcuOC01LTE5LTV6IiBmaWxsPSIjODI4MjgyIi8+PC9nPjxwYXRoIGQ9Ik0yMjAuNCA0NzQuM3YxMC40YzAgMy4xLTguNyA1LjUtMTkuNSA1LjVzLTE5LjUtMi41LTE5LjUtNS41di0xMC40IiBmaWxsPSIjRkZGIi8+PHBhdGggZD0iTTIwMC45IDQ5MC44Yy05LjcgMC0yMC0yLjEtMjAtNnYtMTAuNGgxdjEwLjRjMCAyLjQgNy44IDUgMTkgNXMxOS0yLjcgMTktNXYtMTAuNGgxdjEwLjRjMCAzLjgtMTAuMyA2LTIwIDZ6IiBmaWxsPSIjODI4MjgyIi8+PGcgdHJhbnNmb3JtPSJ0cmFuc2xhdGUoMTgwIDQ2OCkiPjxlbGxpcHNlIGZpbGw9IiNGRkYiIGN4PSIyMC45IiBjeT0iNi4zIiByeD0iMTkuNSIgcnk9IjUuNSIvPjxwYXRoIGQ9Ik0yMC45IDEyLjRjLTkuNyAwLTIwLTIuMS0yMC02czEwLjMtNiAyMC02IDIwIDIuMSAyMCA2LTEwLjMgNi0yMCA2em0wLTExLjFjLTExLjIgMC0xOSAyLjctMTkgNXM3LjggNSAxOSA1IDE5LTIuNyAxOS01LTcuOC01LTE5LTV6IiBmaWxsPSIjODI4MjgyIi8+PC9nPjxwYXRoIGQ9Ik0yMTUuMiA0ODUuMmMtLjUgMC0uOS0uMi0xLjItLjUtLjgtLjgtLjYtMi4zLjUtMy40czIuNi0xLjMgMy40LS41Yy44LjguNiAyLjMtLjUgMy40LS43LjYtMS41IDEtMi4yIDF6bS4xLTMuMWMtLjcuNy0uOSAxLjYtLjUgMS45LjMuMyAxLjIuMiAxLjktLjVzLjktMS42LjUtMS45Yy0uMy0uNC0xLjItLjMtMS45LjV6TTIxNS4yIDQ5OS42Yy0uNSAwLS45LS4yLTEuMi0uNS0uOC0uOC0uNi0yLjMuNS0zLjRzMi42LTEuMyAzLjQtLjVjLjQuNC42IDEgLjQgMS43LS4xLjYtLjUgMS4yLTEgMS43LS42LjYtMS40IDEtMi4xIDF6bS4xLTMuMWMtLjcuNy0uOSAxLjYtLjUgMS45LjMuMyAxLjIuMiAxLjktLjUuNC0uNC42LS44LjctMS4yIDAtLjIuMS0uNS0uMS0uOC0uNC0uMy0xLjMtLjItMiAuNnpNMjE1LjIgNTE0Yy0uNSAwLS45LS4yLTEuMi0uNS0uOC0uOC0uNi0yLjMuNS0zLjRzMi42LTEuMyAzLjQtLjVjLjguOC42IDIuMy0uNSAzLjQtLjUuNS0xLjEuOC0xLjcgMWgtLjV6bS4xLTMuMWMtLjcuNy0uOSAxLjYtLjUgMS45LjIuMi42LjIuOC4xLjQtLjEuOC0uMyAxLjItLjcuNy0uNy45LTEuNi41LTEuOS0uNC0uMy0xLjMtLjItMiAuNnoiIGZpbGw9IiM4MjgyODIiLz48cGF0aCBmaWxsPSIjMDAwIiBkPSJNMzguNCA0NC4xaC0xLjZ2Ny4yaC0yLjdWMzQuNGgyLjd2Ny4xaDEuN2w2LjMtNy4xaDMuNWwtNy42IDguMiA4LjEgOC42aC0zLjd6TTYyLjUgMzguOWMwIDEuNy0xIDMuMi0yLjYgMy44IDEuNy41IDIuOSAyLjEgMyAzLjkgMCAzLTIuOSA0LjgtNi40IDQuOC0zLjUgMC02LjQtMS44LTYuNC00LjggMC0xLjggMS4yLTMuNCAzLTMuOS0xLjYtLjYtMi42LTIuMS0yLjYtMy44IDAtMyAyLjctNC44IDYtNC44czYgMS44IDYgNC44em0tOS42IDcuNmMwIDEuNyAxLjYgMi42IDMuNiAyLjZzMy42LS45IDMuNi0yLjZjMC0xLjctMS42LTIuNi0zLjYtMi42cy0zLjYuOS0zLjYgMi42em0uNC03LjRjMCAxLjcgMS41IDIuNiAzLjIgMi42IDEuNyAwIDMuMi0uOSAzLjItMi42IDAtMS42LTEuNS0yLjUtMy4yLTIuNS0xLjcgMC0zLjIuOC0zLjIgMi41ek03Ny40IDM4LjFjLTEuNC0uOS0zLTEuNC00LjctMS40LTIuMiAwLTMuOCAxLTMuOCAyLjUgMCAxLjQgMS4zIDEuOSAzLjUgMi4ybDEuMi4yYzIuNy40IDUuNCAxLjUgNS40IDQuNiAwIDMuNC0zLjEgNS4zLTYuNyA1LjMtMi40IDAtNC44LS44LTYuOC0yLjNMNjcgNDdjMS41IDEuMiAzLjQgMS44IDUuMyAxLjggMi4yIDAgMy45LS45IDMuOS0yLjUgMC0xLjMtMS4zLTEuOS0zLjgtMi4zaC0xLjNjLTIuNS0uMy01LTEuNS01LTQuNiAwLTMuNCAzLTUuMiA2LjYtNS4yIDIuMiAwIDQuMy42IDYuMSAxLjhsLTEuNCAyLjF6TTEwMy43IDUxLjJoLTIuNGwtOS40LTEyLjF2MTIuMWgtMi43VjM0LjRoMi40bDkuNCAxMi4xVjM0LjRoMi43ek0xMjQuOSA0Mi44YzAgNC45LTQgOC44LTguOSA4LjctNC44IDAtOC43LTMuOS04LjctOC43IDAtNC45IDQtOC44IDguOS04LjcgNC44LjEgOC43IDMuOSA4LjcgOC43em0tMTQuNyAwYy0uMSAzLjMgMi41IDYgNS44IDYuMSAzLjMuMSA2LTIuNSA2LjEtNS44di0uM2MuMS0zLjMtMi41LTYtNS44LTYuMS0zLjMtLjEtNiAyLjUtNi4xIDUuOHYuM3pNMTM1LjIgMzQuNGM1LjMgMCA4LjcgMy4zIDguNyA4LjQgMCA1LjEtMy41IDguNC04LjcgOC40aC02LjdWMzQuNGg2Ljd6bS0zLjkgMi42djExLjdoNGMzLjkgMCA1LjktMi40IDUuOS01LjhzLTEuOS01LjgtNS45LTUuOGgtNFYzN3pNMTU5LjggNTEuMmgtMTIuMlYzNC40aDEyLjFWMzdoLTkuNHY0LjVoOS4xVjQ0aC05LjF2NC42aDkuNXoiLz48Zz48cGF0aCBmaWxsPSIjRkZGIiBkPSJNMzY4LjYgMzAuOGg0MDMuN3YxMzguMUgzNjguNnoiLz48cGF0aCBkPSJNNzczLjcgMTcwLjRIMzY3LjFWMjkuM2g0MDYuN3YxNDEuMWgtLjF6bS00MDMuNi0zaDQwMC43VjMyLjNIMzcwLjF2MTM1LjF6IiBmaWxsPSIjRjJGMkYyIi8+PC9nPjxnPjxwYXRoIGZpbGw9IiNGRkYiIGQ9Ik0zNTMuNiA0NS44aDQwMy43djEzOC4xSDM1My42eiIvPjxwYXRoIGQ9Ik03NTguNyAxODUuNEgzNTIuMVY0NC4zaDQwNi43djE0MS4xaC0uMXptLTQwMy42LTNoNDAwLjdWNDcuM0gzNTUuMXYxMzUuMXoiIGZpbGw9IiNEQkRCREIiLz48L2c+PGc+PHBhdGggZmlsbD0iI0ZGRiIgZD0iTTMzOC42IDYwLjhoNDAzLjd2MTM4LjFIMzM4LjZ6Ii8+PHBhdGggZD0iTTc0My43IDIwMC40SDMzNy4xVjU5LjNoNDA2Ljd2MTQxLjFoLS4xem0tNDAzLjYtM2g0MDAuN1Y2Mi4zSDM0MC4xdjEzNS4xeiIgZmlsbD0iI0JCQiIvPjwvZz48cGF0aCBmaWxsPSIjMDAwIiBkPSJNNDk5IDE2OC40aC00LjN2MTEuM2gtMi4xdi0xMS4zaC00LjN2LTJINDk5ek01MDcuNyAxNzUuMXYuN0g1MDFjLjEgMS40IDEuMyAyLjQgMi43IDIuMyAxIDAgMS45LS40IDIuNi0xbDEgMS40Yy0xIC45LTIuNCAxLjMtMy43IDEuMy0yLjUuMS00LjYtMS44LTQuNy00LjN2LS41Yy0uMi0yLjQgMS42LTQuNiA0LjEtNC44aC41YzIuNS4xIDQuMiAyLjEgNC4yIDQuOXptLTYuNy0uN2g0LjdjMC0xLjMtMS4xLTIuMi0yLjMtMi4yLTEuMy0uMS0yLjQuOS0yLjQgMi4yek01MTguNiAxNzR2NS43aC0ydi01LjFjMC0xLjUtLjgtMi40LTIuMS0yLjQtMS4yLS4xLTIuMy45LTIuNCAyLjF2NS4zaC0ydi05LjFoMnYxLjFjLjYtLjkgMS43LTEuNCAyLjgtMS4zIDEuOS0uMSAzLjYgMS40IDMuNyAzLjN2LjR6TTUzMC40IDE3OS43aC0ydi0xLjFjLS43LjktMS43IDEuNC0yLjkgMS4zLTIuNi0uMS00LjctMi40LTQuNS01IC4xLTIuNSAyLjEtNC40IDQuNS00LjUgMS4xIDAgMi4yLjUgMi45IDEuM3YtMS4xaDJ2OS4xem0tNy40LTQuNmMuMSAxLjUgMS40IDIuNyAyLjkgMi42IDEuNS0uMSAyLjctMS40IDIuNi0yLjktLjEtMS41LTEuMy0yLjYtMi43LTIuNi0xLjUgMC0yLjcgMS4yLTIuOCAyLjd2LjJ6TTU0MiAxNzR2NS43aC0ydi01LjFjMC0xLjUtLjgtMi40LTIuMS0yLjQtMS4yLS4xLTIuMy45LTIuNCAyLjF2NS4zaC0ydi05LjFoMnYxLjFjLjYtLjkgMS43LTEuNCAyLjgtMS4zIDEuOS0uMSAzLjYgMS40IDMuNyAzLjN2LjR6TTU1MS4xIDE3Mi40aC0zLjV2NGMwIDEuMi42IDEuNyAxLjQgMS43LjcgMCAxLjMtLjMgMS44LS42bC44IDEuNmMtLjguNi0xLjguOS0yLjguOS0yLjEgMC0zLjMtMS4xLTMuMy0zLjV2LTRoLTEuOHYtMS44aDEuOHYtMi44aDJ2Mi44aDMuNWwuMSAxLjd6TTU2MS4xIDE3NC41djUuMkg1NTl2LTEzLjNoNS4yYzMuMSAwIDQuNyAxLjUgNC43IDRzLTEuNiA0LTQuNyA0bC0zLjEuMXptMC02LjF2NGgzYzEuNyAwIDIuNS0uNiAyLjUtMnMtLjgtMi0yLjUtMmgtM3pNNTgwLjEgMTc1LjFjLjEgMi43LTIuMSA0LjktNC44IDUtMi43LjEtNC45LTIuMS01LTQuOC0uMS0yLjcgMi4xLTQuOSA0LjgtNWguMWMyLjYtLjEgNC44IDEuOSA0LjkgNC42di4yem0tNy44IDBjMCAxLjYgMS4zIDIuOCAyLjkgMi44IDEuNiAwIDIuOC0xLjMgMi44LTIuOSAwLTEuNi0xLjMtMi44LTIuOS0yLjgtMS41IDAtMi44IDEuMi0yLjkgMi43LjEuMS4xLjIuMS4yek01ODkuMyAxNzEuN1YxNjZoMnYxMy43aC0ydi0xLjFjLS43LjktMS43IDEuNC0yLjkgMS4zLTIuNi0uMS00LjctMi40LTQuNS01IC4xLTIuNSAyLjEtNC40IDQuNS00LjUgMS4yLS4xIDIuMi40IDIuOSAxLjN6bS01LjQgMy40Yy4xIDEuNSAxLjQgMi43IDIuOSAyLjYgMS41LS4xIDIuNy0xLjQgMi42LTIuOS0uMS0xLjUtMS4zLTIuNi0yLjctMi42LTEuNSAwLTIuNyAxLjItMi44IDIuN3YuMnoiLz48cGF0aCBkPSJNNzI0LjIgNzguOHY2M0gzNTYuNnYtNjNoMzY3LjZtMy0zSDM1My42djY5aDM3My43di02OWgtLjF6IiBmaWxsPSIjQkUzMDQzIi8+PHBhdGggZD0iTTUxOS40IDEwMC42aDYuNlYxMjBoLTYuNnYtMTkuNHptLTguMS4ybC0xMy42IDguNGMtLjIuMi0uNS4yLS41IDBsLTEzLjYtOC40Yy0uNC0uMi0uNS0uNC0uOS0uNC0xLS4xLTEuOC43LTEuOCAxLjZ2MThoNi42di04LjRjMC0uMy4zLS42LjYtLjYuMSAwIC4yIDAgLjMuMWw3LjUgNC42Yy44LjYgMS44LjYgMi42IDBsOC4xLTQuOGMuNS0uNC45IDAgLjkuNnY4LjRoNi42di0xNy44Yy4xLTEtLjctMS44LTEuNi0xLjhoLS4yYy0uMy4zLS42LjMtMSAuNXptNDguMS0uMmgtNi44djljMCAuMy0uMy42LS42LjYtLjEgMC0uMiAwLS4zLS4xbC0xNy40LTkuMmMtLjMtLjEtLjYtLjItLjktLjItMS0uMS0xLjguNy0xLjggMS42VjExOS45aDYuOHYtOC44YzAtLjMuMy0uNi42LS42LjEgMCAuMiAwIC4zLjFsMTcuNiA5LjRjLjMuMS42LjIuOS4yIDEgLjEgMS44LS43IDEuOC0xLjZ2LS4ybC0uMi0xNy44em01LjUgMTkuNHYtMTkuNGgzLjFWMTIwaC0zLjF6bTIwLjkuNmMtOC4zIDAtMTQuMS0zLjktMTQuMS0xMC4zczUuOS0xMC4zIDE0LjEtMTAuM2M4LjQgMCAxNC4xIDMuOSAxNC4xIDEwLjNzLTUuNyAxMC4zLTE0LjEgMTAuM3ptMC0xNy44Yy02LjEgMC0xMC44IDIuOC0xMC44IDcuNSAwIDUgNC44IDcuNSAxMC44IDcuNSA2IDAgMTAuOC0yLjggMTAuOC03LjUgMC00LjktNC42LTcuNS0xMC44LTcuNXoiIGZpbGw9IiNDNjJENDgiLz48L2c+PC9zdmc+;imageBackground=#ffffff;" parent="1" vertex="1">
                    <mxGeometry x="270" y="580" width="357.01" height="230" as="geometry"/>
                </mxCell>
                <mxCell id="30" value="" style="group" parent="1" vertex="1" connectable="0">
                    <mxGeometry x="120" y="190" width="130" height="170" as="geometry"/>
                </mxCell>
                <mxCell id="6" value="" style="rounded=0;whiteSpace=wrap;html=1;" parent="30" vertex="1">
                    <mxGeometry width="130" height="170" as="geometry"/>
                </mxCell>
                <mxCell id="7" value="API" style="outlineConnect=0;dashed=0;verticalLabelPosition=bottom;verticalAlign=top;align=center;html=1;shape=mxgraph.aws3.android;fillColor=#8CC64F;gradientColor=none;rounded=0;" parent="30" vertex="1">
                    <mxGeometry x="28.25" y="13" width="73.5" height="84" as="geometry"/>
                </mxCell>
                <mxCell id="8" value="" style="aspect=fixed;html=1;points=[];align=center;image;fontSize=12;image=img/lib/mscae/Docker.svg;rounded=0;" parent="30" vertex="1">
                    <mxGeometry x="46.095" y="130" width="37.81" height="31" as="geometry"/>
                </mxCell>
                <mxCell id="31" value="" style="group" parent="1" vertex="1" connectable="0">
                    <mxGeometry x="-190" y="190" width="130" height="170" as="geometry"/>
                </mxCell>
                <mxCell id="9" value="" style="rounded=0;whiteSpace=wrap;html=1;" parent="31" vertex="1">
                    <mxGeometry width="130" height="170" as="geometry"/>
                </mxCell>
                <mxCell id="11" value="" style="aspect=fixed;html=1;points=[];align=center;image;fontSize=12;image=img/lib/mscae/Docker.svg;rounded=0;" parent="31" vertex="1">
                    <mxGeometry x="46.1" y="130" width="37.81" height="31" as="geometry"/>
                </mxCell>
                <mxCell id="12" value="Dashboard" style="shape=image;verticalLabelPosition=bottom;labelBackgroundColor=none;verticalAlign=top;aspect=fixed;imageAspect=0;image=data:image/svg+xml,PHN2ZyB4bWxucz0iaHR0cDovL3d3dy53My5vcmcvMjAwMC9zdmciIHdpZHRoPSIyNTAwIiBoZWlnaHQ9IjIyNDYiIHZpZXdCb3g9IjAgMCAyNTYgMjMwIiBwcmVzZXJ2ZUFzcGVjdFJhdGlvPSJ4TWluWU1pbiBtZWV0Ij48cGF0aCBkPSJNLjc1NCAxMTQuNzVjMCAxOS4yMTUgMTguNzYzIDM3LjE1MiA0OC4zNDMgNDcuMjYzLTUuOTA3IDI5LjczNy0xLjA1OCA1My43MDYgMTUuMTM2IDYzLjA0NSAxNi42NDUgOS42IDQxLjQ0MyAyLjk1NSA2NC45OC0xNy42MiAyMi45NDMgMTkuNzQ0IDQ2LjEzIDI3LjUxNCA2Mi4zMSAxOC4xNDggMTYuNjMtOS42MjcgMjEuNjg3LTM1LjIyMSAxNS42MTctNjUuODg3IDMwLjgxLTEwLjE4NiA0OC4wNDQtMjUuNDgxIDQ4LjA0NC00NC45NDkgMC0xOC43NjktMTguNzk3LTM1LjAwNi00Ny45NzktNDUuMDUyIDYuNTM1LTMxLjkzMy45OTgtNTUuMzItMTUuODY3LTY1LjA0NS0xNi4yNTktOS4zNzYtMzkuNzE2LTEuMjA0LTYyLjk5NiAxOS4wNTZDMTA0LjEyMiAyLjIwNSA4MC44OTctNC4zNiA2NC4wNSA1LjM5MiA0Ny44MDYgMTQuNzk1IDQzLjE3MSAzOS4yIDQ5LjA5NyA2OS40ODcgMjAuNTE1IDc5LjQ1Mi43NTQgOTYuMDU3Ljc1NCAxMTQuNzV6IiBmaWxsPSIjRkZGIi8+PHBhdGggZD0iTTIwMS4wMjUgNzkuNjc0YTE1MS4zNjQgMTUxLjM2NCAwIDAgMC03LjI3NC0yLjI5MiAxMzcuNSAxMzcuNSAwIDAgMCAxLjEyNC00Ljk2MWM1LjUwNi0yNi43MjggMS45MDYtNDguMjYtMTAuMzg4LTU1LjM0OC0xMS43ODctNi43OTgtMzEuMDY1LjI5LTUwLjUzNSAxNy4yMzNhMTUxLjEzNiAxNTEuMTM2IDAgMCAwLTUuNjI2IDUuMTYzIDEzNy41NzMgMTM3LjU3MyAwIDAgMC0zLjc0NC0zLjQ1OGMtMjAuNDA1LTE4LjExOC00MC44NTgtMjUuNzUyLTUzLjEzOS0xOC42NDMtMTEuNzc2IDYuODE3LTE1LjI2NCAyNy4wNi0xMC4zMDcgNTIuMzlhMTUwLjkxIDE1MC45MSAwIDAgMCAxLjY3IDcuNDg0Yy0yLjg5NC44MjItNS42ODkgMS42OTgtOC4zNjMgMi42My0yMy45MjIgOC4zNC0zOS4yIDIxLjQxMi0zOS4yIDM0Ljk3IDAgMTQuMDA0IDE2LjQgMjguMDUgNDEuMzE4IDM2LjU2NmExMjguNDQgMTI4LjQ0IDAgMCAwIDYuMTEgMS45MSAxNDcuODEzIDE0Ny44MTMgMCAwIDAtMS43NzUgOC4wNjdjLTQuNzI2IDI0Ljg5LTEuMDM1IDQ0LjY1MyAxMC43MSA1MS40MjggMTIuMTMxIDYuOTk1IDMyLjQ5MS0uMTk1IDUyLjMxNy0xNy41MjUgMS41NjctMS4zNyAzLjE0LTIuODIzIDQuNzE1LTQuMzQ2YTE0OC4zNCAxNDguMzQgMCAwIDAgNi4xMDggNS41NzNjMTkuMjA0IDE2LjUyNSAzOC4xNyAyMy4xOTggNDkuOTA1IDE2LjQwNSAxMi4xMi03LjAxNiAxNi4wNTgtMjguMjQ3IDEwLjk0NC01NC4wNzgtLjM5LTEuOTczLS44NDUtMy45ODgtMS4zNTUtNi4wNCAxLjQzLS40MjIgMi44MzMtLjg1OCA0LjIwMi0xLjMxMiAyNS45MDQtOC41ODIgNDIuNzU3LTIyLjQ1NyA0Mi43NTctMzYuNjQ4IDAtMTMuNjA3LTE1Ljc3LTI2Ljc2Ny00MC4xNzQtMzUuMTY4eiIgZmlsbD0iIzUzQzFERSIvPjxwYXRoIGQ9Ik0xOTUuNDA2IDE0Mi4zMjhjLTEuMjM1LjQwOS0yLjUwMy44MDQtMy43OTUgMS4xODctMi44Ni05LjA1My02LjcyLTE4LjY4LTExLjQ0Mi0yOC42MjUgNC41MDctOS43MSA4LjIxNy0xOS4yMTMgMTAuOTk3LTI4LjIwOCAyLjMxMS42NyA0LjU1NSAxLjM3NSA2LjcxNyAyLjEyIDIwLjkxIDcuMTk3IDMzLjY2NCAxNy44NCAzMy42NjQgMjYuMDQgMCA4LjczNS0xMy43NzUgMjAuMDc1LTM2LjE0IDI3LjQ4NnptLTkuMjggMTguMzg5YzIuMjYxIDExLjQyMiAyLjU4NCAyMS43NDkgMS4wODYgMjkuODIyLTEuMzQ2IDcuMjU0LTQuMDUyIDEyLjA5LTcuMzk4IDE0LjAyNy03LjEyMSA0LjEyMi0yMi4zNS0xLjIzNi0zOC43NzItMTUuMzY4LTEuODgzLTEuNjItMy43OC0zLjM1LTUuNjgyLTUuMTggNi4zNjctNi45NjQgMTIuNzMtMTUuMDYgMTguOTQtMjQuMDUgMTAuOTI0LS45NjkgMjEuMjQ0LTIuNTU0IDMwLjYwMy00LjcxNy40NiAxLjg2Ljg3IDMuNjgzIDEuMjIzIDUuNDY2em0tOTMuODUgNDMuMTM3Yy02Ljk1NyAyLjQ1Ny0xMi40OTggMi41MjctMTUuODQ3LjU5Ni03LjEyOC00LjExLTEwLjA5LTE5Ljk4LTYuMDQ5LTQxLjI2NWExMzguNTA3IDEzOC41MDcgMCAwIDEgMS42NS03LjUwMmM5LjI1NSAyLjA0NyAxOS41IDMuNTIgMzAuNDUgNC40MDggNi4yNTEgOC43OTcgMTIuNzk4IDE2Ljg4MyAxOS4zOTYgMjMuOTY0YTExOC44NjMgMTE4Ljg2MyAwIDAgMS00LjMwNSAzLjk2NGMtOC43NjcgNy42NjQtMTcuNTUyIDEzLjEtMjUuMjk0IDE1LjgzNXptLTMyLjU5My02MS41OGMtMTEuMDE4LTMuNzY2LTIwLjExNy04LjY2LTI2LjM1NC0xNC01LjYwNC00LjgtOC40MzQtOS41NjUtOC40MzQtMTMuNDMyIDAtOC4yMjcgMTIuMjY3LTE4LjcyMiAzMi43MjYtMjUuODU1YTEzOS4yNzYgMTM5LjI3NiAwIDAgMSA3Ljc3Ny0yLjQ0N2MyLjgyOCA5LjE5NyA2LjUzNyAxOC44MTMgMTEuMDEzIDI4LjUzNy00LjUzNCA5Ljg2OS04LjI5NiAxOS42MzgtMTEuMTUgMjguOTQzYTExOC45MDggMTE4LjkwOCAwIDAgMS01LjU3OC0xLjc0NnptMTAuOTI2LTc0LjM3Yy00LjI0Ny0yMS43MDMtMS40MjctMzguMDc0IDUuNjctNDIuMTgyIDcuNTYtNC4zNzYgMjQuMjc1IDEuODY0IDQxLjg5MyAxNy41MDcgMS4xMjYgMSAyLjI1NyAyLjA0NyAzLjM5IDMuMTMtNi41NjQgNy4wNDktMTMuMDUxIDE1LjA3NC0xOS4yNDggMjMuODItMTAuNjI3Ljk4NS0yMC44IDIuNTY3LTMwLjE1MiA0LjY4NmExNDEuNTI1IDE0MS41MjUgMCAwIDEtMS41NTMtNi45NjJ6bTk3LjQ2NyAyNC4wNjdhMzA2Ljk4MiAzMDYuOTgyIDAgMCAwLTYuODcxLTExLjNjNy4yMS45MSAxNC4xMTcgMi4xMiAyMC42MDMgMy42MDEtMS45NDcgNi4yNDEtNC4zNzQgMTIuNzY3LTcuMjMyIDE5LjQ1N2EzMzYuNDIgMzM2LjQyIDAgMCAwLTYuNS0xMS43NTh6bS0zOS43NDctMzguNzE0YzQuNDUyIDQuODIzIDguOTExIDEwLjIwOSAxMy4yOTcgMTYuMDUyYTI4NC4yNDUgMjg0LjI0NSAwIDAgMC0yNi43MDYtLjAwNmM0LjM5LTUuNzg5IDguODg3LTExLjE2NyAxMy40MDktMTYuMDQ2em0tNDAuMDAyIDM4Ljc4YTI4NS4yNCAyODUuMjQgMCAwIDAtNi4zNzggMTEuNjg1Yy0yLjgxMS02LjY2Ny01LjIxNi0xMy4yMjItNy4xOC0xOS41NTIgNi40NDctMS40NDMgMTMuMzIyLTIuNjIyIDIwLjQ4NS0zLjUxN2EyODMuNzkgMjgzLjc5IDAgMCAwLTYuOTI3IDExLjM4NHptNy4xMzMgNTcuNjgzYy03LjQtLjgyNi0xNC4zNzktMS45NDUtMjAuODI0LTMuMzQ4IDEuOTk1LTYuNDQyIDQuNDUzLTEzLjEzOCA3LjMyNC0xOS45NDhhMjgzLjQ5NCAyODMuNDk0IDAgMCAwIDYuNDA2IDExLjY5MiAyODUuMjcgMjg1LjI3IDAgMCAwIDcuMDk0IDExLjYwNHptMzMuMTM2IDI3LjM4OWMtNC41NzUtNC45MzctOS4xMzgtMTAuMzk3LTEzLjU5NS0xNi4yNyA0LjMyNi4xNyA4LjczNy4yNTYgMTMuMjIuMjU2IDQuNjA2IDAgOS4xNTktLjEwMyAxMy42NC0uMzAzLTQuNCA1Ljk4LTguODQzIDExLjQ0OC0xMy4yNjUgMTYuMzE3em00Ni4wNzItNTEuMDMyYzMuMDIgNi44ODQgNS41NjYgMTMuNTQ0IDcuNTg4IDE5Ljg3Ny02LjU1MiAxLjQ5NS0xMy42MjUgMi42OTktMjEuMDc4IDMuNTkzYTMzNy41MzcgMzM3LjUzNyAwIDAgMCA2LjkzNy0xMS40OTggMzA2LjYzMiAzMDYuNjMyIDAgMCAwIDYuNTUzLTExLjk3MnptLTE0LjkxNSA3LjE1YTMxNi40NzggMzE2LjQ3OCAwIDAgMS0xMC44NCAxNy40OWMtNi43MDQuNDc5LTEzLjYzMi43MjYtMjAuNjkyLjcyNi03LjAzMSAwLTEzLjg3MS0uMjE5LTIwLjQ1OC0uNjQ2QTI3My43OTggMjczLjc5OCAwIDAgMSA5Ni43MiAxMzMuMjhhMjcxLjMzNCAyNzEuMzM0IDAgMCAxLTkuNjQtMTguMjA2IDI3My44NjQgMjczLjg2NCAwIDAgMSA5LjYxMS0xOC4yMTZ2LjAwMmEyNzEuMjUyIDI3MS4yNTIgMCAwIDEgMTAuOTU2LTE3LjQ0MmM2LjcyLS41MDggMTMuNjEtLjc3NCAyMC41NzUtLjc3NCA2Ljk5NiAwIDEzLjg5NS4yNjggMjAuNjEzLjc4YTI5MC43MDQgMjkwLjcwNCAwIDAgMSAxMC44ODcgMTcuMzgzIDMxNi40MTggMzE2LjQxOCAwIDAgMSA5Ljc0MSAxOC4xMyAyOTAuODA2IDI5MC44MDYgMCAwIDEtOS43MDkgMTguMjl6bTE5LjkxMy0xMDcuNzkyYzcuNTY2IDQuMzY0IDEwLjUwOSAyMS45NjEgNS43NTUgNDUuMDM4YTEyNy41MjUgMTI3LjUyNSAwIDAgMS0xLjAxNiA0LjQ5MmMtOS4zNzQtMi4xNjMtMTkuNTU0LTMuNzczLTMwLjIxMi00Ljc3My02LjIwOS04Ljg0MS0xMi42NDItMTYuODgtMTkuMS0yMy44MzhhMTQxLjkyIDE0MS45MiAwIDAgMSA1LjE5Ni00Ljc2NmMxNi42ODItMTQuNTE4IDMyLjI3My0yMC4yNSAzOS4zNzctMTYuMTUzeiIgZmlsbD0iI0ZGRiIvPjxwYXRoIGQ9Ik0xMjguMjIxIDk0LjY2NWMxMS4xNDQgMCAyMC4xNzcgOS4wMzQgMjAuMTc3IDIwLjE3NyAwIDExLjE0NC05LjAzMyAyMC4xNzgtMjAuMTc3IDIwLjE3OC0xMS4xNDMgMC0yMC4xNzctOS4wMzQtMjAuMTc3LTIwLjE3OCAwLTExLjE0MyA5LjAzNC0yMC4xNzcgMjAuMTc3LTIwLjE3NyIgZmlsbD0iIzUzQzFERSIvPjwvc3ZnPg==;" parent="31" vertex="1">
                    <mxGeometry x="22.129999999999995" y="16.5" width="85.74" height="77" as="geometry"/>
                </mxCell>
                <mxCell id="33" value="&lt;font color=&quot;#ff3399&quot;&gt;GraphQL&lt;/font&gt;" style="text;html=1;strokeColor=none;fillColor=none;align=center;verticalAlign=middle;whiteSpace=wrap;rounded=0;labelBackgroundColor=none;fontStyle=1" parent="1" vertex="1">
                    <mxGeometry y="240" width="60" height="20" as="geometry"/>
                </mxCell>
                <mxCell id="36" value="" style="group" vertex="1" connectable="0" parent="1">
                    <mxGeometry x="610" y="295" width="130" height="170" as="geometry"/>
                </mxCell>
                <mxCell id="19" value="" style="rounded=0;whiteSpace=wrap;html=1;" parent="36" vertex="1">
                    <mxGeometry width="130" height="170" as="geometry"/>
                </mxCell>
                <mxCell id="23" value="Minio Bucket" style="shape=image;verticalLabelPosition=bottom;labelBackgroundColor=none;verticalAlign=top;aspect=fixed;imageAspect=0;image=data:image/jpeg,/9j/4RIfRXhpZgAATU0AKgAAAAgABwESAAMAAAABAAEAAAEaAAUAAAABAAAAYgEbAAUAAAABAAAAagEoAAMAAAABAAIAAAExAAIAAAAeAAAAcgEyAAIAAAAUAAAAkIdpAAQAAAABAAAApAAAANAACvyAAAAnEAAK/IAAACcQQWRvYmUgUGhvdG9zaG9wIENTNiAoV2luZG93cykAMjAyMDowNTozMCAwNzoxNjo0MQAAA6ABAAMAAAAB//8AAKACAAQAAAABAAABkKADAAQAAAABAAABkAAAAAAAAAAGAQMAAwAAAAEABgAAARoABQAAAAEAAAEeARsABQAAAAEAAAEmASgAAwAAAAEAAgAAAgEABAAAAAEAAAEuAgIABAAAAAEAABDpAAAAAAAAAEgAAAABAAAASAAAAAH/2P/tAAxBZG9iZV9DTQAC/+4ADkFkb2JlAGSAAAAAAf/bAIQADAgICAkIDAkJDBELCgsRFQ8MDA8VGBMTFRMTGBEMDAwMDAwRDAwMDAwMDAwMDAwMDAwMDAwMDAwMDAwMDAwMDAENCwsNDg0QDg4QFA4ODhQUDg4ODhQRDAwMDAwREQwMDAwMDBEMDAwMDAwMDAwMDAwMDAwMDAwMDAwMDAwMDAwM/8AAEQgAoACgAwEiAAIRAQMRAf/dAAQACv/EAT8AAAEFAQEBAQEBAAAAAAAAAAMAAQIEBQYHCAkKCwEAAQUBAQEBAQEAAAAAAAAAAQACAwQFBgcICQoLEAABBAEDAgQCBQcGCAUDDDMBAAIRAwQhEjEFQVFhEyJxgTIGFJGhsUIjJBVSwWIzNHKC0UMHJZJT8OHxY3M1FqKygyZEk1RkRcKjdDYX0lXiZfKzhMPTdePzRieUpIW0lcTU5PSltcXV5fVWZnaGlqa2xtbm9jdHV2d3h5ent8fX5/cRAAICAQIEBAMEBQYHBwYFNQEAAhEDITESBEFRYXEiEwUygZEUobFCI8FS0fAzJGLhcoKSQ1MVY3M08SUGFqKygwcmNcLSRJNUoxdkRVU2dGXi8rOEw9N14/NGlKSFtJXE1OT0pbXF1eX1VmZ2hpamtsbW5vYnN0dXZ3eHl6e3x//aAAwDAQACEQMRAD8A9VSSSSUpJJJJSkkkklKSSSSUpJJcD1j/ABg5jsh9XSG1sx2u2syLGl77CPz6q9zWsrd+Z/OPf/waBkBuz8vy2XPIjGPl+aR+WL3yS4v6u/XyzJya8Pqza2+sQyrKqBa3efa1l9bnP2+o72+qx30/8Gu0SBB2Rn5fJglw5BXUH9GSkkkkWFSSSSSlJJJJKUkkkkp//9D1VJJJJSkkkklKSSSSUpJJJJSHLpffiXUMdsfbW5jX+BcC0O/srzP6o9QxujdZnqVfpw04z3u5osBAeXfus9vp2v8A/RW9epLl/rd9VB1NruoYDQ3qDB72aAXtA0a7/h2N/mbf+s2/4P0WyB0I6N7kc+OIyYMumPOK4x+hJq/XH6ojKa/qnS6915G7Kxmf4Ud7qQP+1P8AI/7Uf8f/ADmj9S+v/tbpnpXv35mJDLXGZew/zOR/1zbst/4auxc/9UfrYenub0rqji3EnZRc/Q0OB2/Z7930aN3t939F/m7P0H9H2esdHu6X1Rv1l6PWXObP7Rw2f4Wp38/bS3T9Pp6rmf4W2v1f5z1PXaD+kP8ACDNmhIR+65zZHq5XN0l/q5f3v+Y9Qkh0X05NFeRQ4WU3ND63jgtcNzXf5qIpHLIrQqSSSSUpJJJJSkkkklP/0fVUkkklKSSSSUpJJJJSkkkklKUbLGVsdZY4MYwFznuMAAauc5xVTq3WMHpGKcrMeQ3iutur3u/0dTNNzv8AV68y639YuodbtP2l3p4zTNeIwyxv7ptOnr2/y3/9arYmykB5tvlORycwb+TGN5n/ALj956X6y9BxOt4h670OL7DuFrGAxeKy6p76gR772bNrf+5LP+tJfUDr77QejZLy/Yz1MJ7jJ9Nv08fcfc70tzXU/wDBf8Stf6jf+JfD+N3/AJ+uXH4YGL9e2sxoDG59jGhvAa8WeowR+56j03YiXfduQ/WY+Z5WfqHL8Rwzl80fb4q1fR8XDx8Nj68duyt73WbJO0Oed1npt/Ma5/6TY389HSSUjkkkmybJUkkkkhSSSSSlJJJJKf/S9VSSSSUpJJJJSkkkklKVXqXUcXpmFbm5TiKqhJA1c4nRldbfzrLHe1itLzf659Wu6t1hvTMSbKsWwU1Vgx6mS79G86/6Ld9nb+5+sJsjQbPJ8t7+UROkI+rJL+q1WM6v9cetE/QgS5x91eNSTo0fR9S1/wD7M2/6Oiv9FrfXTpWH0no3TsLCbtrGQ5z3HVz3+k+brnfn2O/8wr/RraxHdE+p3SmUZd7RkWD1LQ33W3WEe411N9/pN2+lV/g62fzi5D6zfWezrr6q20DHxaHF9Ycd1jiQWbrNvsZ7HfzbPU/41MIAGvzF0sU8ubPD24cHKYSeH9GMvTw8X9d3Oj/WPC6L9T8Xc4WZrvX9DGB9zibrtrrP9HT+/Z/23+kWf9RenZGd1p/VbyXsxS977SPp5NoO7/MZbZa//R+pShfVz6mXdYpbnX3DHwbC4D09bn7Cancj06fc13v/AEr/APg16Hh4WLg41eJiVimioQxjfvOp9znOd9N7vpoxBNE7Bi5rNhwDPDEePNnlL3ZdMYkfVBOkkkpHJUkkkkpSSSSSlJJJJKf/0/VUkkklKSSSSUpJJJJTm/WLqZ6V0bJzGR6rG7aAY/nHn0qdD9La9+9y8qwsrJwr2W4jy3KINdTw3fZL/Y91LYd+ne0uZv2/4Rem/WXoWR1yvFxW3jHxq7Tbe6NzyQ0sqZW36H+Es9z/APtuxH6R9Xek9Hb+qU/piIfkWe613/XD9Fv/AAdeytMlEk9qdLleaw8vgII9zJkJ4odOEemMZyeL6V9Rur9Rs+1dSe7DZYdz3WH1Ml/9beXen/19z7P+AR/rl0PpvR+m4VeDUGufefVud7rHxW/6drvdt/4P+a/kL0Bcd/jJ/oWB/wAe7/z29IxAiV3L87mz81jEjwws+iOkfl/5zp/Ub/xL4fxu/wDP1y3lg/Ub/wAS+H8bv/P1y3k6Ow8mjzX+6M3+0n/01JJJIsKkkkklKSSSSUpJJJJT/9T1VJJJJSkkkklKSSSSUpJJJJSlx3+Mn+hYH/Hu/wDPb12K47/GT/QsD/j3f+e3ps/lLa+H/wC6sfmf+jJ0/qN/4l8P43f+frlvLB+o3/iXw/jd/wCfrlvIx2Hkx81/ujN/tJ/9NSSSSLCpJJJJSkkkklKSSSSU/wD/1fVUkkklKSSSSUpJJJJSkkkklKXPfXXouX1Xp1ZxPfdiPNop7vG1zHMYf9J7vYuhSQIsUyYsssWSOSO8Terg/UeR9WMQEEEOuBB0I/T3cgreUWVsrBDGhoJLiGiJLjuc7T85zlJICgAjLP3Mk51XHKU6/vHiUkkkisUkkkkpSSSSSlJJJJKf/9b1VZ9nX+jVdQ/ZluXWzM0/RuJGrtWs9Qj0vUdP81v9RaC8o+tYB+snUQRINjZH/WqU2UqDb5Hlo8xklCRMeGHEOHvcYvq6S8s6N9a+r9I21sf9qxG6fZriTA/4C73WU/8AgtP/AAS7fpf1y6H1CoufcMO1jd1lOQQwgD6TmWT6VrP+LekJg+CeY+H58OoHuQ/eh/3Uf0XcVfO6hhdPoORm3MoqGm55iT+6xv0nv/kMXJdZ/wAYTBup6LX6h4+13Ahn/WaPbZZ/Wt9L/rq47Ly8vOvOTm3PyLz+e8zA521tEMqZ/IqagZjpqzcv8LyTqWX9XH93/KfZ+g+vYHUMPqOM3LwrRdQ+QHiRqDDmua7a9jv66zb/AK4/VzHvtx7svbbS91djfTtMOYdj2y2rb9IKp/i+/wDE/wD+hFv/AFS4TrP/AC11H/w3f/58ekZEAHurByOLJzGbFIy4cR9NEcW/6XpfW8fJoycavKoduouYLK3wRLHDe10P2ub7f3lU6f8AWDo3U7HVYOXXda2ZrBLXED85jLA11lf/AAlf6NB6N/4lcL/wjV/56avJqgDVWe7WtLT3Bjlp/NSlIivFbyvIwzHMDKUfblwwO/73zf4r7ekvMulfXbrWBtZe4dQxx+bcYsA/kZI3Od/19ty7PpH1t6N1Utqrt+z5LtBjXwx5P/BmTXd/1p6IkCxZ+Qz4bJjxwH6cNf8AGH6LPL+tn1fwsmzEycr076TtsZ6dhgkB/wBJlbm/Rcr+DnYvUMVmZhv9XHtnY+C2dpNbvbYGv+m1eYfWnT6ydR/41v8A56qXdfUj/wAS+F/13/z7ahGRJIZea5PHi5bHliZGU+C+Ijh9cOP91vdN650vqr7mYF3rOxiBcNr27S4va3+dYzd/NWfRV7jUrif8XP8AS+s/16/+ry1Dq2TnfWf6xP6Bj2uo6fjFwyS3870y0X2WN/wm257aKaf5v/D2I8WgPUrZ8kPvGTHGXDjxRE55J+rhjwxkfl4eL5vS9Dl/W/6tYbiy7PrLhyKt1sHwPoNs2qsz6/8A1Ve7b9sI8zVb/wCk1c6f9VugdPra2nDre9oH6W5ossJHffZu2/8AW9jFds6Z021uyzEpe3911bSPuLUfV4MZPJjThzS/rcUIf8zgn/0mOB1bpnUWl2Dk15ECXNY4Fw/r1/TZ/aVtch9YfqXiMof1PogOFm4wNrWVEta4NG57ao/mLtv836X6L8y2taX1P67b1rpXqZBBysd3pXOAgP0a+u7YPo+ox/v/AOE9RAE3RRkwQ9r3sMjKAPDOMxWTGT8t/vRf/9f1VeUfWv8A8UvUf+MZ/wCeqV6uub6l9Rum9Rz7863JyK7Mhwc5rDXtBDW1+3fS930WfvJswSNG78O5jHgySlkJAMOHQXrxRczo31S6Z1j6tYmQ6cbNcHzk18uIfY1vrVu9lzf/AAT/AIRYfUfqh17CuFQxjmVuMV3Y43A+HqMd76P7f6L/AIZej9J6bT0rp9OBS99ldO4NfZG47nOs92xrG/n/ALquIcAIHQrx8Tywy5DE+5jlKRjGfSJPp4f3Xhej/wCL22zbd1m3028/ZaT7vhdkf98o/wDYhYn1swsXB67bi4dTaaGVVFtbeJIO539Z35y9VXP9X+pnT+rZ786/Ivrse1rS2s17YYIH85VY5Iw00X8t8Rl7xnnmeDhIEYj0A3H9FF/i+/8AE/8A9ft/6pcJ1n/lrqP/AIbv/wDPj16j0Xo+P0bC+xY9j7a97rN1u0ulxk/zba2rGy/8X/TcrLvyn5WS1+RY+1zWmvaC9xe4N3Uudt9yRiaATy/OYYcznySJEch9On9Z0ui/+JbC/wDCNX/npq8mq/mqvMMB/wCivZsXBrxenVdPY5xrppbQ15jcWtb6e46bd39lc03/ABbdJaGgZeXDYjWrt/1hKUSaVyXOYcUsxmSPckJR0vT1Nzq31G6NnTZjN/Z+Qfz6ABWT/wAJjfzX/bfo2f8ACLjOr/VLrPTQ511H2rGGpvoBeAPGyn+dr/zX1/8ACr1VJEwB8GDB8Rz4qBPuR/dnv/gzfEw4P927fP50zP8AaXp/1I/8S+F/13/z7ap9W+qPRequNtlRx8l2pyKIY8n/AIQQ6q7/AK7WtDpnTsfpeBTgY2400AhpeZcSSXuc4+36T3IRiQWXneexcxgjGIMZiYkYnwjL9L/CeS/xc/0vrP8AXr/6vLQLbHfVb65XZmW1xwOomwi4NJhtrm3Wbdv0n42Q39JX/OfZv0i6foX1bxOiWZVmPbbacwtc8W7YG02O9npsr/0zlo5eHi5tDsfLqZfS/wClXYA4fHX85IRNDoQsyc5D7xllRnhzRjCY+WVcEY8Uf60VYuXi5lLb8W1l9Lvo2VkOH3tRly1v+L3pItN2DkZWBYf9DZp/nPDrv/BkzvqNdaNuR1zqFtfdhsPH9svb/wBFG5dvxYTi5Y6jOQO0scuP/melt/Wn6zYPSsK6ltrX59jC2ukEEtLht9W//R1s3bvf/O/4NB+ofSL+m9IdZktNduW8WNrdo5tbWtrq9Rv5tj9vqf21Z6V9Teg9LsbdVSbr2Hc2687yD+8xntpY/wD4RlW9biQBuynJmxRwnBh4iJESyZJ+kz4fljGH6MX/0PVUkkklKSSSSUpJJJJSkkkklKSSSSUpJJJJSkkkklKSSSSUpJJJJSkkkklP/9n/7RosUGhvdG9zaG9wIDMuMAA4QklNBCUAAAAAABAAAAAAAAAAAAAAAAAAAAAAOEJJTQQ6AAAAAADlAAAAEAAAAAEAAAAAAAtwcmludE91dHB1dAAAAAUAAAAAUHN0U2Jvb2wBAAAAAEludGVlbnVtAAAAAEludGUAAAAAQ2xybQAAAA9wcmludFNpeHRlZW5CaXRib29sAAAAAAtwcmludGVyTmFtZVRFWFQAAAABAAAAAAAPcHJpbnRQcm9vZlNldHVwT2JqYwAAAAwAUAByAG8AbwBmACAAUwBlAHQAdQBwAAAAAAAKcHJvb2ZTZXR1cAAAAAEAAAAAQmx0bmVudW0AAAAMYnVpbHRpblByb29mAAAACXByb29mQ01ZSwA4QklNBDsAAAAAAi0AAAAQAAAAAQAAAAAAEnByaW50T3V0cHV0T3B0aW9ucwAAABcAAAAAQ3B0bmJvb2wAAAAAAENsYnJib29sAAAAAABSZ3NNYm9vbAAAAAAAQ3JuQ2Jvb2wAAAAAAENudENib29sAAAAAABMYmxzYm9vbAAAAAAATmd0dmJvb2wAAAAAAEVtbERib29sAAAAAABJbnRyYm9vbAAAAAAAQmNrZ09iamMAAAABAAAAAAAAUkdCQwAAAAMAAAAAUmQgIGRvdWJAb+AAAAAAAAAAAABHcm4gZG91YkBv4AAAAAAAAAAAAEJsICBkb3ViQG/gAAAAAAAAAAAAQnJkVFVudEYjUmx0AAAAAAAAAAAAAAAAQmxkIFVudEYjUmx0AAAAAAAAAAAAAAAAUnNsdFVudEYjUHhsQFIAAAAAAAAAAAAKdmVjdG9yRGF0YWJvb2wBAAAAAFBnUHNlbnVtAAAAAFBnUHMAAAAAUGdQQwAAAABMZWZ0VW50RiNSbHQAAAAAAAAAAAAAAABUb3AgVW50RiNSbHQAAAAAAAAAAAAAAABTY2wgVW50RiNQcmNAWQAAAAAAAAAAABBjcm9wV2hlblByaW50aW5nYm9vbAAAAAAOY3JvcFJlY3RCb3R0b21sb25nAAAAAAAAAAxjcm9wUmVjdExlZnRsb25nAAAAAAAAAA1jcm9wUmVjdFJpZ2h0bG9uZwAAAAAAAAALY3JvcFJlY3RUb3Bsb25nAAAAAAA4QklNA+0AAAAAABAASAAAAAEAAQBIAAAAAQABOEJJTQQmAAAAAAAOAAAAAAAAAAAAAD+AAAA4QklNBA0AAAAAAAQAAAB4OEJJTQQZAAAAAAAEAAAAHjhCSU0D8wAAAAAACQAAAAAAAAAAAQA4QklNJxAAAAAAAAoAAQAAAAAAAAABOEJJTQP1AAAAAABIAC9mZgABAGxmZgAGAAAAAAABAC9mZgABAKGZmgAGAAAAAAABADIAAAABAFoAAAAGAAAAAAABADUAAAABAC0AAAAGAAAAAAABOEJJTQP4AAAAAABwAAD/////////////////////////////A+gAAAAA/////////////////////////////wPoAAAAAP////////////////////////////8D6AAAAAD/////////////////////////////A+gAADhCSU0EAAAAAAAAAgACOEJJTQQCAAAAAAAGAAAAAAAAOEJJTQQwAAAAAAADAQEBADhCSU0ELQAAAAAABgABAAAAAzhCSU0ECAAAAAAAEAAAAAEAAAJAAAACQAAAAAA4QklNBB4AAAAAAAQAAAAAOEJJTQQaAAAAAANJAAAABgAAAAAAAAAAAAABkAAAAZAAAAAKAFUAbgB0AGkAdABsAGUAZAAtADEAAAABAAAAAAAAAAAAAAAAAAAAAAAAAAEAAAAAAAAAAAAAAZAAAAGQAAAAAAAAAAAAAAAAAAAAAAEAAAAAAAAAAAAAAAAAAAAAAAAAEAAAAAEAAAAAAABudWxsAAAAAgAAAAZib3VuZHNPYmpjAAAAAQAAAAAAAFJjdDEAAAAEAAAAAFRvcCBsb25nAAAAAAAAAABMZWZ0bG9uZwAAAAAAAAAAQnRvbWxvbmcAAAGQAAAAAFJnaHRsb25nAAABkAAAAAZzbGljZXNWbExzAAAAAU9iamMAAAABAAAAAAAFc2xpY2UAAAASAAAAB3NsaWNlSURsb25nAAAAAAAAAAdncm91cElEbG9uZwAAAAAAAAAGb3JpZ2luZW51bQAAAAxFU2xpY2VPcmlnaW4AAAANYXV0b0dlbmVyYXRlZAAAAABUeXBlZW51bQAAAApFU2xpY2VUeXBlAAAAAEltZyAAAAAGYm91bmRzT2JqYwAAAAEAAAAAAABSY3QxAAAABAAAAABUb3AgbG9uZwAAAAAAAAAATGVmdGxvbmcAAAAAAAAAAEJ0b21sb25nAAABkAAAAABSZ2h0bG9uZwAAAZAAAAADdXJsVEVYVAAAAAEAAAAAAABudWxsVEVYVAAAAAEAAAAAAABNc2dlVEVYVAAAAAEAAAAAAAZhbHRUYWdURVhUAAAAAQAAAAAADmNlbGxUZXh0SXNIVE1MYm9vbAEAAAAIY2VsbFRleHRURVhUAAAAAQAAAAAACWhvcnpBbGlnbmVudW0AAAAPRVNsaWNlSG9yekFsaWduAAAAB2RlZmF1bHQAAAAJdmVydEFsaWduZW51bQAAAA9FU2xpY2VWZXJ0QWxpZ24AAAAHZGVmYXVsdAAAAAtiZ0NvbG9yVHlwZWVudW0AAAARRVNsaWNlQkdDb2xvclR5cGUAAAAATm9uZQAAAAl0b3BPdXRzZXRsb25nAAAAAAAAAApsZWZ0T3V0c2V0bG9uZwAAAAAAAAAMYm90dG9tT3V0c2V0bG9uZwAAAAAAAAALcmlnaHRPdXRzZXRsb25nAAAAAAA4QklNBCgAAAAAAAwAAAACP/AAAAAAAAA4QklNBBEAAAAAAAEBADhCSU0EFAAAAAAABAAAAAM4QklNBAwAAAAAEQUAAAABAAAAoAAAAKAAAAHgAAEsAAAAEOkAGAAB/9j/7QAMQWRvYmVfQ00AAv/uAA5BZG9iZQBkgAAAAAH/2wCEAAwICAgJCAwJCQwRCwoLERUPDAwPFRgTExUTExgRDAwMDAwMEQwMDAwMDAwMDAwMDAwMDAwMDAwMDAwMDAwMDAwBDQsLDQ4NEA4OEBQODg4UFA4ODg4UEQwMDAwMEREMDAwMDAwRDAwMDAwMDAwMDAwMDAwMDAwMDAwMDAwMDAwMDP/AABEIAKAAoAMBIgACEQEDEQH/3QAEAAr/xAE/AAABBQEBAQEBAQAAAAAAAAADAAECBAUGBwgJCgsBAAEFAQEBAQEBAAAAAAAAAAEAAgMEBQYHCAkKCxAAAQQBAwIEAgUHBggFAwwzAQACEQMEIRIxBUFRYRMicYEyBhSRobFCIyQVUsFiMzRygtFDByWSU/Dh8WNzNRaisoMmRJNUZEXCo3Q2F9JV4mXys4TD03Xj80YnlKSFtJXE1OT0pbXF1eX1VmZ2hpamtsbW5vY3R1dnd4eXp7fH1+f3EQACAgECBAQDBAUGBwcGBTUBAAIRAyExEgRBUWFxIhMFMoGRFKGxQiPBUtHwMyRi4XKCkkNTFWNzNPElBhaisoMHJjXC0kSTVKMXZEVVNnRl4vKzhMPTdePzRpSkhbSVxNTk9KW1xdXl9VZmdoaWprbG1ub2JzdHV2d3h5ent8f/2gAMAwEAAhEDEQA/APVUkkklKSSSSUpJJJJSkkkklKSSXA9Y/wAYOY7IfV0htbMdrtrMixpe+wj8+qvc1rK3fmfzj3/8GgZAbs/L8tlzyIxj5fmkfli98kuL+rv18sycmvD6s2tvrEMqyqgWt3n2tZfW5z9vqO9vqsd9P/BrtEgQdkZ+XyYJcOQV1B/RkpJJJFhUkkkkpSSSSSlJJJJKf//Q9VSSSSUpJJJJSkkkklKSSSSUhy6X34l1DHbH21uY1/gXAtDv7K8z+qPUMbo3WZ6lX6cNOM97uaLAQHl37rPb6dr/AP0VvXqS5f63fVQdTa7qGA0N6gwe9mgF7QNGu/4djf5m3/rNv+D9FsgdCOje5HPjiMmDLpjziuMfoSav1x+qIymv6p0uvdeRuysZn+FHe6kD/tT/ACP+1H/H/wA5o/Uvr/7W6Z6V79+ZiQy1xmXsP8zkf9c27Lf+GrsXP/VH62Hp7m9K6o4txJ2UXP0NDgdv2e/d9Gjd7fd/Rf5uz9B/R9nrHR7ul9Ub9Zej1lzmz+0cNn+Fqd/P20t0/T6eq5n+Ftr9X+c9T12g/pD/AAgzZoSEfuuc2R6uVzdJf6uX97/mPUJIdF9OTRXkUOFlNzQ+t44LXDc13+aiKRyyK0KkkkklKSSSSUpJJJJT/9H1VJJJJSkkkklKSSSSUpJJJJSlGyxlbHWWODGMBc57jAAGrnOcVU6t1jB6RinKzHkN4rrbq97v9HUzTc7/AFevMut/WLqHW7T9pd6eM0zXiMMsb+6bTp69v8t//Wq2JspAebb5TkcnMG/kxjeZ/wC4/eel+svQcTreIeu9Di+w7haxgMXisuqe+oEe+9mza3/uSz/rSX1A6++0Ho2S8v2M9TCe4yfTb9PH3H3O9Lc11P8AwX/ErX+o3/iXw/jd/wCfrlx+GBi/XtrMaAxufYxobwGvFnqMEfueo9N2Il33bkP1mPmeVn6hy/EcM5fNH2+KtX0fFw8fDY+vHbsre91myTtDnndZ6bfzGuf+k2N/PR0klI5JJJsmyVJJJJIUkkkkpSSSSSn/0vVUkkklKSSSSUpJJJJSlV6l1HF6ZhW5uU4iqoSQNXOJ0ZXW386yx3tYrS83+ufVrurdYb0zEmyrFsFNVYMepku/RvOv+i3fZ2/ufrCbI0GzyfLe/lETpCPqyS/qtVjOr/XHrRP0IEucfdXjUk6NH0fUtf8A+zNv+jor/Ra3106Vh9J6N07Cwm7axkOc9x1c9/pPm65359jv/MK/0a2sR3RPqd0plGXe0ZFg9S0N91t1hHuNdTff6TdvpVf4Otn84uQ+s31ns66+qttAx8WhxfWHHdY4kFm6zb7Gex382z1P+NTCABr8xdLFPLmzw9uHBymEnh/RjL08PF/Xdzo/1jwui/U/F3OFma71/Qxgfc4m67a6z/R0/v2f9t/pFn/UXp2Rndaf1W8l7MUve+0j6eTaDu/zGW2Wv/0fqUoX1c+pl3WKW519wx8GwuA9PW5+wmp3I9On3Nd7/wBK/wD4Neh4eFi4ONXiYlYpoqEMY37zqfc5znfTe76aMQTROwYuazYcAzwxHjzZ5S92XTGJH1QTpJJKRyVJJJJKUkkkkpSSSSSn/9P1VJJJJSkkkklKSSSSU5v1i6meldGycxkeqxu2gGP5x59KnQ/S2vfvcvKsLKycK9luI8tyiDXU8N32S/2PdS2Hfp3tLmb9v+EXpv1l6FkdcrxcVt4x8au023ujc8kNLKmVt+h/hLPc/wD7bsR+kfV3pPR2/qlP6YiH5Fnutd/1w/Rb/wAHXsrTJRJPanS5XmsPL4CCPcyZCeKHThHpjGcni+lfUbq/UbPtXUnuw2WHc91h9TJf/W3l3p/9fc+z/gEf65dD6b0fpuFXg1Brn3n1bne6x8Vv+na73bf+D/mv5C9AXHf4yf6Fgf8AHu/89vSMQIldy/O5s/NYxI8MLPojpH5f+c6f1G/8S+H8bv8Az9ct5YP1G/8AEvh/G7/z9ct5OjsPJo81/ujN/tJ/9NSSSSLCpJJJJSkkkklKSSSSU//U9VSSSSUpJJJJSkkkklKSSSSUpcd/jJ/oWB/x7v8Az29diuO/xk/0LA/493/nt6bP5S2vh/8AurH5n/oydP6jf+JfD+N3/n65bywfqN/4l8P43f8An65byMdh5MfNf7ozf7Sf/TUkkkiwqSSSSUpJJJJSkkkklP8A/9X1VJJJJSkkkklKSSSSUpJJJJSlz3116Ll9V6dWcT33YjzaKe7xtcxzGH/Se72LoUkCLFMmLLLFkjkjvE3q4P1HkfVjEBBBDrgQdCP093IK3lFlbKwQxoaCS4hoiS47nO0/Oc5SSAoAIyz9zJOdVxylOv7x4lJJJIrFJJJJKUkkkkpSSSSSn//W9VWfZ1/o1XUP2Zbl1szNP0biRq7VrPUI9L1HT/Nb/UWgvKPrWAfrJ1EESDY2R/1qlNlKg2+R5aPMZJQkTHhhxDh73GL6ukvLOjfWvq/SNtbH/asRun2a4kwP+Au91lP/AILT/wAEu36X9cuh9QqLn3DDtY3dZTkEMIA+k5lk+laz/i3pCYPgnmPh+fDqB7kP3of91H9F3FXzuoYXT6DkZtzKKhpueYk/usb9J7/5DFyXWf8AGEwbqei1+oePtdwIZ/1mj22Wf1rfS/66uOy8vLzrzk5tz8i8/nvMwOdtbRDKmfyKmoGY6as3L/C8k6ll/Vx/d/yn2foPr2B1DD6jjNy8K0XUPkB4kagw5rmu2vY7+us2/wCuP1cx77ce7L220vdXY307TDmHY9stq2/SCqf4vv8AxP8A/oRb/wBUuE6z/wAtdR/8N3/+fHpGRAB7qwcjiycxmxSMuHEfTRHFv+l6X1vHyaMnGryqHbqLmCyt8ESxw3tdD9rm+395VOn/AFg6N1Ox1WDl13WtmawS1xA/OYywNdZX/wAJX+jQejf+JXC/8I1f+emryaoA1Vnu1rS09wY5afzUpSIrxW8ryMMxzAylH25cMDv+983+K+3pLzLpX1261gbWXuHUMcfm3GLAP5GSNznf9fbcuz6R9bejdVLaq7fs+S7QY18MeT/wZk13f9aeiJAsWfkM+GyY8cB+nDX/ABh+izy/rZ9X8LJsxMnK9O+k7bGenYYJAf8ASZW5v0XK/g52L1DFZmYb/Vx7Z2PgtnaTW722Br/ptXmH1p0+snUf+Nb/AOeql3X1I/8AEvhf9d/8+2oRkSSGXmuTx4uWx5YmRlPgviI4fXDj/db3TeudL6q+5mBd6zsYgXDa9u0uL2t/nWM3fzVn0Ve41K4n/Fz/AEvrP9ev/q8tQ6tk531n+sT+gY9rqOn4xcMkt/O9MtF9ljf8Jtue2imn+b/w9iPFoD1K2fJD7xkxxlw48UROeSfq4Y8MZH5eHi+b0vQ5f1v+rWG4suz6y4cirdbB8D6DbNqrM+v/ANVXu2/bCPM1W/8ApNXOn/VboHT62tpw63vaB+luaLLCR332btv/AFvYxXbOmdNtbssxKXt/ddW0j7i1H1eDGTyY04c0v63FCH/M4J/9JjgdW6Z1Fpdg5NeRAlzWOBcP69f02f2lbXIfWH6l4jKH9T6IDhZuMDa1lRLWuDRue2qP5i7b/N+l+i/MtrWl9T+u29a6V6mQQcrHd6VzgID9Gvru2D6PqMf7/wDhPUQBN0UZMEPa97DIygDwzjMVkxk/Lf70X//X9VXlH1r/APFL1H/jGf8Anqlerrm+pfUbpvUc+/OtyciuzIcHOaw17QQ1tft30vd9Fn7ybMEjRu/DuYx4MkpZCQDDh0F68UXM6N9UumdY+rWJkOnGzXB85NfLiH2Nb61bvZc3/wAE/wCEWH1H6odewrhUMY5lbjFd2ONwPh6jHe+j+3+i/wCGXo/Sem09K6fTgUvfZXTuDX2RuO5zrPdsaxv5/wC6riHACB0K8fE8sMuQxPuY5SkYxn0iT6eH914Xo/8Ai9ts23dZt9NvP2Wk+74XZH/fKP8A2IWJ9bMLFweu24uHU2mhlVRbW3iSDud/Wd+cvVVz/V/qZ0/q2e/OvyL67Hta0trNe2GCB/OVWOSMNNF/LfEZe8Z55ng4SBGI9ANx/RRf4vv/ABP/APX7f+qXCdZ/5a6j/wCG7/8Az49eo9F6Pj9GwvsWPY+2ve6zdbtLpcZP822tqxsv/F/03Ky78p+VktfkWPtc1pr2gvcXuDd1LnbfckYmgE8vzmGHM58kiRHIfTp/WdLov/iWwv8AwjV/56avJqv5qrzDAf8Aor2bFwa8Xp1XT2Oca6aW0NeY3FrW+nuOm3d/ZXNN/wAW3SWhoGXlw2I1q7f9YSlEmlclzmHFLMZkj3JCUdL09Tc6t9RujZ02Yzf2fkH8+gAVk/8ACY381/236Nn/AAi4zq/1S6z00OddR9qxhqb6AXgDxsp/na/819f/AAq9VSRMAfBgwfEc+KgT7kf3Z7/4M3xMOD/du3z+dMz/AGl6f9SP/Evhf9d/8+2qfVvqj0XqrjbZUcfJdqciiGPJ/wCEEOqu/wCu1rQ6Z07H6XgU4GNuNNAIaXmXEkl7nOPt+k9yEYkFl53nsXMYIxiDGYmJGJ8Iy/S/wnkv8XP9L6z/AF6/+ry0C2x31W+uV2ZltccDqJsIuDSYba5t1m3b9J+NkN/SV/zn2b9Iun6F9W8TolmVZj222nMLXPFu2BtNjvZ6bK/9M5aOXh4ubQ7Hy6mX0v8ApV2AOHx1/OSETQ6ELMnOQ+8ZZUZ4c0YwmPllXBGPFH+tFWLl4uZS2/FtZfS76NlZDh97UZctb/i96SLTdg5GVgWH/Q2af5zw67/wZM76jXWjbkdc6hbX3YbDx/bL2/8ARRuXb8WE4uWOozkDtLHLj/5npbf1p+s2D0rCupba1+fYwtrpBBLS4bfVv/0dbN273/zv+DQfqH0i/pvSHWZLTXblvFja3aObW1ra6vUb+bY/b6n9tWelfU3oPS7G3VUm69h3NuvO8g/vMZ7aWP8A+EZVvW4kAbspyZsUcJwYeIiREsmSfpM+H5Yxh+jF/9D1VJJJJSkkkklKSSSSUpJJJJSkkkklKSSSSUpJJJJSkkkklKSSSSUpJJJJT//ZADhCSU0EIQAAAAAAVQAAAAEBAAAADwBBAGQAbwBiAGUAIABQAGgAbwB0AG8AcwBoAG8AcAAAABMAQQBkAG8AYgBlACAAUABoAG8AdABvAHMAaABvAHAAIABDAFMANgAAAAEAOEJJTQQGAAAAAAAHAAgBAQABAQD/4Q2UaHR0cDovL25zLmFkb2JlLmNvbS94YXAvMS4wLwA8P3hwYWNrZXQgYmVnaW49Iu+7vyIgaWQ9Ilc1TTBNcENlaGlIenJlU3pOVGN6a2M5ZCI/PiA8eDp4bXBtZXRhIHhtbG5zOng9ImFkb2JlOm5zOm1ldGEvIiB4OnhtcHRrPSJBZG9iZSBYTVAgQ29yZSA1LjMtYzAxMSA2Ni4xNDU2NjEsIDIwMTIvMDIvMDYtMTQ6NTY6MjcgICAgICAgICI+IDxyZGY6UkRGIHhtbG5zOnJkZj0iaHR0cDovL3d3dy53My5vcmcvMTk5OS8wMi8yMi1yZGYtc3ludGF4LW5zIyI+IDxyZGY6RGVzY3JpcHRpb24gcmRmOmFib3V0PSIiIHhtbG5zOnhtcD0iaHR0cDovL25zLmFkb2JlLmNvbS94YXAvMS4wLyIgeG1sbnM6eG1wTU09Imh0dHA6Ly9ucy5hZG9iZS5jb20veGFwLzEuMC9tbS8iIHhtbG5zOnN0RXZ0PSJodHRwOi8vbnMuYWRvYmUuY29tL3hhcC8xLjAvc1R5cGUvUmVzb3VyY2VFdmVudCMiIHhtbG5zOmRjPSJodHRwOi8vcHVybC5vcmcvZGMvZWxlbWVudHMvMS4xLyIgeG1sbnM6cGhvdG9zaG9wPSJodHRwOi8vbnMuYWRvYmUuY29tL3Bob3Rvc2hvcC8xLjAvIiB4bXA6Q3JlYXRvclRvb2w9IkFkb2JlIFBob3Rvc2hvcCBDUzYgKFdpbmRvd3MpIiB4bXA6Q3JlYXRlRGF0ZT0iMjAyMC0wNS0zMFQwNzoxNjo0MVoiIHhtcDpNZXRhZGF0YURhdGU9IjIwMjAtMDUtMzBUMDc6MTY6NDFaIiB4bXA6TW9kaWZ5RGF0ZT0iMjAyMC0wNS0zMFQwNzoxNjo0MVoiIHhtcE1NOkluc3RhbmNlSUQ9InhtcC5paWQ6NjI5MUQxNzY0NUEyRUExMUFFOTRDQTA3RThEMERFNjUiIHhtcE1NOkRvY3VtZW50SUQ9InhtcC5kaWQ6NjE5MUQxNzY0NUEyRUExMUFFOTRDQTA3RThEMERFNjUiIHhtcE1NOk9yaWdpbmFsRG9jdW1lbnRJRD0ieG1wLmRpZDo2MTkxRDE3NjQ1QTJFQTExQUU5NENBMDdFOEQwREU2NSIgZGM6Zm9ybWF0PSJpbWFnZS9qcGVnIiBwaG90b3Nob3A6Q29sb3JNb2RlPSIzIj4gPHhtcE1NOkhpc3Rvcnk+IDxyZGY6U2VxPiA8cmRmOmxpIHN0RXZ0OmFjdGlvbj0iY3JlYXRlZCIgc3RFdnQ6aW5zdGFuY2VJRD0ieG1wLmlpZDo2MTkxRDE3NjQ1QTJFQTExQUU5NENBMDdFOEQwREU2NSIgc3RFdnQ6d2hlbj0iMjAyMC0wNS0zMFQwNzoxNjo0MVoiIHN0RXZ0OnNvZnR3YXJlQWdlbnQ9IkFkb2JlIFBob3Rvc2hvcCBDUzYgKFdpbmRvd3MpIi8+IDxyZGY6bGkgc3RFdnQ6YWN0aW9uPSJzYXZlZCIgc3RFdnQ6aW5zdGFuY2VJRD0ieG1wLmlpZDo2MjkxRDE3NjQ1QTJFQTExQUU5NENBMDdFOEQwREU2NSIgc3RFdnQ6d2hlbj0iMjAyMC0wNS0zMFQwNzoxNjo0MVoiIHN0RXZ0OnNvZnR3YXJlQWdlbnQ9IkFkb2JlIFBob3Rvc2hvcCBDUzYgKFdpbmRvd3MpIiBzdEV2dDpjaGFuZ2VkPSIvIi8+IDwvcmRmOlNlcT4gPC94bXBNTTpIaXN0b3J5PiA8L3JkZjpEZXNjcmlwdGlvbj4gPC9yZGY6UkRGPiA8L3g6eG1wbWV0YT4gICAgICAgICAgICAgICAgICAgICAgICAgICAgICAgICAgICAgICAgICAgICAgICAgICAgICAgICAgICAgICAgICAgICAgICAgICAgICAgICAgICAgICAgICAgICAgICAgICAgICAgICAgICAgICAgICAgICAgICAgICAgICAgICAgICAgICAgICAgICAgICAgICAgICAgICAgICAgICAgICAgICAgICAgICAgICAgICAgICAgICAgICAgICAgICAgICAgICAgICAgICAgICAgICAgICAgICAgICAgICAgICAgICAgICAgICAgICAgICAgICAgICAgICAgICAgICAgICAgICAgICAgICAgICAgICAgICAgICAgICAgICAgICAgICAgICAgICAgICAgICAgICAgICAgICAgICAgICAgICAgICAgICAgICAgICAgICAgICAgICAgICAgICAgICAgICAgICAgICAgICAgICAgICAgICAgICAgICAgICAgICAgICAgICAgICAgICAgICAgICAgICAgICAgICAgICAgICAgICAgICAgICAgICAgICAgICAgICAgICAgICAgICAgICAgICAgICAgICAgICAgICAgICAgICAgICAgICAgICAgICAgICAgICAgICAgICAgICAgICAgICAgICAgICAgICAgICAgICAgICAgICAgICAgICAgICAgICAgICAgICAgICAgICAgICAgICAgICAgICAgICAgICAgICAgICAgICAgICAgICAgICAgICAgICAgICAgICAgICAgICAgICAgICAgICAgICAgICAgICAgICAgICAgICAgICAgICAgICAgICAgICAgICAgICAgICAgICAgICAgICAgICAgICAgICAgICAgICAgICAgICAgICAgICAgICAgICAgICAgICAgICAgICAgICAgICAgICAgICAgICAgICAgICAgICAgICAgICAgICAgICAgICAgICAgICAgICAgICAgICAgICAgICAgICAgICAgICAgICAgICAgICAgICAgICAgICAgICAgICAgICAgICAgICAgICAgICAgICAgICAgICAgICAgICAgICAgICAgICAgICAgICAgICAgICAgICAgICAgICAgICAgICAgICAgICAgICAgICAgICAgICAgICAgICAgICAgICAgICAgICAgICAgICAgICAgICAgICAgICAgICAgICAgICAgICAgICAgICAgICAgICAgICAgICAgICAgICAgICAgICAgICAgICAgICAgICAgICAgICAgICAgICAgICAgICAgICAgICAgICAgICAgICAgICAgICAgICAgICAgICAgICAgICAgICAgICAgICAgICAgICAgICAgICAgICAgICAgICAgICAgICAgICAgICAgICAgICAgICAgICAgICAgICAgICAgICAgICAgICAgICAgICAgICAgICAgICAgICAgICAgICAgICAgICAgICAgICAgICAgICAgICAgICAgICAgICAgICAgICAgICAgICAgICAgICAgICAgICAgICAgICAgICAgICAgICAgICAgICAgICAgICAgICAgICAgICAgICAgICAgICAgICAgICAgICAgICAgICAgICAgICAgICAgICAgICAgICAgICAgICAgICAgICAgICAgICAgICAgICAgICAgICAgICAgICAgICAgICAgICAgICAgICAgICAgICAgICAgICAgICAgICAgICAgICAgICAgICAgICAgICAgICAgICAgICAgICAgICAgICAgICAgICAgICAgICAgICAgICAgICAgICAgICAgICAgICAgICAgICAgICAgICAgICAgICAgICAgICAgICAgICAgICAgICAgICAgICAgICAgICAgICAgICAgICAgICAgICAgICAgICAgICAgICAgICAgICAgICAgICAgICAgICAgICAgICAgICAgICAgICAgICAgICAgICAgICAgICAgICAgICAgICAgICAgICAgICAgICAgICAgICAgICAgICAgICAgICAgICAgICAgICAgICAgICAgICAgICAgICAgICAgICAgICAgICAgICAgICAgICAgICAgICAgICAgICAgICAgICAgICAgICAgICAgICAgICAgICAgICAgICAgICAgICAgICAgICAgICAgICAgICAgICAgICAgICAgICAgICAgICAgICAgICAgICAgICAgICAgICAgICAgICAgICAgICAgICAgICAgICAgICAgICAgICAgICAgICAgICAgICAgICAgICAgICAgICAgICAgICAgICAgICAgICAgICAgICAgICAgICAgICAgICAgICAgICAgICAgICAgICAgICAgICAgICAgICAgICAgICAgICAgICAgICAgICAgICAgICAgICAgICAgICAgICAgICAgICAgICAgICAgICAgICAgICAgICAgICAgICAgICAgICAgICAgICAgICAgICAgICAgICAgICAgICAgICAgICAgICAgICAgICAgICAgICAgICAgICAgICAgICAgICAgICAgICAgICAgICAgICAgICAgICAgICAgICAgICAgICAgICAgICAgICAgICAgICAgICAgICAgICAgICAgICAgICAgICAgICAgICAgICAgICAgICAgICAgICAgICAgICAgICAgICA8P3hwYWNrZXQgZW5kPSJ3Ij8+/+4AIUFkb2JlAGRAAAAAAQMAEAMCAwYAAAAAAAAAAAAAAAD/2wCEAAEBAQEBAQEBAQEBAQEBAQEBAQEBAQEBAQEBAQEBAQEBAQEBAQEBAQEBAQECAgICAgICAgICAgMDAwMDAwMDAwMBAQEBAQEBAQEBAQICAQICAwMDAwMDAwMDAwMDAwMDAwMDAwMDAwMDAwMDAwMDAwMDAwMDAwMDAwMDAwMDAwMDA//CABEIAZABkAMBEQACEQEDEQH/xAETAAEAAgIDAQEBAQAAAAAAAAAACQoICwUGBwQDAQIBAQABBAMBAQAAAAAAAAAAAAAGBQcICQMECgIBEAAABQMCBQMBBAsBAQAAAAAEBQYHCAACAwEJECBQNzg0NQo2cBQWOTAxEjITMxUXGBkagCERAAEEAgEBBQMJBAYFCgcAAAMBAgQFBgcREgAQIRMIMRR3IFAiFbUWtrd4QXaXODBRYTIj10IzJNYYcIBxkaFicjQXh4FSgnOzdDUSAAIBAgIFBAwJBgoIBQUAAAECAxEEIQUAMUESBhBRYRNQcYGRsSIysnMUdQcgocHRQlJyI7Tw4WKSNBUwguIzQyR0lXY3cKLCU2PD09SA0qOzhPGDkxYX/9oADAMBAQIRAxEAAAC/wAAAAAAAAAAAAAAAAAAAAAAAAAAAAAAAAAAAAAAAAAAAAAAAAAAAAAAAAAAAAAAAAAAAAAAAAAAAAAAAAAAAAAAQkR7M2CiOZt+3diGWYJdrjzA71pgAAAAAAAAAAAAAAAAAAAAAISY9mZSqt/uN5v66fD/Pb9Y54tsAbm6Icr+7a4AAAAAAAAAAAAAAAAAAAAAUhLebn4iaHlfsebreemPGl39pNW93LSWVfHO93cjSF+j5AAAAAAAAAAAAAAAAAAAAAqBwbbJXxi+et2G4OmyamQYcwoR7MmlhANxdyme6hZ1ZHhKAAAAAAAAAAAAAAAAAAAABjh1Lh0ALZb3PI+CV3e7h6YJb65ipAbGc6KsUN2cbEC6WgT0/mjQAAAAAAAAAAAAAAAAAAAAGDtOvTQ1ttvE6bx1i8ncXSpKXWcZa7UW2AYedC7VuicapQAAAAAAAAAAAAAAAAAAAABH3S780Rbcbvfg/Oa9fcbSRI9Vseq10S2Kyq1rF/Pyp2KAAAAAAAAAAAAAAAAAAAAAEbNJyJoqW43a8x9dS+XcnR3ndUrIRc0fJiUasYzgAAAAAAAAAAAAAAAAAAAADpPHWY3qTkPRst1uqyg7ltNhhdHQZzX10wAAAAAAAAAAAAAAAAAAAAOlcdZq5Q7Zh4F1p1c/n2nyr9D9lVXSHbMLt9wtMsztfw/AAAAAAAAAAAAAAAAAAAAGD9OvRSbt9uVw36F3ZsZBhrdbuDpvxG6N1tdZaz0CWVZbrptbzTV2AAAAAAAAAAAAAAAAAAABFHRcoqSVvdzHTOOscf+dibGQYa3W7g6b8d+rP9b3aj0N2NZVr4trzfVYAAAAAAAAAAAAAAAAAAAIpKLlFR0t3um75yUO49PdRdH+3e6KbGQYa3W7g6b4I43m9TPgW3y4lO9SM/UmwTAAAAAAAAAAAAAAAAAAAwnp95aCFs96vM/XTvjXI0e5CduBa1e0vormxkGGtrqa6uqDdtN6HSuOs7Ga6vny9U5owAAAAAAAAAAAAAAAAAAOq/FU1+Vsd8eI3Rute8uRpBk0q+OHjfBL9avaX0V5N9u2/nXFIPNeKRXS5/p3m1kOGYAAAAAAAAAAAAAAAAAAFWKG7OKyEQ2RWs5pq9ssy3XP1T4qlcSKbCqrMM2eDKvu2vt5zjVBLdXMVAAAAAAAAAAAAAAAAAAAMcOpcPXW2s9AeZnftBfnuXouggjeb9Y6IbI8cercISmVnGS9JcbSbzn10gAAAAAAAAAAAAAAAAAABUmhG1SuZFdg06kjwljTpGRmK/Tud7n2IVYJlGBlYOH7KJsZBhrdbuDpvAAAAAAAAAAAAAAAAAAAHTeOsa3C0/of804pGPaOxDrJss122HpTgF1T4qutXtL6K5sZBhrdbuDpvAAAAAAAAAAAAAAAAAAAELUfzEpMW+3Les80WsjyzXfYqlWv30LloA8b4JfrV7S+iubGQYa3W7g6bwAAAAAAAAAAAAAAAAAABVHhe0TtP3TLIEr15+n80aAHjfBL9avaX0VzYyDDW63cHTeAAAAAAAAAAAAAAAAAAAOJ+e3y311AAB43wS/Wr2l9Fc2Mgw1ut3B03gAAAAAAAAAAAAAAAAAAAAAAeN8Ev1q9pfRXNjIMNbrdwdN4AAAAAAAAAAAAAAAAAAAAAAHjfBL9avaX0VzYyDDW63cHTeAAAAAAAAAAAAAAAAAAAAAAB43wS/Wr2l9Fc2Mgw1ut3B03gAAAAAAAAAAAAAAAAAAAAAAeN8Ev1q9pfRXNjIMNbrdwdN4AAAAAAAAAAAAAAAAAAAAAAHjfBL9avaX0VzYyDDW63cHTeAAAAAAAAAAAAAAAAAAAAAAB43wS/Wr2l9Fc2Mgw1ut3B03gAAAAAAAAAAAAAAAAAAAAAAcd+dik9b7cny/71LrdwdN4AAAAAAAAAAAAAAAAAAAAAAA4H570H8dzRnekmEAAAAAAAAAAAAAAAAAAAAAAAAAAAAAAAAAAAAAAAAAAAAAAAAAAAAAAAAAAAAAAAAAAAAAAAAAAAAAAAAAAAAAAAAHmvDIvQuWg/R+8YAAAHCfPd4T57nduSjcJ893wrrTYet88V7ryUbg/nu8N89zuvJRgAB5xxSHzbhkQyB7UD+/8AeDH/AKs89X54t2n7pgA8W68xxn6lx+H+e37FzxLKfu2x5D964AAGtPtL6L8nu5bW1ZM9YMs1bxYAAHx/nNBhHM16t8O2ZZKdu3V9e5WjXAym3x181sN9IuWz3UJO/JMIKicH2uQTxvNywfKMCrGsq175AdqCACsLD9lFW2HbMhsiLr+ePITtQHXBWp9C9wudalJcq5in+L7gIjOdVcyKbBuN/OzmX37Qcz9dTwbrTjEbo3WmAruJlo6Y6z8gu1AgANYtaD0ldc+agJUKzjHavmmr6Q2qWCH8fsQVCyxqswzZ5gvTr2DPyp2J2CFztDeBlNvjr5rYb6RcunuoSd6SYQU2IFt4gajecQ7N902dySYQ2T5Zrsy771qBWGh+yirZDtmQ2RF1/PHkJ2oDrg7U+he4VOtSkuVcxTqLwfa1FjRsnLnk+0/Z9VOxQA854pBVwhuzKFCP5kbAO5uiHIHtQMAaxa0HpK6581AD9nxNPIMOpxZFhZXHimwmMWkZJADPyp2J2CFztDeBlNvjr5rYb6RcunuoSd6SYQU2IFt4gajecQA+794Joa/h7ZaluueIih5X1bYdsyGyIuv548hO1AdcHan0L3Cp1qUzwqVj9b9aj0NbAi52h7Pup2KAAH8KC9tN6UqNZxjtMTLWSANYtaD0ldc+ahJHVseOc+ujGBR8lQB9n7wzdyHDGOSlZCYp9K6GflTsTsELnaG8DKbfHXzWw30i5dPdQk70kwgpsQLbxA1G84u1/dLtpzfVdXMimwbDToXfH+353bko3RuOtDZEXX88eQnagOuDtT6F7hU61KZMdy3GvNtdv12T92fOx7b2IYAABSgt9uS9r7ENt6TnU+ANYtaD0ldc+ahYdlGAdu6c6ooh6HlfVWhez3BunXqmar+IFo6Y6zs3qjZihtbbeHF5R8l8/KnYnYIXO0N4GU2+OvmthvpFy6e6hJ3pJhBTYgW3iBqN5xej8se2Yt3PON8v5yw5UHLmtNEtjEcdKyEAGyIuv548hO1AdcHan0L3Cp1qUljreLWvKtdv2l7rmJ1sWbatf0fIAGCVNvfQatpvQuz3C00y11vFYAaxa0HpK6581Cw7KMA7d851Qj5Pzl8V68x917MJAobW23hxeUfJfPyp2J2CFztDeBlNvjr5rYb6RcunuoSd6SYQU2IFt4gajecXo/LHtmLdzzjAfwjCo+SlaSJbGYkaHlX+T62RF1/PHkJ2oDrg7U+he4VOtSkuVcxTxJ6N1aVFv9x3P/XRm7kWGGZPftF2L6p+PvWnkW9GyZhqoGXtouY60LDkpwDAArCRDZRx3z2JEarYCXuuYnAAAQLRrOTFzp3M9/7UEsGyfArwLrTqvLFs+xNDX8Pc9qnYyGeg5fYF0y+XZPunWaJdrgAAGCdNvdFbRsnrF8q19ff+8FbGJ7E5kK9iLl93rTD8X3GZR8j4w6Rknjf1Lh8f+dj07mjWeFSshL/XMTPWOeLAAAAAAAAAAAAAAAAAAAAAAAAAAAAAAAAAAAAAAAAAAAAAAAAAAAAAAAAAAAAAAAAAAAAAAAAAAAAAAAAAAAAAAAAAAAAAAAAAAAAAAAAAAAAAAAAAAAAAAAAAAAAAAAAAAAAAAAAAAAAAAAAAAAAAAAf/2gAIAQIAAQUA+y0xUIcJdkUZpfcGU4zHqBMQphZ01QGNwMPVtl9/AMJzBMxeNxjw3TFJkuvM7Lf27wgTCCwG5NjH2X2X47yQx+4Cv19MVAbWwVRIb2jcdHZPoNs101t1Tpj95D9LGg8Q4OLCZgWey+/HeTm9hhjo8JdBWgQTlBCQ+fGJw9LMi7CY4BIbMEzYsuTDkKDbGY4qPCX+PomzH+Fl6YaFmIyw58GUNlw5sofKVGmMyw0dk2uupSP0MAnTDUqxmWLNhyB8ocRlC5iwyxGWCvuF4Qf0zXLi0yHBTYY4r7L8d5aNvACrL7clnS8uXFgxmKlvvpOX35DSlOAt00pOCdc5f0owMw5djHmIkwyUmfcqM8WmcvpKZNdMvSTc4xl1mbPlEZbbbrtaTPuVDr9MYKkrbrqI6QcG1hdjyZL8t4YNmF5gpRgLgdJn3KlKM0wg6S+DXGE6OZGGMuDZ8+UTlDBswvMWluEuwivTUmfcho7AAwjReUcID4MgrOHwWBsHRsmSzFjMh95gJssuyXlBXYXYKFemoENygMwgRnFZNNNbtSMo+5WdHUphrrdScLP2bayZMeGwzUeHXHwBl4sdcWEmAB0gcKsBBcmS/LkKQGpgM11x4cY5S4MVChwobfwIguAWPsssx29IU4z9vNQE1DFQMYYCx11BggkXfhTVmEPSZ9y6RlyWYcQjNeIz8A4UQLvApiy2sWHFgsFempM+5dIUgn+CX1gDZxV4FMW6VhwYQ9nAV6akz7l0hRaZxY4CmNawB8AbHyCvTUmfcukaW26Xcwr01Jn3Lp4r01Jn3Lp4r01Jn3Lp4r01Jn3Lp4r01Jn3Lp4r01Jn3Lp4r01Jn3Lp91ul1pyTXAb0z7l1C+yzJYCKLi81+zHIIwYddNdNdP0N99mO3HmxZtKvvsx2/fwNffwNY8uLNbV99mO3HmxZtObLnwYK+/ga+/gatu0u0q4aDtux5MeW3kyiwuGrjkrt10OyrWsZkX5atutu05xOXJnzgTYYA1AHoMbz666W6D1GGD0LHih15FlyYjOjj2zgl/QUqc2TUVhEZg94JT320GGhRlnIq/1cAPoqH+uTvtda66aaGCkwYNRJqPF64SswEVamzO6tU0ZaVlIjTFpbeMBXg1MJxahBgcbi5cn7/AAeDAVATcGP5B5+DB0ONRg/XgTe6Uce2cEv6ClR6/hjyX4rwSmE4qBmQMdpwVf6uAH0VD/XJ32qj83uy5C4uzmOYEUggNvJmwYRFhsnv4FgMZnA5wYvGND8mT9/jprrpqAUIsLWRRl1uAedjR3KTe6Uce2cEv6ClR6/k0u1t1BKIYGoEbgR2ir/AFcAPoqH+uTvtQ3NqHCa6666lAS0IA5zsLaEMErn1/a5Mn79FBbaZZh5INA8ummt2oFOChFGITQCMom90o49s4Jf0FKj19Y7dL8gpMBb7BhYNA68cmbLl4gfRUP9cnfajazW8toJktyhedS5LbzJK266i+TJ+/SV9XQ8gBjKHFQwBrpprrqBTwwVQIrBgNKP/dqJvdKOPbOCX9BSo9fWD+dWummug1PAhVDSYcC5QPoqH+uTvtWuml2hkBvACiA3swW8xkZ4C7Fly5M+UhAXAgfJk/fpK+r4a6aXaWAwmK/if+7UTe6Uce2cEv6ClR6+sH87kGkYEbQ0gHBK10101oD6Kh/rk77VQ8vwGGEeUjAFwI5HAdMCpD3VaoSq6tT8q00yqYvs0FKcVl00tEjcxSn9A93Lclf2rvwpRUTf0zLzj099+F/hSgac+6CqGB/vYX8KXV+FLqKi/UtD0aEn9SEfhSsaW/Yv5hhSCHVjSuG3LbbpbbQhMXZ85aD1ABOGummugkiLROuVKaVqlhtfhYdViUza1gTIHHWAMHDWf+L/AP/aAAgBAwABBQD7LWVhssXHBk8KWELQi1ge2RwHdhlV2zht02GzLAnHWWmmmmg0yLi22262+1bIpOOEmnhaw7Z9cdMhGUhC9iTEZoXl7huEpnNVEbpNnDSGZUaFx4WymZe13G+utusu6XAlb4DNB66aXaSnjcMa43qLMlRDWGQYSHGB5oMt+B1j0trXJPmnWjcOKmXSSpqVFp4WyVjeZM2bVFWUGRAiHCRBG6KHWCUOUMp+lse9ijZRVIdbptxEyeEZQpSiR0dzZlj2ooShuS2WbzMaKFP9MYV91AySlSKuT66TymTJEsSKQTAnjJKOoryaD2B5DtCIZ1xemR7kAeMmoU2pCRXkaxRydXqcfZkT5klbX93i1w2h6ZjTp9lI42SJM2YPSo1LTwtexrC132/MS8YUj+lkCePFUbMrB0sLNJslxeUMHUEHaE35qmwhsaUeHpTNMWtHqOWkZNDM2T1OnshTGKG9LPBW4SU2ZCHpMdI2HbzmSXSyfRhGJFBQWGp09kKakpEHjnVuDDsWNHdIjXHUxeg8JycrT5WuFymW6Ti4kYq3rc+p09kKg222dSuRU9ldjN3I6OxzOHT0rVKpYiRSeW62TjeJp8XvUr1qdvvr2p09kGsahXO6pmxblPtUjVkrSdCpZaKsyXKs6MSExmojdjWhKWZQpkYgCcvkg/Ri9Krpvvr2nSa5Ou4nEgikqgiYQIwBMEsJGWumbdHgwzNuENU2n2vHjaJiQ4URixkKFIHOODkvI3jUAH4lSrnf6Q1TfGLoL4kJi1Ok8hnbwM63GAOdqc4aeDKsUVN+1aCa8u4S0XiqbxpDEyMTcb0iBrZWlaap1I/LWQLlNwzreNSBpbuKiW4LFJOExUqwqdPZDpCfIx6mPUgmS9GJbgtF+jW8KnWngZjaUCkP1WZt99e1Onsh0iEaJ0U7xUrlukkGVOvPAVnpSKlRrE04N99e1Onsh0iFmVLN007rzxx2UqliqVwbcjffXtTp7IdIzDxwgNzN99e1Onsh09vvr2p09kOnt99e1Onsh09vvr2p09kOnt99e1Onsh09vvr2p09kOnt99e1Onsh08IKEgRUY5MgXaL509kOoFhmYEpi50kAbxx7+zEmR6tUeHLiy4Mn6EvLTE2FnScUCbEUXFxgbjf7RutX9o3Wo8TqgTIui8tMTcWdJ1QJsRzEKSVSp1/tG61f2jdahQYSCE0Fa1zBwU3JDlPjuQjbxeqfQJGJ+htmSKsgMWhuxjxkegkKKBZudDJ0nSiQdeOzZu7id2JLltjzhw4gXnaSEq5WOjcNC37Ul8sU6THrGVGrvvwnx3gqAScJ8SDUySTCzLHPgWVDKXTZLttTDk28v5/B1u6FNH/8AWqml3/rHjyZsjPQhVKtDoiP7Pt5hUz9M2jbhk32JDXY50MfkuIJasIf3iixt3QKnMgqhVBjcNs1m1p7ylPtXB3Ioti6VOzG5zWjv4aaa66tFEFyXJpqo/No0ODhJrsNUau+/Ce/eCoDdoeBsTlJ8Ac+CyKUWrjsk5bVCeG3l/P4Or3Qpo+1M0u/9Q9joAISd6HrSrKJt05Fug7AnkTasUyOMY8zL/FRg5TapZ1Us5jenbXLTkKfauN9lmWx3IYt4vdSeEr0jlS0kWmxanlk12GqNXffhPfvBUBu0PIJDBhgd0IVtktqc+NzqtVdt5fz+Dq90KaPtTNLv+1qXxLVxsWLFgxSQcIc4zu88WnCHOOze4Kkg33PkKfaqkc94xjUu0kp2xdXTkECMATA7E12+RerMuFmdRtak12GqNXffhPfvBUBu0NHY7IVkqCnmuyse2z7Ng6uHhdbpdoTJtPJ3Tg6vdCmj7UzS7/x4MMBW99OMTCk8v+eDJQLLWR3Ah4fG3nIU+1VuB9v9NddNWjl65Ta6NVIJtHdwZMmPFjdmZbboGnRf1zHcz1EDx6qTXYao1d9+E9+8FQG7Q0rvpSsObMGytdM10UJo2EnGodHTkdXuhTR9qZpd/wAKJEAhLIuqVu+38w43mipE3W3WXcrIsWq3pUSdIClJEEuXcCOi5XIU+1VuB9v+GDPnC5jZy3EPi7jEDx6qTXYao1d9+E9+8FQG7Q0rvpTj+qmvlY7LZaNfMBqXC0svsyWU6vdCmj7UzS7/ANNG8CtZpStJIluHfCOjGJqHVzKnb+V4S4fDF/wVB4fyEEZCKCLxGOVBQPb0iyiBaHbFMyLmJmWITlCbg2MKF/2G46kHJ219E/zs/Mqxqm8/2G46c6bNjioKmyWdreL3/YaEr/YaEp/3kxvesaYGVFrHo/8A2G46N5/4zQp5mxkM6bUXHe4EphhCKEiBomkhO8Klkm9jm2O84PDHkyYciHli9qGxEO4SKttD7gDZXW3z+ajTQ13B0xisVc7nYObFWt1euTD/AMX/AP/aAAgBAQABBQD7LZx717LRnOlnvlbhCmOGO+QHKZGGMQ5xsDNVH9N3sJwnkZ2U111u1JEwpVNky4suDKxj5OZHFz4XyzQszWH6ZvsrA4UU/U0TXqNRxwjk10WWp3N9rFFTCSqsSalQim2mpv5YdSLxZcWfF0v5CLEmCWkFZffjv2mdzYklcjK3ZNsAvlmmDItMSYx2QJw6vyy3S5YRjb+XjHyYjW6MUHbSStUyDU+19ubJiayPrdt2pw8hS+OT7L2KD8su7qKfpq+lzwgu2k5mlfdiXNja6CDXixbBZbZ25Ij5xIGt3nalxuyF2IpuXtu4nTNwfb/bqdbXvGzrisG5DWuivWWX23PuHIKdTaVuz7WhlmMdtyZJbNONXTNxzbsQk6W4c1sl2za8ZZ6XIj45UAZ1oCdLP1/hspo4TK6YIclvwi83OtthLTdQCtSSmQaogvLNTwzkUnFCSK5PdLcNx0G0qQnFvzKhU37FylUSx3C6+QDD0swga2Ln6EO3C7pU2p8shBxEzDnO/M11pWwX531PhuMDsQwr446vzhnA6TuVbnqFhCmXVdhxXuXhWUmh2NrYL876lyry5BRYr45hCLEPV0jc93KE1CFCLNZqtxFWw7CulJRzGH202igzFWtgvzvrfpk4AbCMtfHvZwSj4ydHnnNRDweY12nXXr4uMxLFuXJB0YGwQa+DDVyL8fK2C/O+Wcu2chs10ppLuJLd62TaBaP67DHtGmGFaHoy5WyWbVGz1mUr5tP4mU0oFmotsrb5TcHGiqRfj5UUJWuRDly3kfF2pBrYuLjA3H7Qu2nliakOj7+E28o0zrYrgFiICOlqukW2yanxvnNkZIzhGOFMkJdqDb92lGchnr0eW0i03FKPa6WymclabcEOzCaMmB5ihmqRUvN+5oG3qRUtZBysUvDZ8j80skZiJtMJtGkfSPkDymyKxzqiVuKMbt0xgkzNOSEuT2mJjU+kmFS2Ww4mmvZmtgvzv6Q4q8TzWoB5XSUb2uvwZCO72SQVkRfj+pYk0bpsm8aJLSL8fK2C/O/pG+w+l7WQtpnWKeCQKsiJ8fsqL9WxaZs2XSfCRfj5WwX539I3xQjsSTl9EX4/IjNTSMs1DDJDkkX4+VsF+d/SARARFpnzSL8fK2C/O/p8i/Hytgvzv6fIvx8rYL87+nyL8fK2C/O/p8i/Hytgvzv6fIvx8rYL87+nyL8fK2C/O/p5uUlh+U7p+1uew/UWwX539QVKWTi3TcWNsk6hZuOfZit3mZ9tBoUUFHBv0KjUybR5OhnKbpzi2lIpU4jiP/MaI9f5jRHpCOU3bpFFKNTJtHk6HcpunOLeZwHhaVprf8xoj1/mNEeis0LDwso2lhFwhNEauUU4pDyL2SEe2suON1Db4I8wbds27BV6PnvCteXlZuVHgLnfpyVo7ryRF3J5SQ3Fw43houyo15jExLygBMTfUYVlb5MTKkVLhR7QbkrRAz4rdA8AOHx69NNIYV8iBy1mKkC1rwumyKoir8gxWEurBSmYCT6c5Pkhaaf0/hEjTTSKdTG000lvsefl3UJEhwYeaG+60zPGL7bikzZIDWt2+prvZiJtiGfxpiFbB08Q+NwtnvcJbzCVKiTMU1bFzf2f5uxMcJRMjLBBcqw+reEOt3SU0TqiBucRbmNg4XXW2WzH3mIxRi1ltuKSgmSYcNrX8wStz/wA4fHs8MK+Qv5lcEgs1e36gitv6vk2+kZZ1RfluW8Pkhe38Ik+KlTG8uNj38u6t6HcrUDgLWD8GHanM5sTttaKkQyzkc5oWtehN7j+yZq0ycjBKB2IkOvF2RqGlcx3IsPq3jgz5wueHW9zJCPlqz31IPEDTTD3YpUS65drX8wStz/wA4fHs8MK+Qv5lchYaGRKYRT3yJSsZpFXc3iRLbD8kLXT+n8Ik+KlTG8uNj38u6V7qi2OjQLFih4vbKjiQxphvza6aa6bsUciCM81/jnvAaaHPIsPq2ts+CJLPR1pibTMp4kX8heXGBuOiFsYyLfC2bkcQUS5PVta/mCVuf8AgBw+PZ4YV8hfzKpCEIZVLiQfx9WAVaek5AOVESBnCy+/HetXOchydeESfFSpjeXGx7+XduQpweqoI1GlalLjx459+9YlCmnZ8dQgMRMkORYfVtfHT8ibrdLtJj7NUYJP6y226JQw4Hhw4gWIiBslybkLrFDbzi7DovreZ/Mera1/MErc/wDADh8ezwwr5C/mVTOd3aGggRkElbsjxRf/AFlVtYS8ijfyRJ8VKmN5cbHv5dxqVl54VztiSq4aSJ2XdzVJtMV4suLPi5Z2T4aKDrbOS4aweFw9nOHJxFGMPIsPq2vjp+RPAeAAmoJIRfjY3ym47zP5j1bWv5glbn/gBw+PZ4YV8hfzKpnO7vHXTTXSVm0fECUl0q9mKXUctc+DMGzVEjxTqY3lxse/l3VMaGLPTYa+Ym2zJmGhvFHdRl1EkG03yJ2aN8Se3u9u480Mt53bkLg6+3/oWJoHIL5AkjV+ELih95UOjtq7LYJlTflOPjmCDU2/5vBFbc21flgM4vPM7ZNzS3kh/wA3gios7FuaNcg6lKyWWR8fP+b43r/m+N627oUiYIsrW4dtK5Z3vN/zeCKR3x3BCTV/NKfbgidLrEhfjqNaSuAVFZcRldPN8f41dh3oLxazw2jnwEhg4wO/O0FBZ+hTg/HGKcuUw+OzKbHkw/Hdl5dckfjkuqKztH8f+ISJztGxLNsInf8Axf8A/9oACAECAgY/AP8ARa0MC9ZONf1Qek7T0Dv6ErKqDmCj5QToBcIsifqn4sPi034H8Ya1Osdz5Rh2OWCFqTyVx2hdp7Z1Du8h3EJ7QryJPA9JF/Kh5wduiTx69RHMdo+bo7GupOCooHer4Toq11kDRIIVooGJ2k856ToZYQFuxt1Bug9PMe/hqaORSHBoQdh0Ac/1eTBujmbubegnSo1djIroDxHWh7a/mp3uRbec0u1H6wG3t847va0NxbqBdqP1hzdvmPcOyhVhRgcRp6rK330Yw6V2d7V2qdjHt5dR1HmOwj8sRho0E60YbdhHOOjRZI2IdTUEawdOqlIF2oxH1hzj5Rs7XI13ar/WQMR9Yf8Am8Pb0juI/LQ6ucbQe2MNI54jWNhUflzjUexhjfCUeS20H5jtHy6PBOlJF+PpHODoksTlZFNQRpuvQXSjxhz/AKQ6OcbO9yPeWiffDFlH0ukfpc/P29ZsZW+7c1Xobm7vhHT2N3TQTr5Lc3Qeg/FrGjwTJuyKcfy5jsOiTQuVkU1B02LcKPGX5R0H4tXb0N/YrSQGrKO/vDp5xt1jHWkpP3y4MOnn7R1/Fs7G4UW5UeK3yHo8Gvnq8MyFZFNCNEngfdkU/kDzg7dOsXCUYMvMfmOzvci3dkv3UhpImrX9Mdo4kdumvsaITIOtIrSuNOenNpvx0F2owPP+ifkOztV0aORSHU0IOw6RzrXc1MOdTr+cdI0V0NUIqD0HsY0szhYxrJ0aKwG6n1zrPaGztnHtaM7sS5japOJ1jkS/jXGu6/yH5D3OQRMavE273NY+UdzsXvSmsh1KNZ+YdPh035m8QalGofn6dfIfRt4RyXcZ/wB2T3RiPjHJeRbCqnvEj5exXVpRrojAbB0t8g26NNM5aQ6yfy+LSigk9HIfRt4RyXTtqEbeA8l2+wIB3z+bsTuR0N0wwHN0n5Bt0aSRizsaknadFggTekPxdJ5gNLhvKuTG1W7hwHMPjO3m5D6NvCOQWqn7yU4/ZGJ75oO/yTTnXI+HaX85PYgzNjIcFHOfmG35yNHnmasjGpP5bBsGzRIIErI3xdJ5gNNxMZT5TbSfkA2D5dLj0beA8h9G3hGhmnbtDax5h8+oaPcS+UdQ2AbAO1+fSK3iFXY0Hz9oazpFbx+Qigfn7uvsO8sjUjUVJ6Bo0zYRjBRzD5zrOioikuTQAbSdPGANyw8Y/wCyOgfGceamlz6NvAeQzwAdYVIxx10+bQy3EhaQ8/ycw7WgVRVjp6xcL/WmGr6o5u2dve569hxl8TYChfwhflPc5uQZhOvjHyBzDa3d1Dox28hklcKg1kmg0lt7Jd4sCCxwGOGA1nu07vLu28RI2k4KO2fkFT0aCVzv3PPsH2R8uvtdiJrl/ojAc52Dv/Fo8shq7EknpOiREfdDFj0DZ2zq+PZpViFiUdoADwaGOyXrJPrHBfnPxDp037mUtzDYO0NXKI7hN6MITTpFNegSNQqDUAKDsTHZIfFTxm+0dXeHh5NyBOsvHxY6lHMOc06MKk46b1xKSNg1KO0PyPJ1dvCWbo1DtnUO7pNNeS70gQkKuoEDadZ+Lu8h9G3hHYmSZz4iqSe0MdJZ38t2JPd5ert4izdGods6h3dFkvpN4/VXV3TrPcp29BHDGFQbAKaXHo28B5D6NvCOxJiB8aRgO4MT8g7vII7eIu/R8vN3dBJfyVP1V1d0/N39BHBGFQbAKctx6NvAeQ+jbwjsTb2luhdlStBzsdvcA16CS/k/ir8rfN39BFBEETmH5Y934Nx6NvAeQ+jbwjsSzBQGOs8/b+HcejbwHkPo28I7IXHo28B5D6NvCOyFx6NvAeQ+jbwjshcejbwHkPo28I7IXHo28B5D6NvCOyFx6NvAeQ+jbwjshcejbwHkPo28I7IFWFVIodDPACbQn9U8x6OY9w46z6NvCOyLRyKChFCDqI0MsWNoyNTnU4YH5D38df8AoxAlmRSecgeHQEHD+CLOwVRtJoNC0UqsvQQfByF3YKg1k4Ad3T9si/XX59P2yL9dfn03oZFZa0qCCPi5C7sFUbSaDTeilVl6CD4Phr10ypXVvECvf0/bIv11+fT9si/XX59AykFSKgjkKtdxhgaEFlqPj0DxSBk5wQR3x8H764RT0sB8ulDeJ3KnwDT9sXvN82niXkdftAeGmlVII6P4CWWVquWP5fNoBFJWL6pxHc5u5oEdurn5mOB7R1Hu0PR8MljQDQx2o62Xn+iO7t7mHTpvXEpI2DUB2h+R0tlRiFY0I5xQ6/DyXv2PlHLL6U+avJBBvHqgladJJFfi0EkErI/ODT/66BL6LeH1lwPdGo9yna037aYMObaO2NY+DY/x/wDZ5bP0SeaOS89K/nHSH7TeceQknDRorNRJINv0R8rdyg6dD1tw26dgwHeGvu10rHaOQdpFB3zQaYqg7bfNXT+jP8b82lTbFh+iQfirX4tKK0kUg7anvaBbtBJHzjBvmPxdvTrbeQMu3nHQRs/Knwn7Z5QhbrIB9FtnaOsfGOjQLG+7N9VsD3Ofud74BSM9bPzA4Dttq7gqe1oeukpFsUYL+fu15bP7XyHkvfscsvpT5q8kXoh5zcoeNyrjUQaHQJdp1ic4wb5j8Xb0Bt5gW+qcGHc+UVHLY/x/9nls/RJ5o5Lz0r+cdIftN5x5HsbdqQqaMR9I83aG3nPRp1cWCDymOoD5Sdg0HVxBpfrNie5zdz4JjniV05iK6Pc2NTGMSmsgc4O0dBx6Tos8DUI1jYRzH8sNY0juYvJYauY7Qe1+f4L9s/AqNeix3H3sPT5Q7R293vjQSozNIfo0oe6dQ7hPRXQoW3IPqr8p1nwdHwbP7XyHkvfscsvpT5q8kXoh5zfBDKSGG3RUn+9i6fK/W292vb0Ajl3Zfqtge5sPcJ0sf4/+zy2fok80cl56V/OOkP2m846XM48pUJHbph8ehJOOkCAeOwDN2yK/Fq7n8BKkYpG1GA5q6x3606NLq2J8WgYeA9/DvfBftnkkiaUoqrXAV200L7vWQfWX5RrHxjp+CFUVJ0D3J6qLp8o9zZ3e9pNbK+8q0oe2Afl5LP7XyHkvfscsvpT5q8kXoh5zckaHUWA750/qsjJIOfEHt7R3O9oevhO59YYr39ndofgL1srNQUFSTQdFeWz9EnmjkvPSv5x0h+03nHS9Ua+rJ72PycltIupkU/F/AboOKxqD28T4CNLl6eKI6d8j5j8F+2eS59H8o5GeMdVOdo1Htr8oodD10dYvrDEfm7tNAAMdA846qHp8o9pdndpoOpirJ9Y4t39ncpyXX8XzV5LP7XyHkvfscsvpT5q8kXoh5zckP2h4eQgio0Lwjqpejye6vzU0LPFvRD6S4ju7R3fg2fok80cl56V/OOkP2m846FWFVI0khYHcrVTzrs72o9OgsbpqR18VjqFdh5hXEHv/AAyzkGYjxV2n5hznvY6STSGsjGp7Z03pVpPIakcw2D5e2afBftnkufR/KOUgioOnWR20avzhQD4PgXX8XzV5LP7XyHkvfscsvpT5q8kXoh5zckP2h4fglim5N9ZcO+NR8PToWRetiG1dfdXX3q6UOvks/RJ5o5Lz0r+cdIftN5x5OqmGI1MNYP5axt0JkTeh2MNXd5j2+5XQIkm9CPotiO5tHcNOjQC4tmU86kEfHQ+HTGYjtq3yA6ftNf4rfNp92sjntUHxn5NCttGsa8/lH5viOmAeSdj0k6Jc3tDMMQusL0nnPxDp2fBLevaz9T+Vp+3f6n8rSWX1jf3lpTdptrzn+AluvWt3ephu11ADXUc2n7d/qfytIbn1ve3DWm7Svd3jyT22/u760rrp3NP24fqfytP24fqfytHgMu/Vy1aU2Ac55uRJ/WdyiBabtdpNdY59P27/AFP5WiP67WhB8jm/jfDJmipJ9YYH8/droGlui0VdVKE9BNT8Q0CqKKBQck03rgG+5am7qqa/W0S2Mm9Qk1pTWa6qnlIIw0LGHcc7Vw+LV8WhMN4aczL8oI8Gni3ER/WH+ydMZ4u+3/l0+8u1A6AT4SNAZneQ9ug7wx+PTct4VRegeHae7/4MP//aAAgBAwIGPwD/AEW2nEnF122ScLSgNGGTeu7hCCQ8cTECKNsCskuLAhkidCG0jt77ILzMJwMZZ7y4Rydp3bZ7eMdoJpNJwZmt9k+Y7p3FZ/Wrcts3llPX0rgSJ8Aa7ppQrl/FmXD1GViILuKr204H1HoCr0xaKQJIox3SpDHsbecWcSWgm4XyRo2EbCqXF29WiRwcGjiCmWRSCGPVKwKOwIAGGkb5jfwW6MaKZHVATzAsRU9A0V0YFCKgjEEHUQdoOmZcJ8VZetzk90lGBwZGHkSxNQlJYz4yOMQddQSDmXCObgvAv3ltPSi3FsxIjlAqQDgUkWp3JFZakAE9jMsvoEAuL7MLuaU7SyS+rrU9CQrTmx59L6/aMusELyFRrO4pag6TSg0zHirii/ea8nkYohYmOCIklIIVOCRoMAAAWNXarszG34e4nuJ7z3dTsFZCS72RJ/nrcEn7vGssAwYeOgEgo9jnGUXsdzldzEskUsbBkkRxVWUjAgg/IcdJpsqtg3GeUh57MgeNKtB11rXmmVQU/wCMkeIUtVkdSHBoQcCCNYI2EdjOIeBJ5x+8MrvTPGu029yAajnCTpJvU1dYldYqVYAqRiNLrjTha3aX3fXs5NFFTYyyGvUvT+gZjSCQ6hSFzvhWk0i4N4vunk93l1L4rGrGwlc4yoMT6u5NZ4x5JrNGN7fWWC7tJ0ltZUV0dGDI6MAVZWBIZWBBBBIINRhovvByG03eF87lYyhR4sF8QXkXoW5Aaddm/wBcoAUKOxmVcZ8PsGngJWWJiQlxA9BLA9K0DgeK1CUcJIAWQaZfxbwtd9ZYzCjoaCSCUAb8MygndkQnHWGBDoWRlJvsnzixjucruYmjlikUMkiOKMrKcCCD+R0Oe5Eklz7u7uWkUhqz2rtUi2nPf6mU/wA4o3WpIp3tLT3ecfXrNwRK+7bXDEk2DsfJY6/VHJqR/QMd8DcL0zvhDNmVstzC3okq0Yxvg8M8ZrQmNwsi40YDdJ3WNc74Sz+36vNrC4aKQbDTyXQ7UkUq6N9JGU7exiZxlhafIrgqt5aFqJPGDgRrCTx1JikpUElWrG7qct4s4UzBbjKLlag6nRx5cUq1JSWM+K6HUcQSpVjmOQ59l8d1k93EY5YpBVXRtYI2EYFWFGVgGUhgCDf5cslzwBeSn1a4OLQsan1a4IwEiivVvgsyDeFHWRF0y/3Ze8TMa8MOwjsruRv2NiaLBM51WpOCOTS3JAJEH81B72eH7XezfLIwl6FGMtnXxJsNbWzHxiASYXLMd2EDsaLu337nhS6ZReWe9g6jASxVO6lxGPJbAOtY38UhlyzinhfMUuslu495HXWNjI6nFJENVdGAZWBBGmZcNcSZdHd5LdxlJI3GBB1EEYq6mjI6kMjAMpBAOm6OsuuC7t29Tuqd31eegos6DtLKo6xAPHSPS390PvUulkySdPV7O6mNVVXG56ndFsDC4O5DI3kfzT1jKmPMcjhjY8N3VbiwkNTW3dj90SSavbtWJ6mrBVkIAkA7G0kMl1wTeSD1u1B1ah6xACQFnQaxULMoCORRHjy3iThzMY7vJbuISRSoahlOwjWrKaq6MAyOCrAMCBmXCvFOXJdZNdJuuh1g61kjbWkiNRkdaMrAEaNlF6zXHD1zvPZXVKCaIHFHpgs8VQsqdKuviOvJd+7f3nXTniDJYjcZJmBDSOTGoDZfcFQWKzRjq4ZW8UMIhKQI0Y9jLjiaPJ7g8PRTLC9z1bdQJXqVj6wjcLkAncBLACpAGgyzN3kuPd9eyD1iEVZrdzQetQD66j+djGEyCnlqjCwzjJ72O5yu6iWWKWMhkkjcBlZSNYIPz46Zxwndoi5lumWzmYYwXSA9U9aEhGxjlAxMTuB41CL7K8xt2hzC2meKWNhRkkjYo6MNhVgQRzjsZaZFw5lU97m87bqRRKXdjz0GpRrZmoqjFiAK6WnEPvfmW7zHBly6Jj1EZwIFxKtDOw1NHHuxA1BeZTpZZblVjDbZdDm9oscUSLHGiiOeiqigKoHMAByZr7oc5uS0Aje7y8sfIof6zbrXEht4ToowXdnY+UOSXO7O33Mvzy1S6qNXrCkxXAHSSqSt0y1207FtZcPwCDJIHAub2QHqYAcd0UoZZiMVhQ1NQXaNCXH7v4XsN7M5EAuLyUBricild56eJHUVWFKRrrozVY6R+2rXzJ+T3cZ0hoqZtBG+z7udxBL/AOnK3J7ts9A+8hu7qAnomjikHeMB7/YoZvmplsvd9bSUluAKPcMDjBa7wILf7yUgpEMKM5C6WHDfC+VRWeS2ybscUYoBzsxNWd2OLu5Z3YlmYk10a5vLmOK3UgFnYKoLEKoLMQBViFGOJIAxPJH7atfMn5Pd9lNqpM0+c2a9odehZu0qgsegcnu9y0kddLmc0oH6MUG43xzL2JOaZuJLf3f2UoFxKKhrhxQ+rQH6xFOtkH80hFKuyjSwyTJLCK1ym1iWOKKNQqIiigVQPjOsmpJJJOl/xVxbmS22U264k4vI58mKJNckrnBUHSSQoZhwXauXseCIc8szb2Stg1LmMLNckYSzU1DyIgSsYrvO+kftq18yfkuePLy3P7lyKJtxjgGvJ1KRqPrdXEZZGofEbqifKHJw7wlAwMeUZeWkocRNdsHZSNlIY4GFcfH5uxFtw7YF4cnhAlvbkCoggrTCuBmlNUhQ+U1WI3I3IyrhfhuwS2yWziEcaLzDEsx1s7sS8jtVndmZiSSdMy4s4qzBbfKLVKk62dj5EUS63lkPiog1nE0UEh80zNmt+H7dmWzsw1UgjP0m2PPIADLIRifETdjVVHBHtez/ABEfJH7atfMn0t+HOFbIsKgz3DAiC2iJoZJn2bdxBV5CN1ATWmVcGcORn1S3BaSRgOsnmanWzyU+k5GA1IgWNfFQaZ5xdn8/V5TYW7SucKtTBY0qQDJI5WONa+M7KNunEHF+bsDmOYXUkzgal3z4qL+jGu6i/oqOw+W5Dktm9xm15OkMMa+U8jsFVRsFScSSABUkgAnSx4as9yTOJKS3twBjPcFRvUOvqo/IhU6lG8Rvu5N7muaXcdvlttE0ssjkKkcaKWd2Y4BVUEk8w0K2UkkPA1g7LZwHDf2NdTL/AL2UeSDXqY6IPGMjPpwR7Xs/xEfJb8LcUTXKZSl5FcEQOqO5iDgIWZHojb53t0BsBRhr0g4f4QyOCwymPHcjGLNteRyS8jna8jMx1VoBpNdXUyR20aFndiFVVUVZmY0CqACSSQAMTovBnCFy3/6FYTVMgJHr1wtR1tMPuI6kQKfLJMzCpjCdh7n3x59a/fydZBlqsPJQVS4uh0ud63jOBCrMcQ6nkf3O8L3v9Qt2VszkQ4SSijR2lRrWHB5htl3YzQxODpbZRkOV3F5mkxokUMbSSMehUBPbNKDWcNMi4y951+ljHaXEVxHYwsJJ3eJxIguJVJiiXeUFkjMrsKqWibla84y4gjhuSpMdsn3l1NhgI4VO9Q6usfciBpvSLpcZBlUb5VwJvfs6tWW5ANVa6kWgI1EQJ90rAFjKyqw7D8O8FZdvKbucdbIBXqYE8eaU4EeJGG3a0DOVWtWGmV5Dk9ssOVWVvHDCg1LHGoRBzmgAqTiTUkknTM8/idDxFcn1exjOO9cOp+8K1xSBA0r7CVWMkGQadVbQXN/n17MTuorzTTSyMWY0UM7uzEk4Ekkk6W2be82/OT5S1G9Wi3ZL1wRWjHxorfZ5XWyDENGhx0/d3BXDsFoCAHlpvzy6sZZ3rI9SK7pbcU+SqjDlmzvg/NDZ5tLmEFuZVVWdY5FlL7m+GCsdwAOBvKK7pBoRcZlm1/NdZjK288srtJI552dyWY9JJ7E5370cxtx69mTG1tCQarbQtWZ1J2TTqF/+Prox5P3lxbmv7n92uVAwWcSlZbu5xBnuFQfdwCdwFR5Gd+riiJgxOnqnBnD0UFwygSXD/eXMus/eTt45FSTuLuxj6KAchzbjTiK3sLSh3Q7VkkI+jFEoaWVuhEam2g04c4Y92uSCzya4zK2hku7pVe4kjkmRHEcALRQggmjO0rUxCxtyR+2rXzJ+xOTcO5VFv5lf3UVvEvPJM6xrXmFWFTsFTpw/wplSUy/L7SKBOciNQpY87OQWY7WJPK+c8Z8Q21hYgHd6xvHkI1rFEtZJWxHixoxx1U0ucp90uU+qW2K+vXSq8xx8qG38aOOoxDTdYaHGNGGk+dcS5zc32ay+VLPI0jkVJABYmiip3VWiqMFAGnBHtez/ABEfJH7atfMn7Epn1zAr2GR2klxjiOvk+5gFPrDfeVTsMVddOR864wz+2y/LV+lK9Cx+rGgq8j8yRqzHYNLjKPdHlHUxYj1+7UFzhrgtsVUg4q87PUa4RpPnfFOd3N/mshxkmdnanMtTRVGoIoCqMAAOXgj2vZ/iI+SP21a+ZP2J4w943GGa22XWl9mXVCadwm/DaxqFVAfGc9dNMoRAzMwoFJGlxlPuiyfebEev3a0GvXBa6zUYq87Cn0oNJc84uz25zDNXFOsmctQbFRcFjQbERVQbAPg8Ee17P8RHyR+2rXzJ+xNnZ3F5K9nbhhEjOxSMOxdxGpJVAzEs26BvMSTU/D4I9r2f4iPkj9tWvmT9kOCPa9n+Ij5I/bVr5k/ZDgj2vZ/iI+SP21a+ZP2Q4I9r2f4iPkj9tWvmT9kOCPa9n+Ij5I/bVr5k/ZDgj2vZ/iI+SP21a+ZP2Q4I9r2f4iPkj9tWvmT9kLa9s5mju4ZFdHU0ZHQhlZTsKsAQdhGkXCnFc8cHvFto+hEvo0GM0QwAmUYzQr0yxjq95Yo/bVr5k/ZGyzbKb2S2zO2lWSKWNirxupqrKwxBBGGicO8QskHvEss0tGlUDdS7iVJlNxCBgrAleviwCsQ8fiNux/6MZ7nh7hfMb+3i8tre2mmVNvjNGjBcMcSNJIZo2SZGIZWBBBGBBBxBBwIOI/gocvyqwmub+Q0SOJGkkY8yogLMe0DolpxFkV5YXTLUJcQyQMRzhZFUkdIFOS2y3KrGa5zGZt2OKJGkkdvqoiAsx6ACdP8ALTP/AO77v/paf5aZ/wD3fd/9LRLDiPI7ywvmjDiO5hkgcoSQHCSKrFSVYBgKEqRWoPJDl+VWE11fyGiRxI0kjHmVEBZj2gdEtOIsivLC6YVCXEMkDkc4WRVJHSBT4d0OGeGr/MTBu9Z6tbyz9Xv13d/qkbd3t1t3epXdNNR0/wAtM/8A7vu/+lp/lpn/APd93/0tLizvLd4ruF2R0dSro6kqyMrAFWVgQykAgggivJb3tl7vM8ms5kV45EsblkdGAZXRliKsrAgqwJBBBBppJlmfZTc2WZIAWinieGRQwqpKSKrAMCCCRiDUYfBDcO8FZrfIfpQWs8q/rIhUd06K8Puzv1Uj+kMMR7ollQjtEDTeb3bXRHRNaN8S3BOjvmXuzzpY11strLKg/jxK6/Ho1veW0kVwutXUqw7asAR3v4Dh3IMhskt8rtrSJURQB9AFmanlO7VZ3PjOxLMSSdJZ89ygW3EJHi31sFjuAaGnWGhSdR9WZWIGCMhx0uczy+2Od8KqSfWLVGMsa89xbeM8dBiXQyxD6Trq+HFbWsDy3MjBVRFLMzHABVAJJJwAAqdLbN+P52yHIGowiKhr6ReiI+Lb155quP8AcEY6eo8GcPxW8rLSSdvvLmbb97O3jkVx3BuxqfJRdONrnM7FJbqwgW4t3IG/DKsiDeRta7ylkcDBkYg7Kae7H2mvmPy5D/h+D8VecnFnFYskOfTZq1sZSAXEEUEEixqdaqXmdnAI3yE3q7i0kyfivIbXMMsb+jnjVwD9ZSRVGGx0KsNhGlxmfupz42lxiRZXhZ4SfqxXABlj5gJVmqTjIo0OW8a8NXNjKWIR2XehlpXGKdN6KQYV8RyRtAOHwfet9jLvDe8vvI9vZh+Lm5Pdp7Ay/wDCRacS/wBksvwsfIkUSFpWIAABJJJoAAMSScABiTpaZ97yb2TJcmkAZbZVBvpFOrfDVS2BGIDrJLsaJNekRyHgqzN4gxublRc3BOst1s28U1aoxGo2KNHt8994eWR3EeBiik9YkXmBithK69oqNCsN/mdwBtjs3AP/AOVoj3wNKMM5Qc5tFp/qzsfi0WKPjlLSc7LqGe3HdkePqh3ZNBJc2eT59lDigekF2lDiN1xv7p2jdII0uL/3dZjJkubmpEMhaezY/V8YmeGp+kryKo1RHR+H+NMne1uyCY38qGdAadZDKPFkXnp4yE7rqrYfCyz+zx+YOW4zKGz/AHPxU9T61aoqrIx23Fv4sc1TiXHVzHbLTDSa7zbKvXeGgcL61DSQgY064U37c8/WqEqaJI/KABjpbZrnUJyLhZ6HrrlD18q4YwWxKuQRqeUxIRipfVoj8N5MJs83aPe3G7LcthQ7rboWFTtSFUB+lvHHl95vs/8A5sfJ7sfaa+Y/LkP+H4PxV5ycQ/4gn/C2fLcZVneWW95lkoo8U0ayxsP0kcFT3Rpc5l7uczbJc0ap9Xk3prNjroKkzQV51aVFwCxAaPHxfw1LHYb1FuovvbV+bdnQbqk1wSTq5OdBy+9b7GXeG85feR7ezD8XLye7T2Bl/wCEi04l/sll+Fj5Ms97HGVgsvEd4glsIpFqLWBhVLgqR+0TL48bf0URUqQ7turnOfEz5pcFltbRCBLcOoFcTXq4kqOslIIWoADOyo06Z1nr2uQMTu2VqzRW4WuAkAO9Ow+tMz4+SEHij4EebcLZ9d5fmKkePBI0ZNNjbpAdedWBUjAgjTL+Cfet1MGczsI7e/QCOKaQmix3KDxYpHOCSJuxMxCskZozXvCvFVkJLaQExSgDrbeWlFmhcjxXXb9F1qjhkYg51wVnwBu7STxZFBCTQsN6KZK/RkQg0xKtvIfGU/Byz+zx+YPgPHIgaNgQQRUEHAgg4EEYEHS6zfhGmQcSvVj1SVs5WNT95bigjJP0oCgGLGNzpNkOZWlnZ5PE3jX5mWSBk54Y0PXyMRqR44qEUdkwOlvmMdh+9eKkx9culVijc9vDjHBTYw35RqMpGHwfeb7P/wCbHye7H2mvmPy5D/h+D8VecnEP+IJ/wtn8Ga0vLdJbWRSro6hkZTgVZWBDA7QQQdLnMeE97h/PnJb7ld+0djXyrYlRHU0/mHiUa9xjpPc51kLXeQIcL203prfd55KKJIOnrkQVwVm16e9f7GXeG95feR7ezD8XLye7T2Bl/wCEi04l/sll+Fj04I4UuP2W+zO3ik9E0i9b3erDaRwQxhIUUKqgUAUCgAGwAYAacW5lPMxy2zuXs7VK+KkFs7RgqNnWuHmb9KQjUAB8Ph3NM3mMudWbPZTucTI1vu7kjHWXeBomkY4tIWO3TgHjqKMC8EstjKdroym4gB+wVn/X6Pg5Z/Z4/MHJkeeZfkEWYXV7fiDdkkaNEURvIzVVWYsQu6owArvGtN022Xi//dPFT0Hqd0yqXY7LebCOeuxfEmOsxAY/BlubqdIraNSzO5CqqjElmJAAAxJJoNLjKuB4hn+frUF0bcsoz0z0JmI10gBQ6uuU6cM8dXOWraXN6ku/ErF1VoZ5IGKsQDusY94A4qG3SSRU6e832f8A82Pk92PtNfMflyH/AA/B+KvOTiH/ABBP+Fs+TN8yhRWmt7WWVQa0JjjZwDTGhIoaY00ZPeDklrmmUSPUtbqLa4iB2JSsUqrsRwjHbNpEOE+JYjmhWrWk1IbpecdSxq4G14TJH+nylWAKkUIO3S8HD+RWdiLmTrJfV4Y4eskP05OrVd9v0mqeX3ke3sw/Fy8nu09gZf8AhItOJf7JZfhY9Pdjd3LhYf3vDGScADMTEpJ+045ONckvUZbm1zS6jO9rIWZ91ukMtGB2gg7f4A3lzGVjv83up4q7Y1WG33h0dZBIO5pwRljOPWps6MqjaUhtpkc05gZ4we2Pg5Z/Z4/MHJwN7Zb8NLoCDjpa5VnExz3hVKDqbl26+JcMILk7zqAMFSUSxgYKqa9Ik4czoQ57u1eyuKRXKmlTuqSVmUfXhZwB5W6cNHllcLEoJJJoABiSScAAMSTq0ucr4WccQcSLVd2BwLSNhUfeXIDK9D9GASVxDOh0ccT54yZNvVSyt6xWq41FYwSZWGx5mkYbCBhycA//ADPx9zye832f/wA2Pk92PtNfMflyH/D8H4q85OIf8QT/AIWz5OJ/Z9z/AOy/JHPbytHOhBVlJVlI1EEUII2EY6W2XcRyjiDh9KDduWIukX/h3YDO1P8AjrNzArpb2mX54LDiFwB6neFYZSx+jE5Jinx1CNy5GJRdXwfeR7ezD8XLye7T2Bl/4SLTiX+yWX4WPS3vLSUx3UUiujDWrqQysOkEAjp0yjiizmQZqEEV7CDjBdIo6xSNYR/5yI7Y3X6QYCT3q8B2DXGbrEq39rGKyTJGu6lzCoxeREAjljFWdFRkBZWDMjqQ4NCDgQRrBGwj4UNjllu8HDUMi+t3rKerhTWVQnCSdl/m4ga1IZ92MFhlPDeSW4gyewt0hiX6qRqACx2sabzscWYljiTobTI7oS8LZLG1tA6mqSylq3M67CruqxowwdIVcYN8HLP7PH5g5OBvbLfhpeWK4tpnjuEYMrKSrKwxBVhQgg4gg1GgyfO+O84u8q3adTNeXEkZHMyPIVb+MD8DgH/5n4+55Peb7P8A+bHye7H2mvmPy5D/AIfg/FXnJxD/AIgn/C2fJxP7Puf/AGX+BUa9LewTNv3tw6lB6relpQq80M9euioPJXeaJf8AdHS2sM1vf3FxC9B1N2yiFmOyK6wiauoCXqXJwCHRJI3DRsAQQagg4ggjAgjUeT3ke3sw/Fy8nu09gZf+Ei04l/sll+Fj5F4g4YnDW8gCXNtIT1NzEDXdcDyXWpMcq+PGSaVVnRoI8nzVbTiUqOssLhlSdWpj1VaLcJXU8VTShdIyd3SfMs0ydrHiJ61u7MiKR255UKtDMa62eMyECgkA0ll4N43sL2GtVS6jktpKc29GLhGPSerHQND1PC9tcqDrivLXwSyRn4tBGeBRGDte8sgB3rgnvA6IM4vsoy632lp3mcdpIY2UntyKOnSC943zy6zu5Ug9So9VtiRsYI7zuP8A7yA7VINNENxNl+ScK2aUUfd28KAfRVRugs2xVBd21AsdMw4H91zS2/DUqmO4vWBSa5Q4NHCpo0MDDB2aksqndKxoWD/Btrb/APlZbq41Wv7wpXdAFaepmlac+n+VB/vEf9lpkWRLwYcs9SvDPv8ArXX79Y2j3d3qIt3yq1qdVKbf4DIOAz7vjfGx677713qt/rZ5Z/5v1aTd3es3fLNaVwrQf5UH+8R/2WnE/BI93JtDmNv1XXevdZ1fjK29ueqpveTSm+uvXycL8avl5u1y66ExhD9WZKKw3d/dfd1691u1p/lVJ/eA/wCz0/yqk/vAf9npl/FcXD5y1YMvjteqM3X725LNJv74jipXrabu6abta40GmY8Kngk5kZ8we6631rqN3fihi3Nz1eWtOq3t7eFd6lMKn/Kg/wB4j/stM0yz/wDlpT1m3ki3v3hXd6xGTep6mK0rWlRXnHw4YOHOIWlyNSK2dzWa2IwqEViHhrTEwPGTtrpLZ5HwDa2fEDxlfWHuWnjjYim+kBhjqRrUPKyg03g4qDcXl3M0l1NIzu7GrM7EszMdpYkknaTycMcMt7s5Jmy7L7e26z14L1nUQpFv7vqjbu9u727vNStKnXpmfHMeTGwW4hgTqTL1xXqYljrvhI6727Wm4KVpjr5UlicrKpBDAkEEYggjEEHEEYjSC0h4o/eWWR0Ahv09YoBsExK3AFMAOuoBSgw0SPif3axu/wBJ7W6KDuRSxP3jN3dB61wdnyN+gto475uU8Gn3fCnEJPTFZjwXp8Gh/cfu5v55NnX3EUA/9NLg+Dt6SwcOZXluTwtWjqjXM4B1ePMeqqOfqBj3tDmnF/Ed3mN7jRppGcJXZGldyNf0Y1Vej/wYf//aAAgBAQEGPwD/AJLbfWenaeNvXbNQU8C7NFtfcdb4bZxyjGevuMgiDkScit4qq9podcnlhIxwzSgla4aSLGg2FhWuq8pXvBQYprHCrKviiVy9Amys7qsyuCqxqoiudJVVVOeE9naHF3biWBboxx0mP9YzIVazX2aji9StkugT6BjsVeVBu6msLUp1Ob0+YxF5QmR6fyVyX1THjEy/XWQsDW5zh5joxE+s6ppzim1bzP6BWEIkiCV/0EIhUeNvzbS6f1lcFp9rb2BcQzXlfJfHtsN1zXoGJkFtXFE3zYVvkUmYlfCkNcwgRpKKJzTBG5qucqqqqqqqryqqviqqq+Kqq9pAcbx68yAsQSnlCpKmfakjATlVNIZAjyHBEiIv0nIieHYgTDIEwSPEURWOGURRuVhBkG9EewjHoqKioioqcL2xjb2pMjk41meLTGniyBq8kC0gvc1LCgvoCEGO2x+4jtUMqMRekjF5RWvax7cY3HhqigT5DfqXO8S94WRMwnOIEeOS5x+SRzBPPG4kDkwpCsakmEcROGuVzG/NmT0NgchK7Adc63xuhjue5RR4VlRJmktwxr9FrzWuUnVyp4uRE59icUGPDkDiEvrqqpmSjIrhRn2k4EFsgrUVqqMLj9Tk5TwTtjWpNU49Bp6ajgRB2loOIANzl96OMMVllWTzRt86yu7c7VI973OaFqtCJGBGMbbDY+q6yjwz1KUMU0uFaiBGq6rakYAuVxjNThGNn1u9g0bXWxOp4H8BOqx3I8F9hmZUdljWV4xazaTIKC4ikhWdRbVx3x5kGbFKjXiMAzFRf2KniiqiovaHCy2zIDSW3yVmI7LCUj/cqCWkgjMW2AgmtcqExebNIOUqe2slyV6XEYJEGcBBmCYbChMJ7SCKIjUeMgyMVWPG9ioqKiqiovKfNmuN/QIJlxvauEhxK5ntRrgCzfAimG0R3N+kF9hiVhC8hHf6z3IytVeh3DCDe4ZBua9j2OVr2PaqOa9jmqjmua5OUVPFF7VOkNr2Uer9RmD0Ao7JEo/QLbuPUsVgnZRWKZ3LstiQxI+4htVXEcj5gUQLiijdpe69M1MKv9SGJVae9QQoCFH2/j1bHVBY/ZlXywtzGujjRlTOK5EKxEhyHeV5BIs+nuIEyqtqqbKrbSrsYpoVhXWME74s2BOhyWDkRJkSSJwyiI1rxvarXIioqdienTYFwsna2iqiKDHpM0yvm5ZqQRAV9HK6nNb583CDFFVSPa5YiwiOV5Hld82ZdpLYg3gr78LJlDkMULDWmHZbXNISgyqqa94kJJrJJFQoVexsuIQ0d7kYVy9si09tinWuvqUqnrbSM0z6LLMfOUrKvKMbmlGJZtPaMEqtVWtKEjXhK1hhvY2hzTDL2zxjLMXtYV5j2QU0ssG0p7auOyTCnwZQXNIE4DMRUVPBfYqKiqnZmBZ8atxr1JYdVMLkdINRQ67YVTEawJc4w+Ny1rHo5W/WdczlYRXoQfMd7fL7XHqP9PNHHib1qITpec4ZXiHHDuCqggT/AG6CNiMEzY1dGEjRuXj62A1AvXz2BV+DbkxAZ4uT67yLrs6Ccp4DLqqVSVuVYddDcNTx411VFkQzcsUkd70I1EINqpgu4deWKWeH5/j0HIKg7ulsmM2SxWzKuxC1z0jW1NPGWJLDyqikhezlePmw+F5UyPQ59j7JlhrDZAYbTWmIXhht640npVhrHFbpwRjsYKvRpWtYUfRICEjMn1BtzHT45mWLyvKOF3UWutq8qudW5Bj9h0DFbY/cR2+bGkMREc1Va9rCMeNuObB1/kVnieZ4jaxrrHchp5DothWWMVyqMoiJy0giMc4ZRER4The4ZGuG9zVTH8lfW4v6h8LrAuzrDxPbHiZLBCoo339wwJHqQ1LMO9qTIqK4tXKIg39QSRzF7ZJ6pfTbjjWbUhRzXG0tc0kXhdlRIw1JNyvG6+Ozh+fxwMUkuMJvVdNar2NdO8JVh6P9i2rgYfs+yPbaqkT3uaPH9mtE1lli7Vez/Z4ecwYyKFrnNYy0iMGxilmvX5tWnsvcsX27ikaXI1fspIvWepmERSkxzIvJYsqywu5MiJICnUSKXiQBOtrhlyjU+1sam4pm+Iz3wLWrlojhkaqISJZ1kxnMa0prSK5p4koLnBkAe17FVF7Yxs/WOS2GJZvh9kG1orytIjSxzj5aUEgJGvjzq6dHe4MmMZhASQEeMjHMc5q+Y76vxbd+HQIrNma8YdUajlVkZuY4myQR8mdh9tJVPBVIaukP92O53ITyO1l6y/SVUyqzOqKcmYbP19iwngm2EytO20ds/AY8JGlDk9dJB7xZQgpzL496AiSGFZJxrO5kiMPZ2KIDDNvVAfLEsfMa6KPi+jxmDE0NTmUHosY6Mb5QXlLGa5zo71+beuMldiu9cNgSl1vsEgFYw7eXyVwvLyRxvkzsSs5LlVjukhqyQ9ZAEVHHDIyfWWy8ascRzjD7Q9Rf0NoJGSIkoPDmFERjnx5sCaB7DxpIXkjyo5GFE943tcuL7a1PksvFs2xKc2ZXWEZeuPJA76E2ot4T193taO2iq4EuKZHCOF6tVPYqCzKjHGx3Y+MJDqtqa894Up8avTBcorGrcZfPnYlfoF5YEleXN6XgKvnBJ3U/qZ9K9TDZrrd9rGw31V6WjSYFPWBj28x5YG6cKFLJHghlYveH98tK8X+M8BZSxGuWUVjfmyt1dIzPGh7Ht6Wfkddgv1xCdlUjH6x4BTrz6jYZ1gKpAaSNnvDxtE57ulrldynZ2UYeGsxv1F4TWm+5WTlaOLDzCuAhZH3Ay+SiJzXzCvVYE1/L62U7q8QEON9/hWZ0dljWWYrbTqLIsft4xIdnUW9ZIfFnQJsYiI4R45xq1fai+1FVFRe2F7epjTpOMtlDoNmY1FIqMyvXtpICy+rlApBhLZQGsbOrnPVGjsIoVdyzra6iyvGrKLc47k1PW39DbwStPCtKa4hhsKywiGYqtLGmQpDCMcngrXIvzZc59svLaLCMNx+M+Xb5FkVgCurog2tVWjQhnI6RLOrekIBI85yKjBsc9URbnXPozhSsOxxVPAmbryKCNMwuBKwoDEwjHJbCx8Vhl56gzZrS2Lmqjmghkbz2u8ny2+uMnyS705sifcX9/ZTLe4tJx7bEXml2FlPMeZLkFcvKvI9zl7sS9ZWFVYok8lhXa73KOGByJYtkgezBMzlIJnlMkRXRX1Es716ioWvYn9xee0TBLmx99yLQ2WWOAdBUT3pmHTwiyLDCFcir1x44J8qvAvCcCrkb49PK/NQ7zYlg6+zu8iSS4Jquikg+9OVmC7yfezKRCCx/GY8n6MiyktUbelzAskHRAuXI9rZC6Ni9ZLkFwzWdEaTFwjD4xHGaJ0OucV31neLFL5Z7OV5kw6fRRzBIwTOx/gjsP7UxDu9TGDma15Z2oMwuK5HMQifXeI1pMwoF6VRfZdUMfxTxT2p493qdwJX8xrjDtfZeMa/6B8bu7+mK9v8A9weVsRf/AAp81Ow3Ekqs49ReS1ynx3DSGU1XhlfJG5I2X56kUozghud4wq9rxybBycoowI4qZBszauW22a5vk0t0y3vbg/mmIvKoGJEANo4lbVwRcDjRIwxRowmoMTGMREQVbS1thb2J2SCBr6uHInzTDiRjTJZBRYgynIyLDjkKRUaqMGxzl4aiqnY/wR2H9qYh3eovL7UrBQ6LSezJa9a8IaS7ELaPAiN8U5JNnmEFie1XvRE8e71G5O1jvcanV2LUJycfQSXkOWPsIjFdx/ecHGDKif1IvzS3FMNdW5J6is4qzvwzHTqOVX4bWFUkb7+ZdGa7qWGAzXJXwncLYSRqi8BGV3bIM5znILTKsvyq0l3WRZDdSiTbO2tJpFLIly5BVVznOcvDWpwwbERrUa1qImPal0/jEvKMwyE6NYIfIa2nrhub7/f5DZua6PT0NWJ3XIkF8EThjEeV7Bu3fahZEzve11ojZsfMNqTYSMJFbIwi4JLxvBYx0ebHsYYViI9yKkuwcxCSHI1BAD2P8Edh/amId1b6f6ayG3ON+28VLOELofIg6zxKfFt7ucZUcr4a3ORAgQQdTeJAPfEavIncdtlbgsBFDI3JsUcCoaQTmMPjGtYcmqizgkc1PMafJby2C7p5bzGTx55RPmez2TkDYlzmty6RQ6swQknyZOX5c6P5jFO0TveQY1Qje2TaSmoiCD0Ca7z5Edj8t2ts7IZmT5xmtse3vLaY7++UiNHHhQo6L5MCpq4gxxocUSNDFiiYIbWsYiJi+oNS49IyPMsql+TGAzkUCrgB4fZX97PVrhVdDTxuSyZBPBrURrUcRzGODieLCj5BsXIQRJez9mSIjRWuWXAmK9IMFH9ZarEqchXsgQWu4a3kpVJIIUjt7fBvZ/4JvO4/wR2H9qYh2sdmbavBheo5MfEMNgGA/LM9vxB6wUeN1z3o8iq9zPeZb0bEgid5hntTpR2W7t2VIElxkJhxaikhkK+oxHFoDisosUpWl+mlfVRyu6nqiPkySFkE5KV6rgWm9ewFsMu2DkcHHqoatKsaGkh6kn3Fk8LCPj09FWiNNmF6V8mKAj1T6PbXOm8NG9uN64xOoxeuKZGpJnLXxmtm20zoRGOn3Fg4suQqIiOMZyoic/M+UbAzi5iY9h+GUVnkmSXc5yti1lPURSzJ0oiMa4hFYAS9I2NcQj1RjGuc5EW+2fcrMrMMrFPj2rMOOdXhxXCo0oj4iGCx7oy5BePX3uyM3nzJD0G1yhCFraLEcUp7DIcnye3r6HH6KqjEmWVxc2soUKurYEUSOIeVMlmYNjUTxc7swl7HrbnfefwoU3aGWR0ZJZWNREkxMAxuY5vUzHaArv8AGKzpWymo47/8NsYYO29vg3s/8E3ndY7Z1TCxiXl83C77CoxcrrplrXVsa/PWSD2ceDEsa1D2MR1WzyUM4gPpL1jenh2n7E3Lnl/n+XWCNG+zvJSPHDisREFX09bGZHqqOrDx9CLDAADVVVRnKqqwqqqgzLO0spceBXV1fGNMnz50srARIcKJHYSRKlSTkawY2Nc973IiIqr2Ju3clXHX1CbBpmRo1McYju1Ph07ypLsdaXkjPvfdKMb7Yw1/2djWwxrw2Q8/zPWeivXtsrYFYlRl+8pUIydMuzK0NphuAnVGoqirY6huJrUc5jzGhN5R4SN7getPa9E1b/IQTIOh6izjvaWmx0rTQLfY6xztb0Tcja4kSrerUVtehZDFcyWF7e1nmWwcsx3CcUpgukWmR5TcQKOmgia1zuZFhYnjxmPejVRrerqevg1FXw7Z9pT0sY/LzuRl2PX2G3W3ckiyaXFK+tvq6TUWR8Ox6WIV7kE33SWRopM4dfHCREe0cpip3jpdKa6s7msFJHHuc5tkfSYBjjXPY0pbjKZg/clNHY/rWJFSVYEYiqKORU47V+wstPD21v8AaDluaToHl47g5JEdo5UTXtNLR740j6TxutpKe/lE5WjbFGQgnfM+yt5ZJ5EhMQoyfd+nMdgX5JmFk9tdiuPg6iMI/wCsbmQJDKPqeKK0peFQa9sr2Dmdoe7y3Nsht8pyS2kcIWfdXk49jYSVY1EYJhJMh3QNiIwbOGtRGoiJi+vZgZYtbY0xua7at46vD7phlVKAx1PGloxzBW2V2JRV8dEXzGMKWQiObHfx73aWGM6/1/hFHGjLLsZldjeLYvj1PFFDhhdJlEiVtVWV8QLBDRXMGxjUan7E7WeH+lnHx7nzACniOz2+ZPqNXVckRfLcWvjsWHkOao3odwoVgQ3IrXjkmaqt7Lku8tlXuYvCYhamgUrKzEMda9S9IsfxStbGpK1WCKrFM0Kyit480pHePfCwXdGKCzXD6nXWW5kLHZc6fCrpl3STsfBXLaNrpMQ1hAE2yI58Zz0CZ3ShEexFY6uxnEMfpcWxyoAkWqoMdq4NLS1kZqq5I8CsrQRoUQPU5V6RsanKqvtX5pwX0pY1ZOdQaxix8+2KGOcbo8zPckgPHjFbLGxXPafF8RlPkJyqIq3SoreRovd92NPYku6PU9tsocw2XkNgObj2u8HVsY4MPwuXZEay9zCTiVdIcaTGghixFnT5TGz16E7fW+7dj2t9XR5L5NNhdaq0uBY657BC4psVgvZXjOgwtask6HmE45IZ68r3MxDR+tckz+2a4fvx6uIgaOkERzGJKyHI574tDQxeXpw+VIEjvY3qXhO2y9qeqDOnZlm2N6xznJaTXevZUysw6luafGLG0rTXuVHDEvcnJGkxmq4EYNdHa9vCkkDXx7H+COw/tTEPmnNtlZbK9yxfAMUyDMcglIiOeGnxurlW9g4TOU8w3usRyMYni96oieK9tibdy0yGyPY2YXuXWiMRGhjmubA0scCMxPAcOtjvZHA3/QCJqfs7w4VpLXGS7BvnkA2WlLCX6qphSFe0UzIr+W6NRY5Aco3cHmyACVWqiOVfDtV5h6wcwXLrJEBL/wDSTX0+XXYzHc4TXrDynNGNiXdw8RH9JA1iQRNezwkmY7jtAwjV+FYzgOJVjUSFj+KU8KlrRv8ALGN8kgIQRJJnHaJvmyC9ZzOTqe9zvHtvb4N7P/BN53H+COw/tTEPmk+v6yceJkG98wqcJakZyMKuJ0qplOXPcRfFIslldEgGani8c9W/3Vd3R8H0xrvJ9iZMdGvfAx2vfIDAjud0e+3NmVQ1VFXNd4OkzDgA1fa9O1bmPrGzJLmU1RSW6g1xPNGqRuYZHpGyzPOgU+wGUKdJo1UKL0OXlk56e2Bg2qMGxnX+JVrEbFo8XqotXEV/+nJlKBiHsJ5lVXFkSHlOVyq573Kqr372+Dez/wAE3ncf4I7D+1MQ+adM+mjTGJZPsm3wLWDshkYxitbIsX12R7Cupj5sq2KLiFWR2Y1i1aV0iW8IQiIrnPRrl7VuYesfNPdhqg5LdPa1sGvkKjxdSRstz/oUIHiIvSaLUCKjuOR2CeztEwPTuAYzrvE4blK2oxquFCZKkuRGvn2ktfMsLmzK1ER8qWU8giInU9eE+Tvb4N7P/BN53H+COw/tTEPmm5u66lqYFzkZIJsgtoddDi2d6Wshjrq0lxPCFkqzJX14mgApnvUQWoxvDURPl72+Dez/AME3ncf4I7D+1MQ+cN7fBvZ/4JvO4/wR2H9qYh84b2+Dez/wTedx/gjsP7UxD5w3t8G9n/gm87j/AAR2H9qYh84b2+Dez/wTedx/gjsP7UxD5w3t8G9n/gm87j/BHYf2piHzhvb4N7P/AATedx/gjsP7UxD5ws6K6gxrOnuq6bU21bMG00SwrLGMWHPgygu5aWNLimeN7V8HNcqdpe3NRwbK/wDTXktmjWOVTWFnqa4sDqgMZyKQ5SSJONSjPQdXZlVVVVbFku948oso/wAEdh/amIfON5h+YUlZkuLZLVzKW/oLmIGfVW9VYAfHmwJ8OQ14jx5AXq1zVT+1PHsbZGuBzb303ZvqvYsOhmHM6Xa64yCZY4vMHhGSHK7z5kAwo5XVVgvU44RKGQvnjQkj/kxr63Y+1tb4BY2yItXAzXOMZxabZNV3lo6DFvLOCeWzrTp5Y1ydXh7e0ebBkx5kOWEUmLLimHIjSY5mIQMiOcLniMEo3I5r2qrXNXlF4/opmQ5bkFJi1BXD82wvMjtoFJTwRc8eZMs7ORFhRR8/te9qdjXGts+wvYNTGMkaTaYTlFHlVfGkqiuSPImUU6dHCdWtVehzkdwns7rPJ8uvqbF8bpYzptxkGQ2cKmpaqG1zWOlWNpYmjwoUdr3oivI9rUVU8fHt/ND6ev4y67/3i7fzQ+nr+Muu/wDeLsfINZ55h2wqKLPLVSbrCMmpsqqo9oAEeUauPYUc2dEFODGmCI4TnoRrCscqcORV7TMiy3IKPFsfrh+bYXmR20Ckp4AuePMmWdnIiwoo+f2ve1OxrnW2fYXsCojmSPItMJyikyqvjyFRXJHPMo506OE6taq9DnI7hPZ8uqftLZ+vtbtvVmNpXZ5mWPYk23dXJGWe2sW+sYCT1hJND53ldXl+azq46k5/mh9PX8Zdd/7xdv5ofT1/GXXf+8XauuqWxg29PcQYlpU21ZKBPrbOssI45cGwr50UhY0yDNilYQRRucwg3I5qqiovdZUd56j9E011TT5dXb1FptrA6+zq7OvkEiTq6xgyr4UqFOhShOGURGteN7Va5EVFTtGyrX+XYznGMTCyQRMixG9q8jo5R4R3xZgY9rTypkExYskbhka0iqx7VavCpx8l49k7x1Jghxo5XRMs2HidFO4YvD+iBY20eYRWqvCo1iqi9igm+qTXp3hc5j3U4clyEKq1eFUUmgoLOOdvh4KxzkX9i9kGL1O4q1y8JzJxnYkNnj/WWZhwBp/1+HYIcY9Umj5cmQvSGFP2Fj1BYEcq9KMZXZDNqpyvc7wRPL5X9nYVlS2dfcVx05BPq5sawhGThF5FKiEMAicORfBy+3+g2TsTYF7NyLK8mzG/nWVhOOU6sRbKSyLXwmFe9IdVWRWsjxIw+kUeONg2NRrUTtEgYBmT8o1ww3VN1NnZJl5hRBvINx3UolkiscTnEaxf8WtPHY9y8mGZE6e1biuRWbdGbalNCH7mZ9aQx0N3Oc1EcHDs4e2FU273lXpHGlsgTyOXgYCIiu+XMtLafDq6yvjllz7GxlAhQIMQDFIeVMmSXijxo4RtVz3vc1rUTlV47WmG+neBG3/sOMpYpMhDLNB1JRy2Iz6ZL6PxYZo4SuX/AAqvoiE4VEnMcnHZb/d2xbXIYkeQ+RS4fBc6owXGupvQ1tDisN7a2MZovoOklQ00rf8AWmIvj20ZW4rfz6uq2DezsLzSpAciVuSY7PorY6QrWHz5Mr3GwjhlxnOTqDIC1zVTxRe3qn+F87/ss6xU/wC3v2FwiJz6isuVf7V+4Gsk5X+teE7tQajddzR6/ptRw88BjgZBhV8nLMhy7L6SbdT4zHoGZMBVY5HBGcRrljscXy1b5xOqNmuo8/yrXeURVajLfFLiZUnOJqqqxJ445GxrOATqVHx5LCgIiqjmKi9q3FvVxr8eX16OBGftHWkaHU5KFiuRj5l/hMg0aguHIjuohK89arWt+jHK5eOzMm0dtDGc6itAM9jVQZnumUUPmNGvlZFili2JkNGRrio3mRGYx6/3HOThfk+kZeE5SZutEX9qIodXcpz/AFLwnf6ZUROET0+aZRETwRETXON8Iid3qhRERE/4htzLwiceK7FyJVX/AOKr21f+9+1Px9d9x5cs4YsSKEsmVKklYCPGjgY4pjnMVzRhCEbVc5zlRrWoqqvHa3wD0x0Vdu/Nq95YU3PLCZIjanp5rPovbWlgPFa54SORFa50QsKA7wcKWZOW9pTdgbxzMNLOI1o8IwecbB8OGzpcMUVaDF3V47VGoRUR850s7lXxevh2j2OA+nDZ9nW2DnPj319TJhtHLRVRXnBfZvIx+rls5dyrhmfyvs5Xswk3H9W449yIrgXOy645Rqv7Hrj8G9Aqp/3XuTsrxO0rNciLwGLsSewi8fsRZuKRA8r/AGuTsSXI0JOy6CNqudJ17k2KZiZeHdPSOmrLl2RFcvt4bDXw7OjVdzub0/5lEM8pq5knL9d2r3icoSLLqzLVumh5TpchREG5PBUVO1bj/qUxut3hhzPJjSMopo9fiWzq8DfoOl9cQUfFMneMfH+CeNBMZ3i6YiqvIdiaQzWFlVO14o1zWuRYOTYpZlGpfqjKqA7vfqaf0tVWdaKGQxqkAQo+Hr8nKf3iu/tOT31uMTLpd0alhqIH/p7sOxmypdPBH4eRheYr71dY20bPoijkSbWjTnpio5ertCqMPyxuEbPMNqSdT5+eFTZSWQjR+amMyPPdVZjGR7l6VgFfKRjesscPs73Oc5Gtaiuc5yojWtROVc5V4RERE8V7WmJ4NMZv3bERDx1xvCLWMmH0M9jXsQeWZ4wc6uAQJm9JIteOfLY5FYVoOUd2kB2bmxKfAkkqas1ThSyqHAoLWlcSM6dXtlHm5NPjo76Mm0PLKxefK8tq9Kd3pa+I7fsC67vVP8L532nWd+wf1E5d+ANZd2t/064r+YWzu+uyzBMoyDDcoqTIesyHF7iworqAZqovXEsqyRGmAVVTx6Xojk8F5TtWYx6lsXi7wxQCCjPzGm9yxnaEGMxiMQsjyxhxfLHjRqfRMKBJK5VcSW5ewJGmtn1FjkKxveJ+vb57Md2JUo1HqZJeK2BWzJgI/QvXKgrMhezgy8p3+kb/APc3X/8Ag1f3+mX9Pumfy5xvu9UP6hdy/mJkXbV3737U/H953ZR6QtJ5BIqtZ4ZOPRbhyOnluDJ2FlsIiitMMHLjER6YbjEpqx5guUSwsRkaRHAANSkwrAGiocUx9kSdsPY9tGMehw2qlFeyOzyhOE+3yK08giQK8ZGPkKN73vEAZTMgGwjAYOWbCAITp+18/iQcizWRMQbWmNTGkRvq/EIj3IvSCrDG5ZwhXmcivX5EnENs6/xLYmNymEa+py2jgXMcLyN6VkQXzAkPWzWJ4skR3iONyIrXoqIvbIt6ekf67v8ACaMEq5zTTtkc1zkWL08djjzbvB7UiPsMipKwDHEkQZSlsQBa4jDSU5YOj21qS9LXWleUUe9opBTux3NMecZhJ+MZRXjIxk+rmsb9F3gaKZGnA8ZhsemDbx1+8gqfLq9y2FNKMItli+SQCOh5BjFqouGrNp7IT2I/pa2QFRnYnllYq/Iyn94rv7Tk/IDKimLGkxijPHkAI8JwHC9CCMEo1aQRREajmuaqK1U5Tx7VOHbj8/1CavhoGIz7x2LwbNoILEYNqVGbGZJJeijDRVSPbskvfwg2SQMTwhbAxi3zLNsztAPbD09GxqdS5dX2LWqjgZPb2I3YlUwAk465MabYdbHcgGdUc1LLG5N+3U2ppivEmsteTJcIFlDcnT5OY5QqhvcsUjf9YF6x6168KkRrk5+T6WviO37Auu71T/C+d9p1nfsH9ROXfgDWXdrf9OuK/mFs75MO3prGdU2tdIFMr7OslyIFhAlgcjwyoc2KQUmLIC9EVr2Oa5qpyi9qzGtvJG9ROv4bQxeMqmOq9kV0NijbzAzwEaUS4eMSOVUt408xF4b5408e1fW4RsGPiOwpjWNJq3Y7omL5ispWsV4KbzZZ6TK06nL0/VkuUXoTqIMa/RT0ipynKzN2KicpyqNBq3lUT28J1J/19/pl/T7pn8ucb7vVD+oXcv5iZF21d+9+1Px/edt7bbruPrbAdW5lkNH1K1GfeCLSymY+j+pr2qxbogOpFReU7Sp86QaXNmyDS5kqQRxpEmVJI40iQcr1V5TGK9XOcqqrnKqr20/jFfDAPJs0xmp2fsGzaJGS7TLs5rIVyYMsiojiNx6rNGqw+xPJhNdx1Ocq/KVFRFRU4VF8UVF9qKn7UXtsnE8PhBq8IzWNVbUxGpjtRkenr8097fbVEUTWtHHrq3LK+xFDEz6IYbRMT+729Q2g5cgpqYlVj+3KCM53+FX2EWaLD8rIxvt6rUE+nRf2J7p/3l+TlP7xXf2nJ7s7wTIthWmvKjCMAJlz51LSxbqysZ0i5rqSBDaOdMiRY0QJJzjmcvW97RoNqNV6kZZ5G/H3bd1JD807Nma8gzJo6yCxU4NmmLJ7xd4k8bFRSmckmtYqoiTHO5RPkRKuqgzLOzsJAokCur4p5s6bLO9BgixIkZhZEmQYjkaxjGuc5V4ROe1dlu95RPTxr2QgpA622gNstp3UV7VeiRcTeYAMXYRE6VJbFFJEqo5IZG9to6CrMmlZhV4NMoHVmQToIq6fMr8kxWjyuIKfEAUsds2AG7SOV41QZniUjWsR3Q3t6WviO37Auu71T/C+d9p1nfsH9ROXfgDWXdrf9OuK/mFs7uw3F5pjx4eSZXjtDLkRuj3kEa4t4dec0fzWvF54hSFczqRW9SJyip2Gf0551lOqMxr4TRDh5lNkZ1huRyBNTglo8iR8hoZkt6L5kiKWRHHz9CEvaUu3dYWosVEfyYmx8XQmTa8sGucrQEbkleJWVJJKp9CPZDgy1T2iTvYQb3DINzXjIxytex7VRzXsc1Uc1zXJyip4ovakdsTP80zx2NVjaXHXZjlF3kzqKnY5Htq6h1zNmrXQEciL5QuhnKJ4eCd/pl/T7pn8ucb7vVD+oXcv5iZF21d+9+1Px/edvVRUVgTSJiaeyi3YCOxxDFFjYR5HKYMbEVz1dFqnpwicr3aOzqjkRpFZlOp8BuAOiOaoAklYxWOlQ0RvgMtfMQgCM9oyDc1eFRf6BtLWSAyJOv8ATmA4peoJUc6NcTJ2TZmkUyp4eYynyyG/j9iE4Xx8O29spGAjqmn0gCgmyUaqhFY5LnmNWNYB7/Y0kiNiktzU/agnf1fJyn94rv7Tk92+/gtB/HNF2VrkRzXIrXNciKjkVOFRUXwVFTta5bhcFmhdtTGmkfefBquKmJXtg/rehctwMb4VbLIcz1cWVAJXzCPXrKQ3HSso+y8INdYA2Q4VbtbCWyb7A5onmcKN9YTmRhTcXmyOE4jWgIhHOXgfmN4coIkQBpUqUYUeNGjieaRIkGe0YQACNriFMUjka1rUVznKiInPasyvbIS+njWMpASmy8trCH2LeQyIIqfUmBPNDl1bDhcqIe3JB6eUewJ2+HYD9WYFHn5t7ugbHaWZe7ZFsGwc4bWH8i3LFDHx6JI6fpxqsEKO/wAFe17vpL29Qv8A7Y/lDgfd6WviO37Auu71T/C+d9p1nfsH9ROXfgDWXdrf9OuK/mFs7u1X8R8H/E9X3Sa+xiRZ8CYEkaZCmxxSokuOZqsLHkxjsIE4SsVUcxzVa5F4VO1nkutIp/TvsSZ5shJ+CwI8jALGY/rd1W+uyliV8Rj3r4rUHq/Hlz2lXlFsrjI8DLsHXMF5iM2ZrNkvJaAMEfLklZBWijsyHFWsFx5r50UcVr+WsORE6l+R6Zf0+6Z/LnG+71Q/qF3L+YmRdtXfvftT8f3naypbeIGwqriBMq7OBJb1x5tfYRyRJsQ7PDrDJjGcxyfta5e2ZapuYc5+Jmmysg1bksgbvd8q19YyzOpZg5PiMtlVtRYNixOFHNjk4Ty3Dc6N6SPUFkMfHcMkW8uZp3YNxJQFJjVheTHS7PBclmGVAVNJZ20kkyBNKrAR5RzjO9oyCcMZgkGYJhsKIontIIoiNR4yDIxVY8b2KioqKqKi8p8qZfZTYwL/AGhc18pNbaqiTWfXuT2fS8UewswiV8ilw+DKTmZYFa1vS1wgebIcwa5hszObI17mmf5JZ5Lfz1a7mVa3Et8goooEV/u8MCkQMYDPoBAxg2IjWonZLfPaotRtjd1jCzrL6uWJBWGN0MeG+NhGJz2dLSinV9dKPNkiJwSNLsigciOEvycp/eK7+05Pdvv4LQfxzRd8uts4USxrp8csSdAnxgzIUyKdijPGlxZDCAkRzDcrXse1WuavCpx2dmeC6B01h2XKZZDclxnWmHUl4A7mqxxYlnXU8eXDe9rlRyieznlefb8j1C/+2P5Q4H3elr4jt+wLru9U/wAL532nWd+wf1E5d+ANZd2t/wBOuK/mFs7u1X8R8H/E9X8hUVEVFRUVFTlFRfBUVF9qL2sb8uHrqLZM3zCrn+rAwqJ8+Y9EVD5NivkOxfIVIROoxljgsC+z3pvayyDEqJu/dcQ0LITJtawZR8mgwhorlLf69c+TkEV42NVxHwFs4w2J1PM32IaNJCWPIjlIA4DjeIwDCeoyhMIiNeMo3tVrmuRFRU4Xu9Mv6fdM/lzjfd6of1C7l/MTIu2rv3v2p+P7zuLrracA0WwrXybDBs7qBgblGC3xwIFbCrMZqsl10xBsbOrzL7vNExvPQUYTCsJGaYnKzDWDJBEqNv4XCl2WISoikekb7wNG00zC7R40TrjWCDYpOUAaQxPMWBjGKZlGzzWsBwmA1tswEnI6Kuisc3qjY5ZDmQ8jxkPl9SMBEmNhNc7rWO5e0SLurRWf4ROVrByrXALekzunUvij5Cwbl+G2sOOvgvQxZj0545dxyrEmbWyfF3ub1KPIdYZ6qsX/AOR5aGjvY6O/6Hqn9vZx279LYuaiKkat1ntY8giqvHS1C4SASL/4ntTsZ2GUO4dkWSdSRgV+KVuM1j3I1ysWVY5NeQZscLnoiKrIRnoi89K8cLPo9E4HimjKyU0oGZHNOmw87EJ7EYhYUq0rq7Fa06orl+lVynsVU6CI5OrsZldC2JvLbeZTfeJZWNucxym0ORyMdLsJZFlmBBitVEcYzxxowm+LmDb4Y7vj1Wiqck2hUnj3GF6rhnBbYvgVmB6GhXeUTxKSDk+WQCIj44AqSugGahUfJMg3g+TaWn/FsEP1lYzZ/krpV5FF75JLI8pSJtAaP8vzOOelvPHPCdv5ug/wSf8A5p9s+z5+7WbQTN8KBiCVbMAdiH1cob2Bde/rMXMMk966vcvL8vyx8dXV1eHH9BsP1AN9Rg8Ebnn3Y4xZ2rXZEtX93MPoMV//ALCZ9Se9+9rSef8A+WH0eb0fS6epf5ug/wAEn/5p9tWb0d6lhZe3WuSJkC403U7qNbhEgTYPuqWy7DtUg/8AnOrr93L/AHeOPHlO21tGhyNmIl2Xix8bZkhKt10OncaVFke9vqmzqx01G+7dPQkgXPPPV4dv5t63+C8r/M3t/NvW/wAF5X+ZvbItRytiB2YS92Pb56l6DGH4oyKy0x/F6NKta4l5kDiuCuOKXzvOb1ed09CdPK9sb22zerNZJj+uanAfqF+u3ZaspazIsovvrRLFMzx3yfP+8fleT5LunyerrXq4b/N0H+CT/wDNPtiuU/8AFgGd92sko8g9yTTD46zPqazi2PuqSF2cZAe8e7dHX0P6eeeleOPlzLDZeuYtRncgJGB2hgihxbOxFchPLNYT4sclfkyCeRVay2jTmN8enp557RLnO/UJlWa66g2Q5i4VXYRCxS7t4YTIVtTbZcPJ7doY5mN8uQWJAAYjFconAeqObW0lPCj1tRTwIdXV10MbQxIFdXxxxIMKKFiI0UeLGC1jGp4Na1E7tp7SZ6o4FGzZGxc1zxlK/UUiwfUMy7I7K/bWOnt2JDbNdAbP8pSoEXmdHV0N54TFtCyM1FsAuN3GV2q5OGhfjY5aZNkE68aBKl9tduCsNJnlq73h3WrerhvPHeeHMjhlRJQSxpUWSJh48mOdjhGAcBWuEYJhuVrmuRWuaqoqcdp1xN1UussonukFPkeoLFcJeSTIRFdJNjY487CTG81Otz1rEI9yqrnLyvY8jVfqesYQeHLFqdg68jWZeUT6LD5DjmQ1DeHO9rm1ngn7F7OSq3ToCaJF+g+wmbFrCOT+two2B27WL/Yj17IkjbvpvEznxcG/2cdyJ/WjH6sjIq//AFdmffz1K6+ooydKkTEcKyPKzuTn6bWLc2WGDZ4exyo7/o7RZ+zMq2duWaBY7y10+1h4Rish4ndZeqsxcDMiaI7kRFYtw7hvhyqrz2ZiumtaYdrijRo0PFxakiVx7B4+eiRcWTGOs7uYnUvJ5hjmXnxcv/Mw/9k=;" parent="36" vertex="1">
                    <mxGeometry x="35" y="20" width="60" height="60" as="geometry"/>
                </mxCell>
                <mxCell id="24" value="" style="outlineConnect=0;dashed=0;verticalLabelPosition=bottom;verticalAlign=top;align=center;html=1;shape=mxgraph.aws3.s3;fillColor=#E05243;gradientColor=none;rounded=0;labelBackgroundColor=none;" parent="36" vertex="1">
                    <mxGeometry x="48.55000000000001" y="121" width="32.9" height="40" as="geometry"/>
                </mxCell>
                <mxCell id="37" value="" style="group" vertex="1" connectable="0" parent="1">
                    <mxGeometry x="340" y="190" width="130" height="170" as="geometry"/>
                </mxCell>
                <mxCell id="15" value="" style="rounded=0;whiteSpace=wrap;html=1;" parent="37" vertex="1">
                    <mxGeometry width="130" height="170" as="geometry"/>
                </mxCell>
                <mxCell id="18" value="Database" style="shape=image;verticalLabelPosition=bottom;labelBackgroundColor=none;verticalAlign=top;aspect=fixed;imageAspect=0;image=data:image/svg+xml,PHN2ZyB4bWxucz0iaHR0cDovL3d3dy53My5vcmcvMjAwMC9zdmciIHdpZHRoPSI0MzIuMDcxcHQiIGhlaWdodD0iNDQ1LjM4M3B0IiB2aWV3Qm94PSIwIDAgNDMyLjA3MSA0NDUuMzgzIiB4bWw6c3BhY2U9InByZXNlcnZlIj4mI3hhOzxnIGlkPSJvcmdpbmFsIiBzdHlsZT0iZmlsbC1ydWxlOm5vbnplcm87Y2xpcC1ydWxlOm5vbnplcm87c3Ryb2tlOiMwMDAwMDA7c3Ryb2tlLW1pdGVybGltaXQ6NDsiPiYjeGE7CTwvZz4mI3hhOzxnIGlkPSJMYXllcl94MDAyMF8zIiBzdHlsZT0iZmlsbC1ydWxlOm5vbnplcm87Y2xpcC1ydWxlOm5vbnplcm87ZmlsbDpub25lO3N0cm9rZTojRkZGRkZGO3N0cm9rZS13aWR0aDoxMi40NjUxO3N0cm9rZS1saW5lY2FwOnJvdW5kO3N0cm9rZS1saW5lam9pbjpyb3VuZDtzdHJva2UtbWl0ZXJsaW1pdDo0OyI+JiN4YTs8cGF0aCBzdHlsZT0iZmlsbDojMDAwMDAwO3N0cm9rZTojMDAwMDAwO3N0cm9rZS13aWR0aDozNy4zOTUzO3N0cm9rZS1saW5lY2FwOmJ1dHQ7c3Ryb2tlLWxpbmVqb2luOm1pdGVyOyIgZD0iTTMyMy4yMDUsMzI0LjIyN2MyLjgzMy0yMy42MDEsMS45ODQtMjcuMDYyLDE5LjU2My0yMy4yMzlsNC40NjMsMC4zOTJjMTMuNTE3LDAuNjE1LDMxLjE5OS0yLjE3NCw0MS41ODctN2MyMi4zNjItMTAuMzc2LDM1LjYyMi0yNy43LDEzLjU3Mi0yMy4xNDhjLTUwLjI5NywxMC4zNzYtNTMuNzU1LTYuNjU1LTUzLjc1NS02LjY1NWM1My4xMTEtNzguODAzLDc1LjMxMy0xNzguODM2LDU2LjE0OS0yMDMuMzIyICAgIEMzNTIuNTE0LTUuNTM0LDI2Mi4wMzYsMjYuMDQ5LDI2MC41MjIsMjYuODY5bC0wLjQ4MiwwLjA4OWMtOS45MzgtMi4wNjItMjEuMDYtMy4yOTQtMzMuNTU0LTMuNDk2Yy0yMi43NjEtMC4zNzQtNDAuMDMyLDUuOTY3LTUzLjEzMywxNS45MDRjMCwwLTE2MS40MDgtNjYuNDk4LTE1My44OTksODMuNjI4YzEuNTk3LDMxLjkzNiw0NS43NzcsMjQxLjY1NSw5OC40NywxNzguMzEgICAgYzE5LjI1OS0yMy4xNjMsMzcuODcxLTQyLjc0OCwzNy44NzEtNDIuNzQ4YzkuMjQyLDYuMTQsMjAuMzA3LDkuMjcyLDMxLjkxMiw4LjE0N2wwLjg5Ny0wLjc2NWMtMC4yODEsMi44NzYtMC4xNTcsNS42ODksMC4zNTksOS4wMTljLTEzLjU3MiwxNS4xNjctOS41ODQsMTcuODMtMzYuNzIzLDIzLjQxNmMtMjcuNDU3LDUuNjU5LTExLjMyNiwxNS43MzQtMC43OTcsMTguMzY3YzEyLjc2OCwzLjE5Myw0Mi4zMDUsNy43MTYsNjIuMjY4LTIwLjIyNCAgICBsLTAuNzk1LDMuMTg4YzUuMzI1LDQuMjYsNC45NjUsMzAuNjE5LDUuNzIsNDkuNDUyYzAuNzU2LDE4LjgzNCwyLjAxNywzNi40MDksNS44NTYsNDYuNzcxYzMuODM5LDEwLjM2LDguMzY5LDM3LjA1LDQ0LjAzNiwyOS40MDZjMjkuODA5LTYuMzg4LDUyLjYtMTUuNTgyLDU0LjY3Ny0xMDEuMTA3Ii8+JiN4YTs8cGF0aCBzdHlsZT0iZmlsbDojMzM2NzkxO3N0cm9rZTpub25lOyIgZD0iTTQwMi4zOTUsMjcxLjIzYy01MC4zMDIsMTAuMzc2LTUzLjc2LTYuNjU1LTUzLjc2LTYuNjU1YzUzLjExMS03OC44MDgsNzUuMzEzLTE3OC44NDMsNTYuMTUzLTIwMy4zMjZjLTUyLjI3LTY2Ljc4NS0xNDIuNzUyLTM1LjItMTQ0LjI2Mi0zNC4zOGwtMC40ODYsMC4wODdjLTkuOTM4LTIuMDYzLTIxLjA2LTMuMjkyLTMzLjU2LTMuNDk2Yy0yMi43NjEtMC4zNzMtNDAuMDI2LDUuOTY3LTUzLjEyNywxNS45MDIgICAgYzAsMC0xNjEuNDExLTY2LjQ5NS0xNTMuOTA0LDgzLjYzYzEuNTk3LDMxLjkzOCw0NS43NzYsMjQxLjY1Nyw5OC40NzEsMTc4LjMxMmMxOS4yNi0yMy4xNjMsMzcuODY5LTQyLjc0OCwzNy44NjktNDIuNzQ4YzkuMjQzLDYuMTQsMjAuMzA4LDkuMjcyLDMxLjkwOCw4LjE0N2wwLjkwMS0wLjc2NWMtMC4yOCwyLjg3Ni0wLjE1Miw1LjY4OSwwLjM2MSw5LjAxOWMtMTMuNTc1LDE1LjE2Ny05LjU4NiwxNy44My0zNi43MjMsMjMuNDE2ICAgIGMtMjcuNDU5LDUuNjU5LTExLjMyOCwxNS43MzQtMC43OTYsMTguMzY3YzEyLjc2OCwzLjE5Myw0Mi4zMDcsNy43MTYsNjIuMjY2LTIwLjIyNGwtMC43OTYsMy4xODhjNS4zMTksNC4yNiw5LjA1NCwyNy43MTEsOC40MjgsNDguOTY5Yy0wLjYyNiwyMS4yNTktMS4wNDQsMzUuODU0LDMuMTQ3LDQ3LjI1NGM0LjE5MSwxMS40LDguMzY4LDM3LjA1LDQ0LjA0MiwyOS40MDZjMjkuODA5LTYuMzg4LDQ1LjI1Ni0yMi45NDIsNDcuNDA1LTUwLjU1NSAgICBjMS41MjUtMTkuNjMxLDQuOTc2LTE2LjcyOSw1LjE5NC0zNC4yOGwyLjc2OC04LjMwOWMzLjE5Mi0yNi42MTEsMC41MDctMzUuMTk2LDE4Ljg3Mi0zMS4yMDNsNC40NjMsMC4zOTJjMTMuNTE3LDAuNjE1LDMxLjIwOC0yLjE3NCw0MS41OTEtN2MyMi4zNTgtMTAuMzc2LDM1LjYxOC0yNy43LDEzLjU3My0yMy4xNDh6Ii8+JiN4YTs8cGF0aCBkPSJNMjE1Ljg2NiwyODYuNDg0Yy0xLjM4NSw0OS41MTYsMC4zNDgsOTkuMzc3LDUuMTkzLDExMS40OTVjNC44NDgsMTIuMTE4LDE1LjIyMywzNS42ODgsNTAuOSwyOC4wNDVjMjkuODA2LTYuMzksNDAuNjUxLTE4Ljc1Niw0NS4zNTctNDYuMDUxYzMuNDY2LTIwLjA4MiwxMC4xNDgtNzUuODU0LDExLjAwNS04Ny4yODEiLz4mI3hhOzxwYXRoIGQ9Ik0xNzMuMTA0LDM4LjI1NmMwLDAtMTYxLjUyMS02Ni4wMTYtMTU0LjAxMiw4NC4xMDljMS41OTcsMzEuOTM4LDQ1Ljc3OSwyNDEuNjY0LDk4LjQ3MywxNzguMzE2YzE5LjI1Ni0yMy4xNjYsMzYuNjcxLTQxLjMzNSwzNi42NzEtNDEuMzM1Ii8+JiN4YTs8cGF0aCBkPSJNMjYwLjM0OSwyNi4yMDdjLTUuNTkxLDEuNzUzLDg5Ljg0OC0zNC44ODksMTQ0LjA4NywzNC40MTdjMTkuMTU5LDI0LjQ4NC0zLjA0MywxMjQuNTE5LTU2LjE1MywyMDMuMzI5Ii8+JiN4YTs8cGF0aCBzdHlsZT0ic3Ryb2tlLWxpbmVqb2luOmJldmVsOyIgZD0iTTM0OC4yODIsMjYzLjk1M2MwLDAsMy40NjEsMTcuMDM2LDUzLjc2NCw2LjY1M2MyMi4wNC00LjU1Miw4Ljc3NiwxMi43NzQtMTMuNTc3LDIzLjE1NWMtMTguMzQ1LDguNTE0LTU5LjQ3NCwxMC42OTYtNjAuMTQ2LTEuMDY5Yy0xLjcyOS0zMC4zNTUsMjEuNjQ3LTIxLjEzMywxOS45Ni0yOC43MzljLTEuNTI1LTYuODUtMTEuOTc5LTEzLjU3My0xOC44OTQtMzAuMzM4ICAgIGMtNi4wMzctMTQuNjMzLTgyLjc5Ni0xMjYuODQ5LDIxLjI4Ny0xMTAuMTgzYzMuODEzLTAuNzg5LTI3LjE0Ni05OS4wMDItMTI0LjU1My0xMDAuNTk5Yy05Ny4zODUtMS41OTctOTQuMTksMTE5Ljc2Mi05NC4xOSwxMTkuNzYyIi8+JiN4YTs8cGF0aCBkPSJNMTg4LjYwNCwyNzQuMzM0Yy0xMy41NzcsMTUuMTY2LTkuNTg0LDE3LjgyOS0zNi43MjMsMjMuNDE3Yy0yNy40NTksNS42Ni0xMS4zMjYsMTUuNzMzLTAuNzk3LDE4LjM2NWMxMi43NjgsMy4xOTUsNDIuMzA3LDcuNzE4LDYyLjI2Ni0yMC4yMjljNi4wNzgtOC41MDktMC4wMzYtMjIuMDg2LTguMzg1LTI1LjU0N2MtNC4wMzQtMS42NzEtOS40MjgtMy43NjUtMTYuMzYxLDMuOTk0eiIvPiYjeGE7PHBhdGggZD0iTTE4Ny43MTUsMjc0LjA2OWMtMS4zNjgtOC45MTcsMi45My0xOS41MjgsNy41MzYtMzEuOTQyYzYuOTIyLTE4LjYyNiwyMi44OTMtMzcuMjU1LDEwLjExNy05Ni4zMzljLTkuNTIzLTQ0LjAyOS03My4zOTYtOS4xNjMtNzMuNDM2LTMuMTkzYy0wLjAzOSw1Ljk2OCwyLjg4OSwzMC4yNi0xLjA2Nyw1OC41NDhjLTUuMTYyLDM2LjkxMywyMy40ODgsNjguMTMyLDU2LjQ3OSw2NC45MzgiLz4mI3hhOzxwYXRoIHN0eWxlPSJmaWxsOiNGRkZGRkY7c3Ryb2tlLXdpZHRoOjQuMTU1O3N0cm9rZS1saW5lY2FwOmJ1dHQ7c3Ryb2tlLWxpbmVqb2luOm1pdGVyOyIgZD0iTTE3Mi41MTcsMTQxLjdjLTAuMjg4LDIuMDM5LDMuNzMzLDcuNDgsOC45NzYsOC4yMDdjNS4yMzQsMC43Myw5LjcxNC0zLjUyMiw5Ljk5OC01LjU1OWMwLjI4NC0yLjAzOS0zLjczMi00LjI4NS04Ljk3Ny01LjAxNWMtNS4yMzctMC43MzEtOS43MTksMC4zMzMtOS45OTYsMi4zNjd6Ii8+JiN4YTs8cGF0aCBzdHlsZT0iZmlsbDojRkZGRkZGO3N0cm9rZS13aWR0aDoyLjA3NzU7c3Ryb2tlLWxpbmVjYXA6YnV0dDtzdHJva2UtbGluZWpvaW46bWl0ZXI7IiBkPSJNMzMxLjk0MSwxMzcuNTQzYzAuMjg0LDIuMDM5LTMuNzMyLDcuNDgtOC45NzYsOC4yMDdjLTUuMjM4LDAuNzMtOS43MTgtMy41MjItMTAuMDA1LTUuNTU5Yy0wLjI3Ny0yLjAzOSwzLjc0LTQuMjg1LDguOTc5LTUuMDE1YzUuMjM5LTAuNzMsOS43MTgsMC4zMzMsMTAuMDAyLDIuMzY4eiIvPiYjeGE7PHBhdGggZD0iTTM1MC42NzYsMTIzLjQzMmMwLjg2MywxNS45OTQtMy40NDUsMjYuODg4LTMuOTg4LDQzLjkxNGMtMC44MDQsMjQuNzQ4LDExLjc5OSw1My4wNzQtNy4xOTEsODEuNDM1Ii8+JiN4YTs8cGF0aCBzdHlsZT0ic3Ryb2tlLXdpZHRoOjM7IiBkPSJNMCw2MC4yMzIiLz4mI3hhOzwvZz4mI3hhOzwvc3ZnPg==;" parent="37" vertex="1">
                    <mxGeometry x="26.170000000000016" y="20" width="77.66" height="80" as="geometry"/>
                </mxCell>
                <mxCell id="26" value="" style="aspect=fixed;perimeter=ellipsePerimeter;html=1;align=center;shadow=0;dashed=0;spacingTop=3;image;image=img/lib/active_directory/database.svg;rounded=0;labelBackgroundColor=none;" parent="37" vertex="1">
                    <mxGeometry x="44.73000000000002" y="132" width="40.54" height="30" as="geometry"/>
                </mxCell>
                <mxCell id="40" style="rounded=0;orthogonalLoop=1;jettySize=auto;html=1;exitX=0.25;exitY=1;exitDx=0;exitDy=0;entryX=0.5;entryY=0;entryDx=0;entryDy=0;fontSize=18;startArrow=classic;startFill=1;edgeStyle=orthogonalEdgeStyle;" edge="1" parent="1" source="6" target="35">
                    <mxGeometry relative="1" as="geometry">
                        <Array as="points">
                            <mxPoint x="153" y="490"/>
                            <mxPoint y="490"/>
                        </Array>
                    </mxGeometry>
                </mxCell>
                <mxCell id="42" value="" style="group" vertex="1" connectable="0" parent="1">
                    <mxGeometry x="-150" y="610" width="300" height="140" as="geometry"/>
                </mxCell>
                <mxCell id="35" value="" style="rounded=0;whiteSpace=wrap;html=1;" vertex="1" parent="42">
                    <mxGeometry width="300" height="140" as="geometry"/>
                </mxCell>
                <mxCell id="43" value="Gateway" style="points=[[0,0,0],[0.25,0,0],[0.5,0,0],[0.75,0,0],[1,0,0],[0,1,0],[0.25,1,0],[0.5,1,0],[0.75,1,0],[1,1,0],[0,0.25,0],[0,0.5,0],[0,0.75,0],[1,0.25,0],[1,0.5,0],[1,0.75,0]];outlineConnect=0;fontColor=#232F3E;gradientColor=#945DF2;gradientDirection=north;fillColor=#5A30B5;strokeColor=#ffffff;dashed=0;verticalLabelPosition=bottom;verticalAlign=top;align=center;html=1;fontSize=19;fontStyle=0;aspect=fixed;shape=mxgraph.aws4.resourceIcon;resIcon=mxgraph.aws4.api_gateway;" vertex="1" parent="42">
                    <mxGeometry x="121" y="30" width="58" height="58" as="geometry"/>
                </mxCell>
                <mxCell id="48" value="" style="shape=image;verticalLabelPosition=bottom;labelBackgroundColor=#ffffff;verticalAlign=top;aspect=fixed;imageAspect=0;image=data:image/png,iVBORw0KGgoAAAANSUhEUgAAAlgAAAJYCAYAAAC+ZpjcAAAgAElEQVR4nOy9ebgcR33v/a2eOYuOpKOjIx1JsSQvsiXbeDd2WGIWkxA2v0DysuQlQDbIBsQkeUOWG0iekIQHst6sJOQm5PpN7ktWci8kb8Li4Ni5icGADcayQd6wkWwtlrXrnJmp94/uqvpVTfecc3RG00t9P89zPDXVn25rpqurf13VPT+AEEIIIYQQQgghhBBCCCGEEEIIIYQQQgghhBBCCCGEEEIIIYQQQgghhBBCCCGEEEIIIYQQQgghhBBCCCGEEEIIIYQQQgghhBBCCCGEEEIIIYQQQgghhBBCCCGEEEIIIYQQQgghhBBCCCGEEEIIIYQQQgghhBBCCCGEEEIIIYQQQgghhBBCCCGEEEIIIYQQQgghhBBCCCGEEEIIIYQQQgghhBBCCCGEEEIIIYQQQgghhBBCCCGEEEIIIYQQQgghhBBCCCGEEEIIIYQQQgghhBBCCCGEEEIIIYQQQgghhBBCCCGEEEIIIYQQQgghhBBCCCGEEEIIIYQQQgghhBBCCCGEEEIIIYQQQgghhBBCCCGEEEIIIYQQQgghhBBCCCGEEEIIIYQQQgghhBBCCCGEEBITqux/QENoAxgHkJT9DymBHoAOgPmy/yHkrJMgbeftsv8hJWLaeq/sfwghpNowwFoeCYBJ+CcYc9KZRLwB1in0n3Q6WT1PRPXFtGtDO3s/Xs4/pxLMI23XHVHXy+p5kUEIsTDAWhpTcFfuJsCKMZhaKmZUy5yIzEmJwVb1kRcLpt2zrRfTgwuwTHsPAzBCSIQwwBrMFNKTzRQGB1U8ARUHTybYOoH0xHNiZP8islTacG18HC6oCts127kjr72bYOsUXFtnoEVIpDDAyscEVXmBVeFJ5ud+7ufO2bp16xoA0FonWuuz+o8sA6UUlFL25PK2t73tgQF6Lygz0Koe4wBm4EatFm3r55133vjrXve6jeeff/4aU9e09h6283379p362Mc+9uQXvvCFUwNWy5siPwXgGDh6S0h0MMDqZw3SE44MrLwTzY4dO8Z/5Ed+ZNvzn//8K7ds2bJz7dq1O8bHx2eSJJlSStn7s7TWjbvilycdAOh2u8e01vPHjx9/9MiRI4898MADd3/kIx/ZfcsttxwKVu2JV3PyOZa9ktGTAJhG/zSg12a3bNnS/q3f+q0rL7/88svWr19/7tTU1Dnj4+ObkiQZb3hb7ynluketda/X653q9XonTpw48Y3Dhw8/eP/999/7a7/2a/fcfvvtx8J1Rdm09QNgkEVIVDDAckwiDa7MqBUgTjYbNmxo/9RP/dS5r3nNa16xefPmG8bHx7ckSTKZJMmkUmocQNt0yFpryLKkyDlbfvi6GGfiZ6+ntNadXq93otvtHjt27Nju++677xO/+Zu/eftHP/rRw2KVMNA6jDTQIqOjDWAWaVvPC6yS3//937/kpS996Us2b978wvHx8VnTzrO/NpDfJk17WEq7raMPoKe17mitT/V6vVPdbvfIk08++a9f+MIX/u29733vF++66y45Mivb+jzSdn5ksZ1DCGkGDLBSppCecMzTUfZkMz093X7/+99/yWtf+9q3zszM3KCUmlRKtZVSCQCvQw475zxG6ZdF9m/oaK3n5+fnn3zooYf+6uabb/7IJz7xCXlyMScfM214BHwKaxTMwN1baEgA4Jprrpn6hV/4hauf//znf9/atWuvzkZkx8tsS1VHaw2t9Xyv1zt16tSph7/61a/+7Xve855//NjHPlZ0UXEM6WgWIaThsOdMTzYbEYxaXXXVVZM/8AM/cP53f/d33zw7O/ttRi4aMZLL8urK8vPeh0Fb3tX6sP2FhYUDe/bs+fDNN9/8Pz7/+c8fO3DggDzpAGmgdQC8N+tskQDYhLS927pVq1Yll1122fh/+S//5dobb7zxbWvXrr02SRI59besYJ0+cOrUqQfvvvvuD/36r//6pz/1qU8dfuqpp8zN7wYTZHHKkJAGE3uAJUeuEgCYm5trv/71r9/44z/+49+9ffv27xobG5sBBne8ecuq6AP9I1syQFssmBuGf/To0Ttvu+22P/rt3/7tL37yk580I1rmRDMP4BAYZA2bBOlFxBpZd9FFF42//e1vP/87vuM7Xn/OOee8st1ue219UDAtod/v93q9+cOHD99+6623/rdf/uVf/vI999xzotfrAe5Jw2NI2zqDLEIaSqvsf0CJ9AVXN9xww5pf/MVfvPqtb33rz27evPn/aLfbU8Di920MCn6q5OfdWyX9vO0M25+YmNi6Y8eOG5/97Gf3lFKP7969++Tp06c10mDf/GhrB8ACyDBoA9iAtL0rAEmr1WrdeOONa9///vffcNNNN/3kpk2bXpokyWTYfsL9CAxub/Q9pzU5OXnBhRde+KxnPetZx44dO7Zv9+7dp7IgCwDGkPa//FV4QhpKrAFWX3D1yle+cua9733vtz3vec/7iTVr1lyRJIn9bsKOtCiQqaKfF/DIZaau6Er8bPitVmti/fr1l1977bUbtm/fvveOO+44dOrUqR4YZA2b8Gb2ZGxsLHnta187+0u/9EuvfOYzn/njU1NTO+UKRW0OyB/VoT/Yb7fb05s3b77hmmuuUbOzs3tvvfXWp8XiMaT7hUEWIQ0kxgArDK6SV73qVevf8573vOyKK65466pVq3Ygmzo1wYtBXrnmPF1UKT8vCAvdvCvxUflKqfHVq1fv2LFjx5bt27c/cvvttx/MCbLmwR9qPFPaSG9oXw33+1bJD/3QD235uZ/7uTfu3Lnze8fHx+fkCkX7US6nv3xfKdWanZ195qWXXrphcnLy/ttuu41BFiERUHw51kzkDe0muJp597vf/dLLLrvs+yYnJ89fyb1QujMPHIvoAaH2OLB6Q2Fgl1cXBoJa61OHDh267aMf/eiH3vWud33lqaeeMk8S9pDei7VvBJ+kiaxBeiFh2/qLXvSi6T/7sz+7edu2ba9LkmQcKJ5uLsLef3T6OHD6KNCLJCYYnwIm10Ilg69JF/s+9+3b99E/+ZM/+aN3v/vdD8Ldj9VD+hTtEfCCgpDG0F5caQyTCE44r3jFK2Z+/ud//qWXXXbZ901MTJwP5D+FlzcFp7UGTh1F74nd0AcfQe/QI8D8cehjB0f6oUqlPQ61Zg5q9XqomW1ItlwCrN8O1RorXCU84SRJMjk7O/v8V7/61ej1eh/66Z/+6a8cPnx4Hi6x9hrwd7KWyzj8LATJrl27pn7nd37n/5LBFbC0n/PQvS5wbD96TzyA3lOPQh89ABw/CB1ZgKUm10JNb0ay4QKozbug1m2FSvzfV13s+9y8efNNb3nLW7B3797f+oM/+AN58TAFptYhpFHEFGCtgZgW3Llz5+Q73vGO657xjGe8aXJy8vxQlsGVV9/rQB94CN09t6P3+JehD+yBPvIk9NEnoXUXyG7XVrBFmC3Istvg2fGVWTgALbaFlfgTa6HWbIRavw3Jpl1o7XgOknOfCaxaN3iDGSbIuummm47t2bPnDz/wgQ88hvREY6a5zGgWWZw23C+026nBP//zP3/5zp0735gkyXjRSFVeXW/fbnS/+hn0Hvkceocfhz62Hzj5NHR3IW1vGlgsRvPaZ819TE5DTW+BmtmKZO5CtC5+EZLt10CNTfatV/Adt+fm5r79J3/yJw/dd999f3jrrbeaJ2nHke63DhhkEdIIYrkHawrAOmRX9FNTU+2f//mf33XTTTfdvHr16ktVTk8o7x8y5d7T+9C98y/Q+d9/hu59/wL92BfRe3ov9KljUDD3ZvgdtwaCHjp9b/6PZ9PXOeW+iAyD112S352HPnkY+uCj0PvuQ++xu9F7YjfU2Cqo6c2FI1rB/SvtVatWbT3nnHOOPvjgg1/bs2fP6ez/bIYIjuduhIRMIm3r5ktv3XLLLde98IUvfPvExMR2lWLloimt3oGH0PmPW9D59/+G7u5Po7f3XuDYAejTJ6B0L7cNms3KQNw4jfG7p6GPH4Q+8DD03nvRe/xL0Pu+AkzNIJnZuqQpV6XU2Jo1a7ZeffXVJ//4j//4S2KR6Y9N2yeE1JhYAqx1AFYh7SdbL3vZy9bdfPPN3zs3N/ci+bSgoe++oe4Ceg/fic4nfw2dL/8j9P490PMn0h43Z/jI61OV+ANG5isxxGUXq2CdzDcnkKH4vQ70iaegDzyI3iOfhT55BMnmXVDj8vcts00F33OSJBPr1q3bPjU1tfszn/nM3hMnTpj5J4X0iUI+VTiYNtK2Pon0O2u/5S1v2fKjP/qjP7l27dqrlFJ9bT3vxuzOl/8RC//ya+ju/iT0oUeg50/mB9c5ZbUEpzG+7gLHDqC3/2vQ3/gy0JlHMnchVHvC6QUjhUmSrFq7du3M5Zdf/vDf/d3f7RVbbyEdre32rUgIqRUxBFje6NXmzZsn3ve+9z3v6quvflur1ZpY7FFs3ZlH54t/i4V//gB63/hyGlgZD1kgYzpm5Y80hVNuo/TlFbmHnNrLuVIfmt/rQp94GnrfvdD77kOy7So7ZZj3NJYpt1qtNVu2bFn34IMPfvbuu+8OR604ijWYcQDrkR7XCYDWhz/84e/aunXrS1utlo1w5fft0TmNzm1/gM6/fRD6ya9Cd05Bmf0cBu4Q7U2L9hmhD92FPrYfvcfvgT52AMnmi9P7tQY8LANAjY2NbdiwYUPyxS9+8fMPPfTQaaRT4WalU+7/TAipIzEEWGb0qgUgue6669b+xE/8xM9OTU2dC+RfYUo6n/9rLHz8vcDxA9A6G1DJmZLrK4d1ZfmmaIKj8ORxln3dXYA+9Ch6j34erV0vhJpYY6dd86ZhlVJq1apV26anp7/6iU984sFjx46Z+1FaSO9NYb7CfMz9aquQ3Xf1R3/0R9c873nP+97Jyclzw58T6Hvas3ManTs+hIX/+O/A0Sey0UVAi2BdKTFlprJdHpSj9QFg4SR6++6DfvpxJJsvBqbWF45gZX/JxMTE+osvvvjgn/7pn+6GO5ITpA92RPIEASHNpOkB1hqkN462kQVYf/EXf/GaXbt2vc4I4U3s9v6JXhedu/4K83//s1C9Tv494EpcyQJ+IKIq4It/s72PJKtTSE8OSiw7Wz6goY8+ge5X/xWtZ7wUaiLN2BI+SCCe2Ezm5ua23XnnnZ+8//77zZW8+eMoVj5m9CoB0Jqbm5t83/ve9+a5ubkbFsstqE8fw8Ltf4zOHX8KnDzshk1EsJzbtrICfedp3UtH/048lT5Vu2rGHxEPvv92u71mYmKilyTJV+644w7z+1jm4YST8n9HCKkXyeJKrZmEeFT9sssuW3PllVd+J+BPk4QjKlr30Hv4s1j4p19xU3Jyq8qvUKJQFV9r39GyYCMgEbmMwNf792Dhf70H+tTRvh9MDU9Ca9asueSd73zn87Mqc8KZgp9Pj6SY0Svb1j/wgQ9cvWHDhqtNChzAP7nbus5pdO/+B3Tv/EvoU9kDbWbXiKkwsy9NTKER7HP6nt/9yr+g87mPpD9nMeD7B4D169dffdNNN103NTVlM0vAT8pNCKkhTQ6w2hAnHADJr/7qr96wdu3aS4o6OtsRPvV1zP/z+9LftUIWHGQdqOxtVc6yqvhQ2SvcKwA7vaEB/woco/G7X/0MOv95C9DreKNXbn0XbF1zzTWvv+CCC7yfG0AaNBMf+b0k55xzzuS11157/dTU1PkAvKlYg1IKutdD79HPo3PXX6U/v6DFfjOvYljStC+r0C/00Z1H5wt/i+6D/xvoLuR+/0Da54yPj2/cvn37Fa985Stn4dp5G+moJCGkpjQ5wJqE+N0rAMn111//MiDnRCOnqDrz6Nz5F9D7v5ZecQL+lFwwguTNtmROJXwZZGV1QSzjnRjMyeJs++icRufzfw29997s3+s+YPbL7rZ+3bp1l//Yj/3YJfADLBM4E8c4xMXEG9/4xnM2b978jFarNXi07/gBdO/9J3QfvyfdVaKtyekwlbN/6S/u4/hBdD77l9AHHnT3bwrkhd7GjRuvfcUrXnERXDsH0tsbCCE1pckB1jhEgPXGN75xy+zs7NXmJB5OUZn3vb33orv70/ZpwTBm8IIFrxKV8pVYZq6+pWMDNfNej8bXAPTTe9H53EegF06ln6noqTYAL37xi2+EH2CNg6NYkgRu2jQB0L7hhht2rV27dodp13KKyqC7C+g+che69/5/3ugnIHajdmUZzNNfut979C50H/hXYP5k4f2eALBq1apt559//gXbtm0zo1ZmSrzJfTQhjabJB6+8Ekze/OY3P7vdbq+R91v1BVkLp9C9+x+gj+y1QYMyihbTchAzc1mhar4ZXbK+iW4C3047jtLvnEb34TvTH69EfmBl2L59+3O3bdsm70fh1ImPPBEnW7duHd+2bdsFk5OTWwYm3T7xFHpf+zfoY/vz7+szbUhUmaCZ/tJ93V1A9+6PplOwOZg+qNVqTW7duvWSb/3Wb90I129xpJaQGtPUAMtMmQDZVf2OHTuuUkq1gfwRE6019MGH0Hvsbu+3rmwnGnayYc9aMd8GXsoNLgUxkEMGRiPy9dEn0d39qTzbY2pqatt3fud3noPgfrpFV4wL+33ceOONszMzM9tkvsEQrXvoHX4c3a9+Jn0P16bsKKNsc8FOpb88v7d/D3qP3wP0+n87VPZB69ev33XFFVeYAMvsU47WElJTmnqiMtNI9oS8cePGS5RSSThMb1BKoffYPdBHnwDgOkhvWiAIdGRd1Xzzg4lKauK9MhvNrrhH7p8+nv5m0InD9iPk7RulVPLiF7/4GegPrpradpdDEpTbO3funJmamtoEoHhksDOP3r7d0E9/o2+ReTrU248Fm6G/NB+9TjpN2J3P6vL7oKmpqW1zc3Mz6L8Pi22dkBrS1ANX3gidvP71r980Pj4+o5RK8n5k0dB7Yjf0sQPw7q0wV61ajNBkl6i2m6ygb0ax7JN+Wdm+mmEns2zkvoY+sg+9J3bb7z9v3yil2tu2bbsAHLlajARAsn379o1TU1NbgOITORZOpiMq8AMGnQXBcj8ZR4sy/eX7vYf+M/dpQrmPxsbGpmdmZmbWrFkj78PiCBYhNaXJJyw74nHxxRfPmulBIP/Eo4/sgz78OHQn7QRN4BJ2pAD8YRsRYFTJt2XlFBel+X444jQy/8Rh9A48BEnOvkmmp6c3wR/BanK7PRPsqN7q1aunxsbGBj59phdOQT/xgAsKAK+MnDICh/7yfH1kH/TRJxESXFAkc3Nz37Rr1y4z+g6wrRNSW2I4eJPLLrvsXBlgyRvc7eupo9DzJ/p+AsHesCqDBrMdUV8131w9A36HXxSAleHrzmkg+9HRAVO3yZo1a0yARfqRJ+Jk3bp168fHx2eBvpO3o3Ma+sCeNPg1w6BBIGzXDB36Z+Sj14N+6rF0lYL2rpRCu92enJiYkD8vY2D7J6RmNPkpFTvaMT09vVYp1Q5/vd2UAUAffRL65NNupEgEBnYuLhxVEu+r5pspQhg9q1NZ8JV+9uxcUJZ/4jB6Bx/yAoGcoCBZvXq1HMEi+SQAkGQA6Yk8N8jqdaFPPm33lfwdJxOk2ynorK15Dv0z8vXJ9H7DQUmgV69ePbNhwwb5i+6EkJrS1IPYu6rXWidAfsdmryazPwW4ESMTKMi6gEr7EK/Kj8u8ckk+oNOTvS74rSYXIPDm9sHY76bXcz9oWdTeARfsykYkRxjtqwb9Ifm9ffcX3xeHdH+tXr16dv369d4DOoUrEEIqTXQHb5giJ/fGalHI/Q0c5VdU0TdXzwYtCyICymYzyvPRvw9MwBXenwIGWYthLyYkebnwzL4xgbD5M8vMqwnY6Q/BR3//E1JQz/ZOSA2J4cC1J53Fkq6m7+GeCjIBQlBn/lSFfSjYqTr5Ee20HeDOBvC9Ufohg57yJMsj/L0373tVrr1kb2378oYbxVAk/RX6ggG5UAt/SoYQUi9iCLAshUlvRYfmnduzTjO80Vy8VNeXQZYZtAj7bXFiMCeLMv0wF6GpE3DKpBjvImIpSFXDb2tyekvl7C/6Z+ZLiu6Ryy4I2c4JqTlRHMThVWJeLkIP8TY8Xclgocq+EsvM1bR0bKBm3uvy/EG5CMXyKNrqCvGmCAflIpTBuRz9lNV2Coz+cPyAnN98W1aATAipNk1+ijCX8F6fsJOznWI22mI7zmC433aDFfUR+tk6eb4Wy0fuoziwIisjbN+59xoGQbHXjpQfN9NfoZ/DoNsVCCH1pumjArmfb7ERE++SU/mBjLx6rbJv3lY1F6HxF4PB19lHw7Upsw+rlMuvcb6A7ZuQ5tLkEayBwVUhcgQmGwWyHWUQ6Mi6qvlKXloHjvsuRF1JPjyfV/DD5ExO3vJ3nNyG6A/TL7r3Kmckq+kXwIQ0mugO4CU9paZdn2l/30mLEZrsElVX2DejWPbJvaxsX0XAY66wy/AlfIJwuAwKWO0Ipxajj1kwEO4b+8Qq/aH4RbkIxb1y0fXLhDSRKA/kgSMlIgCA7u9IAfjzWxX1bVk5xUVpvm/fluXLfzJHsUaGFq86qAvL9Ffu58ELCkKaS5QBVl4uQrcMblpLueF9JYMG41bYl1MTssMvCsBK84G+pzoRLCNnxsCTd7YTlBJluEBYCc9z6K/MR3F7Z7BFSLNo8j1YfQzKRWid7D9Vyy3YyFyENlh0+4AnmeFRmIsQItjVQRluHyqgUrn86u677z5/n/BigpBmEdUI1sBchMbJ/mOuPPvqwm1W2Yd4VX5c5pVL9AF/HxTkIiRnAHMRVssHBgdRbOuENIuoAizAdWLMRZiWs9mM8nz074OCXITkDGEuwor46O9/CCHNJaoAi7kI4abtAHc2gO+N0g/hk4TDg7kIK+YLBuQiJIQ0hKgCLOYi9L8PeWIwJ4sy/SXkIiRDxHsiFX5bk9NbKmd/0T8zX8JRWkKaTVQBFuBO4sxFGJwAdHn+or+sT84I5iKsmB+Ql4uQENIconqKEPA7MeYizLYjlo/cB08sZwvmIqyYnwNzERLSXKIbwQKWMGKi/LIMZOTVa5V985a5CMliaLg2ZfZhpXP51d0XsH0T0lyiG8FiLkL5XYi6knx4Pq/ghwlzEVbTXywXISGkGUQ3gsVchPCeNLTLSvIlfIJwuDAXYTX9xXIREkKaQXQBFrBIRyYCAOj+jhSAP79VUd+WlVNclOb79m1Zvvwn8yQzMrR41UFdWKa/cj8PXlAQ0lyiDLCYi1CUjVOWD/Q91YlgGTkzmIuwgj6K2zuDLUKaRVT3YDEXIezTiOlnz84FJfqp5/YBTzLDg7kIq+W77z5/n/BigpBmEdUIFnMRurjMK5foA/4+YC7C4cFchNXygcFBFNs6Ic0iqgALcJ0YcxGm5Ww2ozwf/fuAuQiHC3MRVsRHf/9DCGkuUQVYzEUIN20HuLMBfG+UfgifJBwezEVYMV/AXISENJ+oAizmIvS/D3liMCeLMn3mIhwt3hOp8NuanN5SOfuL/pn5Eo7SEtJsogqwAHcSZy7C4ASgy/OZi/DswFyEFfMDmIuQkGYT1VOEgN+JMRdhth2xfOQ+eGI5WzAXYcX8HJiLkJDmEt0IFrCEERPll2UgI69eq+ybt8xFSBZDw7Upsw8rncuv7r6A7ZuQ5hLdCBZzEcrvQtSV5MPzeQU/TJiLsJo+cxESEgfRjWAxFyG8Jw3tspJ8CZ8gHC7MRVhNn7kICYmD6AIsYJGOTAQA0P0dKQB/fquivi0rp7gozfft27J8+U/mSWZkaPGqg7qwTH/lfh68oCCkuUQZYA26qVSpbEg/CwbszeVi6s0EDKrCvjeVaD7cYnFlhXxylsm++/CnBGRsTP/s+UW5UAkhzSHKAMuQm0oEfgCj4QcsyMrhVFfVfDk95z5v9uoW998fUoIPr85VDkoCTRZn0OiIXKLEkIsZKTVBvWlv9IfgSyerYB5OQppLdAFW3u8C9Z3EVc5UgBx6CS9LK+jnVXvb0P115fq8oh8WS/kO+9qTeGPjAxGk0x+CXwDbPCHNJLqnCPOuGL267FUMAtk3WrmyqoEvP5MdBRNX3XY7wRX2SH3Ae6rK/Dgmb3gfDuHvLLnv2Qiw7SfcT6bNefX0z9i364mAim2ckOYS3QgW4HdwfbkIPS8rqPzlVfZNB2/+zNNMdloRcL9JpXx3pL79bNq+hr9ATpaHTP80KC2U3V9ynwRDMeH0NP0V+HDte9B+IYQ0g+gCrLyOLC/hMxB0nAYzMqOr7ct7tGQwk9eNmyCoDD/9XP5VPH/deuUsNjLS97WqnGV5dfTP3A8V3n9FSKOJLsAyV4/yCj83F2HelWq2yE7PVdlXro83sZZdLAMy3e+M2gfcVbzcH5wmPDPCfJvyvf0+VbafsrI3tWsCYDE6Q38IPlw7D0fROWJLSPOI7h6spd7fY4b3lSkjPzCoqm/XgxvNsnGacvXhqNioff8zMpgaBktJIqx0ftm0MTvNm+1D+iv37fIl7B9CSP2JcgTLkHvFqPvfDryurIHvVZsRJTGyJL+GkfvmfTDaEtaT4aIB9+v68PeHLMsAmf7KfVvHdk1I44kuwFpyLkLtymFUkI36e07VfLPYjHiZKQsoP+CR2yjFzyh6epBX98snb4pQvgKwI4hydEXDBQx90B+uL+AUISHNJLopwr4nqQpGscw0nL0hO4sObBnwAp6q+TButq6bvws8EcCV5cv74cJH2HnSWT5FQWlfvdk/IgiW+6xvDpf+ynwBLyIIaT7RjWAZzEhJ3v1Y9q03xNJ/haoq7Nt7meUyWfYHM1y5DH/APSk8+ZwlNPwHI0y1DBCyuS6t6Q/D9+p54UBI44k2wFqMcErO9pNylEZX2Bd/EIodAROBjne/1Ih9WxZThDz5rIyi6SZ/dFB8/2JHKHjNzFbSX7lv6P9ZGE4PEtJEogywlvIbQfLmVTO1la4MFymo6vre5wnKttO3I0jwzgKj9CXhzzPwxHNmFN3H5rV7LZDm1CoAACAASURBVGLzIDCXaBM40B+KD+TvH47UEtI8oguwmIswK+v+unL9gn1Blg1zEVbUL4BtnpBmEuVN7mGZuQjdCNnIfcBODQIofJqQnBnMRVgd364XPMhBCGkm0Y1gAX4Hx1yEsFOOpfj2s2n7yunBlcFchBX14do3cxES0nyiC7CYi7AfEwSV4aefy7+KZy7ClcNchBX0Q4VPyxLSaKILsJiLEMxF2HCYi7CiPlw7Zy5CQppPdPdgMRehKIsThC7J9z8jg6lhwFyE1fTt8iXsH0JI/YlyBMvAXITuJFGab94Hoy1hPRkuGqhEbr7YfFvHdk1I44kuwGIuQj/gkdsoxc9gLsLhwVyENfAFnCIkpJlEN0XIXISBJwK4snzmIhwuzEVYUV/AiwhCmk90I1gG5iL0NuXKZfgD7knhyecsoVF6br7YfK+eFw6ENJ5oA6zFCKfkbD8pR2l0hX3xB6HYETAR6Hj3S43Yt2XFXITDgrkIq+kbmIuQkDiIMsBiLsJwBAneWWCUvoS5CIcDcxFW1wfy9w9HaglpHtEFWMxFmJV1f125fsG+IMuGuQgr6hfANk9IM4nyJvewzFyEboRs5D5gpwYBFD5NSM4M5iKsjm/XCx7kIIQ0k+hGsAC/g2MuQtgpx1J8+9m0feX04MpgLsKK+nDtm7kICWk+0QVYzEXYjwmCyvDTz+VfxTMX4cphLsIK+qHCp2UJaTTRBVjMRQjmImw4zEVYUR+unTMXISHNJ7p7sJiLUJTFCUKX5PufkcHUMGAuwmr6dvkS9g8hpP5EOYJlYC5Cd5IozTfvg9GWsJ4MFw1UIjdfbL6tY7smpPFEF2AxF6Ef8MhtlOJnMBfh8GAuwhr4Ak4REtJMopsiZC7CwBMBXFk+cxEOF+YirKgv4EUEIc0nuhEsA3MRepty5TL8Afek8ORzltAoPTdfbL5XzwsHQhpPtAHWYoRTcraflKM0usK++INQ7AiYCHS8+6VG7NuyYi7CYcFchNX0DcxFSEgcRBlgMRdhOIIE7ywwSl/CXITDgbkIq+sD+fuHI7WENI/oAizmIszKur+uXL9gX5Blw1yEFfULYJsnpJlEeZN7WGYuQjdCNnIfsFODAAqfJiRnBnMRVse36wUPchBCmkl0I1iA38ExFyHslGMpvv1s2r5yenBlMBdhRX249s1chIQ0n+gCLOYi7McEQWX46efyr+KZi3DlMBdhBf1Q4dOyhDSa6AIs5iIEcxE2HOYirKgP186Zi5CQ5hPdPVjMRSjK4gShS/L9z8hgahgwF2E1fbt8CfuHEFJ/ohzBMjAXoTtJlOab98FoS1hPhosGKpGbLzbf1rFdE9J4oguwmIvQD3jkNkrxM5iLcHgwF2ENfAGnCAlpJtFNETIXYeCJAK4sn7kIhwtzEVbUF/AigpDmE90IloG5CL1NuXIZ/oB7UnjyOUtolJ6bLzbfq+eFAyGNJ9oAazHCKTnbT8pRGl1hX/xBKHYETAQ63v1SI/ZtWTEX4bBgLsJq+gbmIiQkDqIMsJiLMBxBgncWGKUvYS7C4cBchNX1gfz9w5FaQppHdAEWcxFmZd1fV65fsC/IsmEuwor6BbDNE9JMorzJPSwzF6EbIRu5D9ipQQCFTxOSM4O5CKvj2/WCBzkIIc0kuhEswO/gmIsQdsqxFN9+Nm1fOT24MpiLsKI+XPtmLkJCmk90ARZzEfZjgqAy/PRz+VfxzEW4cpiLsIJ+qPBpWUIaTXQBFnMRgrkIGw5zEVbUh2vnzEVISPOJ7h4s5iIUZXGC0CX5/mdkMDUMmIuwmr5dvoT9QwipP1GOYBmYi9CdJErzzftgtCWsJ8NFA5XIzRebb+vYrglpPNEFWMxF6Ac8chul+BnMRTg8mIuwBr6AU4SENJPopgiZizDwRABXls9chMOFuQgr6gt4EUFI84luBMvAXITeply5DH/APSk8+ZwlNErPzReb79XzwoGQxhNtgLUY4ZSc7SflKI2usC/+IBQ7AiYCHe9+qRH7tqyYi3BYMBdhNX0DcxESEgdRBljMRRiOIME7C4zSlzAX4XBgLsLq+kD+/uFILSHNI7oAi7kIs7LuryvXL9gXZNkwF2FF/QLY5glpJlHe5B6WmYvQjZCN3Afs1CCAwqcJyZnBXITV8e16wYMchJBmEt0IFuB3cMxFCDvlWIpvP5u2r5weXBnMRVhRH659MxchIc0nugCLuQj7MUFQGX76ufyreOYiXDnMRVhBP1T4tCwhjSa6AIu5CMFchA2HuQgr6sO1c+YiJKT5RHcPFnMRirI4QeiSfP8zMpgaBsxFWE3fLl/C/iGE1J8oR7AMzEXoThKl+eZ9MNoS1pPhooFK5OaLzbd1bNeENJ7oAizmIvQDHrmNUvwM5iIcHsxFWANfwClCQppJdFOEzEUYeCKAK8tnLsLhwlyEFfUFvIggpPlEN4JlYC5Cb1OuXIY/4J4UnnzOEhql5+aLzffqeeFASOOJNsBajHBKzvaTcpRGV9gXfxCKHQETgY53v9SIfVtWzEU4LJiLsJq+gbkICYmDKAMs5iIMR5DgnQVG6UuYi3A4MBdhdX0gf/9wpJaQ5hFdgMVchFlZ99eV6xfsC7JsmIuwon4BbPOENJMob3IPy8xF6EbIRu4DdmoQQOHThOTMYC7C6vh2veBBDkJIM4luBAvwOzjmIoSdcizFt59N21dOD64M5iKsqA/XvpmLkJDmE12AxVyE/ZggqAw//Vz+VTxzEa4c5iKsoB8qfFqWkEYTXYDFXIRgLsKGw1yEFfXh2jlzERLSfKK7B4u5CEVZnCB0Sb7/GRlMDQPmIqymb5cvYf8QQupPlCNYBuYidCeJ0nzzPhhtCevJcNFAJXLzxebbOrZrQhpPdAEWcxH6AY/cRil+BnMRDg/mIqyBL+AUISHNJLopQuYiDDwRwJXlMxfhcGEuwor6Al5EENJ8ohvBMjAXobcpVy7DH3BPCk8+ZwmN0nPzxeZ79bxwIKTxRBtgLUY4JWf7STlKoyvsiz8IxY6AiUDHu19qxL4tK+YiHBbMRVhN38BchITEQZQBFnMRhiNI8M4Co/QlzEU4HJiLsLo+kL9/OFJLSPOILsBiLsKsrPvryvUL9gVZNsxFWFG/ALZ5QppJlDe5h2XmInQjZCP3ATs1CKDwaUJyZjAXYXV8u17wIAchpJlEN4IF+B0ccxHCTjmW4tvPpu0rpwdXBnMRVtSHa9/MRUhI84kuwGIuwn5MEFSGn34u/yqeuQhXDnMRVtAPFT4tS0ijiS7AYi5CMBdhw2Euwor6cO2cuQgJaT7R3YPFXISiLE4QuiTf/4wMpoYBcxFW07fLl7B/CCH1J8oRLANzEbqTRGm+eR+MtoT1ZLhooBK5+WLzbR3bNSGNJ7oAi7kI/YBHbqMUP4O5CIcHcxHWwBdwipCQZhLdFCFzEQaeCODK8pmLcLgwF2FFfQEvIghpPtGNYBmYi9DblCuX4Q+4J4Unn7OERum5+WLzvXpeOBDSeKINsBYjnJKz/aQcpdEV9sUfhGJHwESg490vNWLflhVzEQ4L5iKspm9gLkJC4iDKAIu5CMMRJHhngVH6EuYiHA7MRVhdH8jfPxypJaR5RBdgMRdhVtb9deX6BfuCLBvmIqyoXwDbPCHNJMqb3MMycxG6EbKR+4CdGgRQ+DQhOTOYi7A6vl0veJCDENJMohvBAvwOjrkIYaccS/HtZ9P2ldODK4O5CCvqw7Vv5iIkpPlEF2AxF2E/Jggqw08/l38Vz1yEK4e5CCvohwqfliWk0UQXYDEXIZiLsOEwF2FFfbh2zlyEhDSf6O7BYi5CURYnCF2S739GBlPDgLkIq+nb5UvYP4SQ+hPlCJaBuQjdSaI037wPRlvCejJcNFCJ3Hyx+baO7ZqQxhNdgMVchH7AI7dRip/BXITDg7kIa+ALOEVISDOJboqQuQgDTwRwZfnMRThcmIuwor6AFxGENJ/oRrAMzEXobcqVy/AH3JPCk89ZQqP03Hyx+V49LxwIaTzRBliLEU7J2X5SjtLoCvviD0KxI2Ai0PHulxqxb8uKuQiHBXMRVtM3MBchIXEQZYDFXIThCBK8s8AofQlzEQ4H5iKsrg/k7x+O1BLSPKILsJiLMCvr/rpy/YJ9QZYNcxFW1C+AbZ6QZhLlTe5hmbkI3QjZyH3ATg0CKHyakJwZzEVYHd+uFzzIQQhpJtGNYAF+B8dchLBTjqX49rNp+8rpwZXBXIQV9eHaN3MREtJ8oguwmIuwHxMEleGnn8u/imcuwpXDXIQV9EOFT8sS0miiC7CYixDMRdhwmIuwoj5cO2cuQkKaT3QBVt7USR52eF/3d5J18O16gBWVqDT3SCkRiJXm28+45GAqQYT3DxYwGVaEv++W93tvYe48E6xr7d4DYvSU/lB8AP37Imf/EELqT3QBFnMRZi9iZEl+DSP3zftgtCWsD5hETmARKdNnspIGKpGbLzbf1nG0ipDGE12AxVyEfsAjt1GKnzEoF6FSKtm2bdu40NuIsO0WYL+Xiy66aHx6enrNoFyEWmvozmmYKWQFuDYGFzD0QX+4vmAJU4S8mCCkhkR3kgrvgcjt2LTrGO3N2Vl0YEZkwoCnaj60CLog1rFRjqjPgqJS/M5p6PnjNrjKCw6SJBl/05vetM3fSZiECC4iZQriGL7qqqvWbNy4cUtxCigF6C7w1NfTipxAHbIdhcEB/ZX5gqIpwrVr126am5uT7ToBsKZ/C4SQqhNdgBXe3F50k7sXEIhO0ozAePcWVdCX90AB8Pp4peHdM2KCsVL808eAE4dTLecKXimFdrs9+ZKXvOSqYFHsAVYCNz2YAEiuuuqq2bm5uR15o1e23Ouh99TX0xHEnBO/tv+BC5izMv2V+fqJ3d4FRN5F3vr163dccsklG1etWmU2kSBt61P9WyeEVJnoAqxFbyYdMPpjB4i061er6psRLRmymEDMjCqZoEzWjdrXxw6g99TX+wJeuY9ardbUxRdffN2uXbsmkQUTSKcJZ7O/2G54XwNgE9ITbwIA27Zta19//fU7169ff4l8UjYso9dBb/8eF5Brsd8gylm9NsE9/RX7vce/ZHdg0T5qtVqTN9544/Oe/exny3vrTFufOYO2QggpiegCrEUxgYDyO0ovOFDV9/NGvbQomyBMB+WR+0eegD74MAAU3tyulGrPzMzs+r3f+70XwWcc6UlnS/ba9PY8hTSw2og0yDKfN3nDG95wzjd/8zfflCTJuPxJhrCMbge9r3/BBeVK7CeIsmg/yjj0V+afOAS9f0/ufpHlHTt2fPvrX//6HatXr5YXDqatm8CaEFJxYrvyd1fyQZ1fATNIBCCLX2RA4y2opg/hmBOAnaLLltt6U8bofX30CfT2fgV6/iTU+Crvit6glMLExMSm5z73uW/6yEc+8uQ73vGOf3/yySd7AHqZMg43mtVDM8kNHlutVvJd3/VdG9/61re+dnZ29uq81DjyBN47sAe9J+6368uWbwIEE/yGI470V+gD6H7tNqi5CwHAH1mE219jY2PTb3rTm9792c9+9q233HLLY/Pz8wnSdt1GGlibe7Ka2tZJtegBOAXgCID5oJ4MoFX2P+AssQppJ9QC0H7DG97wjAsvvPCZrVZroqhT04ceRXfP7cDR/QDESBFcQCDvHzJBjrnXqGq+8ZQsi9Evs8BMcwTVo/XHp5B806VIprf07Rf3WRTGx8dnzzvvvB1XXnnlE3v27Nm3f//+TrfbNZuWYWYT/wyJeb927dr2D//wD2/7mZ/5me+78MILv9sbqcq+M4lSCgv/+vvQ3/iSbRtKu31h/2fB/jJ19Ffu6yP70L72tVCtMQzaX2NjY+u+5Vu+5YJ169Y98NBDDx196qmnusiuT9D8ts6/av0lSC9iVwNYB2At0mC/A3fdTHKIKsBKkmQiN8GzCLD0sf2AylqWaV6mWwPcKE32XmflyvnGQ/o+vH8rLJfqnziIZGYrknMuBxLXJMN0OdnV/dz27dsvfs5znoOdO3eeVErN7927d2FhYSH8vzcNG1hdffXVk6973es23nzzzZe/+c1vfvvWrVtftVjuQaUU9PFDmP/4LwDzJ+20lR1NzNqYN+IYlumv3F84idY3XQq1ccei+2vVqlXnXnvttddef/31T23duvXU2NhY56GHHpqHO/E1ta2TaiIDrgmktyww0BpAVFOERcGV50BMZZn3SsQzvl5p37w3BQW3wGwjnOooxT99Et0HPoPk/Gch2XYVlEpnw/Kmc5VSmJqauujKK69854UXXvjtL3/5y29//PHHv3r48OFDvV6v8UPWa9euXbNp06ZtW7ZsuWbjxo0varfb014QlVMGAN3tYOE/Pgx97GD6vZuAXGy7r3dU/WX6K/QXTqFz519i/LzroabWF+4vw+rVq3c973nP+5Urrrji35988snPf/3rX7//+PHjx7rdbuPbOimHXq+Hp59++sTBgwdPPfLII8fuuOOOI/fcc4+ZGpTtro30SeZJACeyv072RxBZgCUpSihcdIVq7qMIzveV9uUJwFxNy+kK60mpJL/32N3o3v9pJLPnAatns3X9gFjus1arNTU9PX3d9PT0dRdddNH8wsLCPq114w/ssbGxLa1Wyz6yXxSEhiNa3UfuRPfOv8xWEvsli9zNDdvhyKimP1xf99B97Ivo3P1RtL/5TUDSKpwmNPVJkkzOzs6+aHZ29kU7d+480el0Dmmt5b0whAyT3sLCwqH5+flDp06dOnDs2LHHDh069PjDDz+871Of+tRjf//3f3/o0KFD4T2w40hHtEygNQ/eoxVfgFV0E7V7YzwX1Jghf1OPoDOtpA+k92OJk4BX76r8j16WP38S3S99DMnmS9C65FuB9kRfYFV0/1ySJOPj4+Pn5gViTSznvdrvOGcUSz/1dSx85g+hTzxlR0Dl1K2crg0DeqXoD9vHySPofPZ/INm0C60LvyV3FKto/7ZarakkSaaW6heNatIfjR8S9mGGogv+svyJCb//7Xa7hy+//PIHX/CCF+x++9vffu/dd9/9lZ/6qZ/avX///g78QKsNF2gdQeSjWdEFWGFD6lsOPzAI9XB6ruq+95nEuvYcIE8IJfv6wMPo/Od/h5regmTbVdDZ/VhFnUBIXmfXZD8kt3M/+TQ6//6n6D16F3SvByj/+y8+FWT/JtAfvq+hDz6Mzu0fgppYA7X1ykXWSlns5E2/ej7gH9chRRePVfNbrdbM2rVrr127du21mzZtOrBjx46v3XDDDXd++tOf/tQP/uAPfiXYjAm0EgCHEXGQFdVN7q1WayK8ypBX+d09t0OLpwjtFSoAOw1gXgE7zVVV3xvNyk6sKhPNcmWWVcTHkX3QT38DyeZdUGvmoJLEO9DDTkHW53UMTfTDq2VZ5zknDqPzn7egc9dfAaePeu3ElrXYP7IsHfpD96F70EefhD5+AMn67UjWbck9uQ3cv/Rr4Q8iDMLq4CdJMjUxMbFtZmbmil27du36/u///nNWr1699/bbbz8C0a0DGEMaZEU7XRhdgBWe0EzZ/kyDeIrQBgiibF/hAoWq+jIQ01YwC0S5Sn5PA4cfh96/B61NO6HWbbH7KCSvbtCypvhFFwmyrA89gs5/fBjdu/4aOH4gWw9uXwSBe2GZ/tnzux3ow4+nQdbseUimNw/cpyzXr2zeyz9ZF15M5f1V2B8bHx/ftm7dumdcd911F77whS88/rnPfW7fwYMHO3CnJRNkncLiA7yNI7oAq2i41vuZBsAFAvLk715s2baYivkKsFfTeZ4KVjJ11fA1cGQvuo98FmrVOrS2XGLdMLiQyIO/6X5RcKaUQu8bX0bn1t9F98sfB04cgg7bgVlVBftB9Zfpn2W/14E+/Bh6T9wPNTULtX6rvfE9D1lfVKZfLT8854RuGNzUzW+1WhOTk5Pbtm7detm3f/u3Txw+fPjRL33pSyfgWvoY0nNxdEFWdAGWjMIlNsAyU4QQLcEECdlq8krU3txaMR9Il5tBIvNeqawiKyv4dZXxoYETT6H76F3Q+78GteF8qNUbBl5d5dFUP/d+ilNH0P38X2PhE7+O3tc/D8yfsN+zDdBF2XzNdj9AlOmPzEevA31kH3qP3AV97ACS2XOByWmoxP14f7jfi8r0q+cPoui4r5uvlGq12+3169evf8aznvWs9ePj4w/dcccdR4U6lv0dX9b/oOZEF2AVrRD+0Kg94dtoQLyE5Yr6ctRLQXTu5jOLTdly1fyFE+g9cT+69/0L9OHHoKa3QK3ZmPqiU4upHL5i/jg6n/tLLHzi19H54t8BR5+E7nbtd+1978qVIcvIL9Mfka81cPoIeo9/Cd0vfxz6xGGozRcjmVjtnagXK4cndvrl+mZZ3p9cPsirka+SJFk1PT19yZVXXjk7NTX1wG233XYEjnGk5+QTiIToniIMrzRMnV8RnOSz/2ix3C2opg/huE48LdtRsfAEgIr6vQ56h/ei9+8fRueuj6Q/5bDz+UjO/+Z0ZGt8NaAUtJigkXu0UWWtAd1F7+gT6D5yF3p7bkf3q7dBnz7Rt/81YBuOKQctvf//Q79cvzsP/fQ+9G77Ayzc9gdoXfJtaJ13PZKtVyDZcgm0SgDzQ7w521l0+/RH6hfVLWd5KX6rnbazZCzrpF0gJQPJkKxufPPmza9++9vfPj45Ofm7v/Irv/LwiRMnzM85TCO9J+sAIrjxPboAy7vyB/oCLiU6Qy9Q0badQTaryvphvffGr6+VP38Sva9/Ab2vf8Etm9kKNTVrTzxNRndOQR98BLpzKv/70fC/OMAF2kEd/er7vd2fRG/3J9P6pAW1ZhPU2k0g5KwxNoHkmy6Dmt6cZtaY2Qa1ahp6fDWgEu/cCfSfU83rpk2bXv793//9nePHj//ub/zGbzx2+vRpE2RNIQ20Do/+w42WqAKsvNGrPifnZG+G8zUAiMCmyr7Klpk3WpSRU1aqvr5+6nGow49X5t8zKr9vKkoFZeQ49Ovr97rAkb3oPb136dvHMv899IfqAwAC3+uvAe8HoeUFdZl+7+E703LShtpwHlqXvhiti16AZO5C6NWzUDkZCPJuip+bm3vpm970pkfvueeeWz7+8Y8fFrNFk0hHsho9itX8S35BGGGHZcA/Juz7rDEqKdTA18ECpdKDR27DLKNfI184tjJ7ldvQgU6fPv3R+grwAhh564O3nihXyu91oPfvwcJtH8T837wTC7f+V/Qe+k/o+eP9t9bYbboNtFqt8YsuuujN73rXu164devWcaQxR4I0wJrO3UCDiCrAksjG4ZcBZCc1rbMIH2mdLXvbqa6vxAFv1jedgO0HlOsX6NfEV7D7GHBlBbif5tDo/9FL+vTpj9QH/H5am/WCehnlVNXXR57Awn/+Beb/8ZfQ+dxHoI/tRzhdqLX2RrK01mi1WtPXXXfdD731rW89Hy7maCMNsho9ixZdgBX+pkdYNkeGHDrVGunUW1Zv2p48AVbOB9wBYpZB1GvYgM380a+Pb9sE0rYQ1gOuTJ8+/XJ8DdFvZ2V7G4eo1wp2NKnqfu+J+7Hwqd9C57YPorf/azDIG9/D8+yqVat2fM/3fM93w41gAWmAZRPXN5HoAqzF7sEKl5orFGWW5ZSr7HufSSy0fUTOCvTr4+vA1xgMffr0R+errFLrQAqKSlbXwT99DJ07/x8sfPI30h/JVYv/GPK2bdtu+tCHPnQtXJBlEkOPo6FEF2CFQ5myLi0D0Fn0nlVriAYm2pCqsm8q4K48vEBMueUqeE+/+r589eq02J4s06dPf+S+DFiU6JtNPw1Zb/rtuvidBXTv+yQWbv1d6GMmHZc8l/rn2CRJ1rzqVa/6AbhE0EA6ijWJhhJdgBX+iJqsS8vwW5V5CeoAdyKsqm8CMSXK9tUEa9p1AvRr4ouywXaQSjiKPn36pfqZJ//M9Jvtp7M6P5qph697HXTvvxULt30Q6M7b82r4g6SmPDMzc/UHP/jBaEaxoguwZFSdu9x6LlK3BxC8eMaeCKvoA8jPRajdsWI3kHUE9GviC5S3w7Eo9OnTH6GvXJyVuxlxfGtXVSsfCyfQvfef0L3nf6VVwTk2eKpwzUtf+tJXoX8UiwFWEyj6BVqLOdlBXJEoV4esXlfct1dY3meHu1LJygp+Hf2a+FkwZm6oNctMvZy2oE+ffkk+kF44mT45O8BN2WxHC6eW/pF96NzzP9E79CgMJtCSf0qp9tzc3LVve9vbtsEfxWKAFQUq/TPDoEq5ei2divswBzrcwaBF2QRhOijTr75vg+fMV1lZw9XbUU769OmX52fLzAWS6attMAb33nNq5kP3oPd+Bd3dn8RiuQvHxsZmvuM7vuM6RDCKFV2AlTc9mJuLULuDR97sZ5ZDV9s3B7ZGdjCY7YgV+8r0a+Pbzt6UZX3g0KdPvxzfjG4VbiSPmvr6+EF0H/hX9A48iLzfmTSBVqvVmtq1a9dz2u22CbDMD482LsBq9I985cFchP4CezKnXxsfSNeRin3TtwAucKNPn355fth/myolvJr7+sBD6D12N9obd6SrBOdaAEiSZHzdunXnPve5z52+7bbb5uGCrMYN+DTuAw1i0M3t1lGwDcqOKpjGA1c2TlX98MrJjH7pnDKyg4V+PXzbuWVl68O1D9PS6dOnX56vVbButp6cerPBCXL+XzXz9ZF96O3bDd2ZR0hws/vUq1/96vPhYpBGxiKN/FBFMBch3PSiEqsq+rXyhWMrs1e5DR3o9OnTH62vgL5p/rxjXZZr7fc60Acfgj78WOb3/wApkAZYl1566blo6MiVIbopQkPe0GVaTl+V8svIovggHqu0Lxu+ypaF04qFU1H0q+1r19lB+/XI2oqSK9KnT3/0PvzjWK6nw+3m1NfR7z29F/rpvdAbLoBEnnOTJBmfnp7eAAZYzcLs5IG5COEajx32FfXyoKqsD6S/ySIOsmvaRQAAIABJREFUeq/eVfkfnX4tfNMWlEI6Laz9erPBMECnT5/+6HwouODEeGm1Vw+V1mk0wD/5NPTJp7PvxY1gBefc8dWrV8+gwfdfAQ39UINgLsIUe/znrEC/Pr4O/DBoC6FPn/7ofJVVah1IQVHJ6rr7vQ7Q6+Sea4OnCxsbWBmiHcGSUfWgKcK+YV9xBKmK+6ZeXoUYUR4QuSdt+pX3bVsQZSXag20joE+ffhm+0VXmIyvLqTYl6mVfXmcf6Aumsu9FhXUMsJrEYje6y4PEC1yUXwe4E2FVfZ39RwZl/pkadopR0a+PD9iA2wbRgxz69OmX48PVGXRQZfpy1RTfrJadV4t+FkkEYI0Nshr7wYpgLsK0rOQGdFZPvx6+oPK52OjTj9lX9vDO34w4vrWrqrUfsshtOfJnGhoXj0Q7glWIuSKBf9ViRhZg6pU46VXQ14Ab1rafPfgu+gr0a+Nrt39lW/DK6K+nT5/+6HwNeA+pKKT/MRfMsg9X0mmCnzOQEUwRNi6gCokuwFoUeWDAlc2ViBJOlX0ga/TiYDBPt3jbgTswAPp18D1PwXZ4UK5eOvTp0y/Hlx23OY6tD1ev8py6+zISBSASPiMWGh9BhjAXodP6yvRr42s4P9z1oUOfPv1yfGWCrKKN5FF3P1w9O7+GP48UA9GNYDEXob8gvBKhX30fSNfxuirzpm8BXOBGnz798vyw/zZVSnhN8AV5N7XHFGRFFWAtZXhSi8Xm5GeGezUAiMCmyr7Klpk3WpSRU1aKft38vqkKFZSR49CnT39kvgw+TL3KHIvoz+02a+wXUZQ2p8lEFWAtNRehhmssCoBWruHooAVV2TfvTUHBLTDb0Nky+jXyEcquLJf3dWX06dMfqa+y/9jju+BYl+vJ47yOviScMYqNqAIsCXMRCk9K9Ovha9HZab8eWVtRckX69OmP3od/HMv1dLjdnPo6+u5za0hiDLSiC7CYixC1yLVHf7Bvh+sVKp2LjT79mH0ouODEeGm1Vw+V1mk0wIejKBdhLET3FCFzEabY4z9nBfr18XXgh0FbCH369Efnq6zSG8zR/UUlq+vum7qczo33YDUc5iKEPfAHnrTpV963bUGUq5aLjT79mH2jq8xHVpZTbXXILbhcHwAWy0UYA9EFWMxFCNELwE4xKvr18QEbcNsgepBDnz79cny4OoMOqiqfW3C5vlktO68O+lmkphPdFCFzEaZlJTegs3r69fAFlc/FRp9+zL6yh3f+ZsTxrV1Vrf2QmAKqkGhHsAoxVyTwr1rMyAJMvRInvQr6GnDD2vazB99FX4F+bXzt9q9sC14Z/fX06dMfna8B5iIUxBZsRRdgLYo8MODK5kpECafKPpA1enEw1CXXHv3Bvucp2A4PytVLhz59+uX4suM2x7H14epVnlN3PwimmIswApiL0Gl9Zfq18TWcH+760KFPn345vjJBVtFG8qi7H66enV+ZizACmIvQXxBeidCvvg+k63hdlXnTtwAucKNPn355fth/myolvCb4AuYijAjmIoR/EIiyUvTr5vdNVaigjByHPn36I/Nl8GHqVeZYRH9ut1ljvwjmImw4zEXoFlQ61x79wT5C2ZXl8r6ujD59+iP1VfYfe3wXHOtyPXmc19GXMBdhpDAXofCkRL8evhadnfbrkbUVJVekT5/+6H34x7FcT4fbzamvo+8+t4YkxkArugCLuQhRi1x79Af7drheodK52OjTj9mHggtOjJdWe/VQaZ1GA3w4mIswMpiLMMUe/zkr0K+PrwM/DNpC6NOnPzpfZZXeYI7uLypZXXff1OV0brwHq+EwFyHsgT/wpE2/8r5tC6JctVxs9OnH7BtdZT6yspxqq0NuweX6AMBchBEGWMxFCNELwE4xKvr18QEbcNsgepBDnz79cny4OoMOqiqfW3C5vlktO68yF2FEMBdhWlZyAzqrp18PX1D5XGz06cfsK3t4529GHN/aVdXaD4kpoAqJdgSrEHNFAv+qxYwswNQrcdKroK8BN6xtP3vwXfQV6NfG127/yrbgldFfT58+/dH5GmAuQkFswVZ0AdaiyAMDrmyuRJRwquwDWaMXB0Ndcu3RH+x7noLt8KBcvXTo06dfji87bnMcWx+uXuU5dfeDYIq5CCOAuQid1lemXxtfw/nhrg8d+vTpl+MrE2QVbSSPuvvh6tn5lbkII4C5CP0F4ZUI/er7QLqO11WZN30L4AI3+vTpl+eH/bepUsJrgi9gLsKIYC5C+AeBKCtFv25+31SFCsrIcejTpz8yXwYfpl5ljkX053abNfaLYC7ChsNchG5BpXPt0R/sI5RdWS7v68ro06c/Ul9l/7HHd8GxLteTx3kdfQlzEUYKcxEKT0r06+Fr0dlpvx5ZW1FyRfr06Y/eh38cy/V0uN2c+jr67nNrSGIMtKILsJiLELXItUd/sG+H6xUqnYuNPv2YfSi44MR4abVXD5XWaTTAh4O5CCODuQhT7PGfswL9+vg68MOgLYQ+ffqj81VW6Q3m6P6iktV1901dTufGe7AaDnMRwh74A0/a9Cvv27YgylXLxUaffsy+0VXmIyvLqbY65BZcrg8AzEUYYYDFXIQQvQDsFKOiXx8fsAG3DaIHOfTp0y/Hh6sz6KCq8rkFl+ub1bLzKnMRRgRzEaZlJTegs3r69fAFlc/FRp9+zL6yh3f+ZsTxrV1Vrf2QmAKqkGhHsAoxVyTwr1rMyAJMvRInvQr6GnDD2vazB99FX4F+bXzt9q9sC14Z/fX06dMfna8B5iIUxBZsRRdgLYo8MODK5kpECafKPpA1enEw1CXXHv3Bvucp2A4PytVLhz59+uX4suM2x7H14epVnlN3PwimmIswApiL0Gl9Zfq18TWcH+760KFPn345vjJBVtFG8qi7H66enV+ZizACmIvQXxBeidCvvg+k63hdlXnTtwAucKNPn355fth/myolvCb4AuYijAjmIoR/EIiyUvTr5vdNVaigjByHPn36I/Nl8GHqVeZYRH9ut1ljvwjmImw4zEXoFlQ61x79wT5C2ZXl8r6ujD59+iP1VfYfe3wXHOtyPXmc19GXMBdhpDAXofCkRL8evhadnfbrkbUVJVekT5/+6H34x7FcT4fbzamvo+8+t4YkxkArugCLuQhRi1x79Af7drheodK52OjTj9mHggtOjJdWe/VQaZ1GA3w4mIswMpiLMMUe/zkr0K+PrwM/DNpC6NOnPzpfZZXeYI7uLypZXXff1OV0brwHq+EwFyHsgT/wpE2/8r5tC6JctVxs9OnH7BtdZT6yspxqq0NuweX6AMBchBEGWMxFCNELwE4xKvr18QEbcNsgepBDnz79cny4OoMOqiqfW3C5vlktO68yF2FEMBdhWlZyAzqrp18PX1D5XGz06cfsK3t4529GHN/aVdXaD4kpoAqJdgSrEHNFAv+qxYwswNQrcdKroK8BN6xtP3vwXfQV6NfG127/yrbgldFfT58+/dH5GmAuQkFswVZ0AdaiyAMDrmyuRJRwquwDWaMXB0Ndcu3RH+x7noLt8KBcvXTo06dfji87bnMcWx+uXuU5dfeDYIq5CCOAuQid1lemXxtfw/nhrg8d+vTpl+MrE2QVbSSPuvvh6tn5lbkII4C5CP0F4ZUI/er7QLqO11WZN30L4AI3+vTpl+eH/bepUsJrgi9gLsKIYC5C+AeBKCtFv25+31SFCsrIcejTpz8yXwYfpl5ljkX053abNfaLYC7ChsNchG5BpXPt0R/sI5RdWS7v68ro06c/Ul9l/7HHd8GxLteTx3kdfQlzEUYKcxEKT0r06+Fr0dlpvx5ZW1FyRfr06Y/eh38cy/V0uN2c+jr67nNrSGIMtKILsJiLELXItUd/sG+H6xUqnYuNPv2YfSi44MR4abVXD5XWaTTAh4O5CCODuQhT7PGfswL9+vg68MOgLYQ+ffqj81VW6Q3m6P6iktV1901dTufGe7AaDnMRwh74A0/a9Cvv27YgylXLxUaffsy+0VXmIyvLqbY65BZcrg8AzEUYYYDFXIQQvQDsFKOiXx8fsAG3DaIHOfTp0y/Hh6sz6KCq8rkFl+ub1bLzKnMRRgRzEaZlJTegs3r69fAFlc/FRp9+zL6yh3f+ZsTxrV1Vrf2QmAKqkGhHsAoxVyTwr1rMyAJMvRInvQr6GnDD2vazB99FX4F+bXzt9q9sC14Z/fX06dMfna8B5iIUxBZsRRdgLYo8MODK5kpECafKPpA1enEw1CXXHv3Bvucp2A4PytVLhz59+uX4suM2x7H14epVnlN3PwimmIswApiL0Gl9Zfq18TWcH+760KFPn345vjJBVtFG8qi7H66enV+ZizACmIvQXxBeidCvvg+k63hdlXnTtwAucKNPn355fth/myolvCb4AuYijAjmIoR/EIiyUvTr5vdNVaigjByHPn36I/Nl8GHqVeZYRH9ut1ljvwjmImw4zEXoFlQ61x79wT5C2ZXl8r6ujD59+iP1VfYfe3wXHOtyPXmc19GXMBdhpDAXofCkRL8evhadnfbrkbUVJVekT5/+6H34x7FcT4fbzamvo+8+t4YkxkArugCLuQhRi1x79Af7drheodK52OjTj9mHggtOjJdWe/VQaZ1GA3w4mIswMpiLMMUe/zkr0K+PrwM/DNpC6NOnPzpfZZXeYI7uLypZXXff1OV0brwHq+EwFyHsgT/wpE2/8r5tC6JctVxs9OnH7BtdZT6yspxqq0NuweX6AMBchBEGWMxFCNELwE4xKvr18QEbcNsgepBDnz79cny4OoMOqiqfW3C5vlktO68yF2FEMBdhWlZyAzqrp18PX1D5XGz06cfsK3t4529GHN/aVdXaD4kpoAqJdgSrEHNFAv+qxYwswNQrcdKroK8BN6xtP3vwXfQV6NfG127/yrbgldFfT7/B/sQUkrmdqBO9gw8Bp45U8/scgq8B5iIUxBZsRRdgLYo8MODK5kpECafKPpA1enEw1CXXHv3Bvucp2A4PytVLh34z/WTDeWhd8GwkFzwLyTmXQ63eALTGUCt6XehjT6L3xAPoPvxZ9B68A3r/nlp8/0vxZcdtjmPrw9WrPKfufhBMxZiLMLoAK28H5+YihN+AIBqUv6CaPoRjOwLTARR1EKBfF1+L/SvRYTlbn369faUUMDYBtW4r2pe+GK0rb0KyaRdUawzhDcThAzzh/S9V87FqHVpzO9G+4iboXg/64IPofulj6NzzP6Gf3gfVOZ3Wl/j9n6kvj1+vfx4UY9TdD1fX/T+NFAvRBVjMRegvCK9E6FffB3L6uEGdn6Jfa39iNZK5i9C65v9E69KXQK2dS7WCE9ZiAU+VfZUkUHMXIXnRO9F+zvehe98n0PnC36C3bzdw6iige9XfX0V+2H+bKiW8JvgC5iKMCOYihH8QiHJ4pUW/+n7fVIUKyshx6NfGh0qgNu1E+xkvQfs53wusmvECFMA/aRX99IykVv7kNNrXvgatXS9E50sfR/eef0DviQeA+eP5320F968MPky9yhz3JaTLzSrh/6tufhHMRdhwmIvQLah0rj36g32EsivL5X1dGf36+FOzaJ33TIy98B1Q51yerrKEoKXIqbW/egPGnvM9aJ1/PTqf/X/R3f1J6KP7/G+s7P1V4KvsP/b4LjjW5XryOK+jL2EuwkhhLkLhSYl+PXwtOjvt1yNrK0quSL82vtpwAdrXfCfaz3ojMLmu/yJQ5U+zFZ3MmuKrLZdi7FvfCTW3A93P/w16++6D1r3S99dAH/5xLNfT4XZz6uvou8/tzqvmfWyBVnQBFnMRoha59ugP9k1bUAqVzsVGf3m+OudyjD3ne9G67GXA2CqEIz2LjQg13p9aj/b1b0Ayex4Wbv2v6D12d6X3L5QIToyXVnv1UGmdRgN8OJZyj16Tie6HRhfbyeFSlR0gyizLKVfZ9z6TWGiP/5wV6NfH14EfBm0h9Kvrq61XYuwFP4rWZS+HGp/qW3e597A01m+NoXXxjRh78f+N5NIXV3r/qqzS+xi6v6hkdd19U5fTufEerIbDXISwB/7Akzb9yvu2LYhy1XKx0V+ar7ZeibHn/zBaO18ANb7K66eKnsIq+omEWPzWhTdArVqP+ae/gd437q3k/jW6ynzA9dMqe1OH3ILL9QE/mIp1FCvaESw5TehPF8I1Etm4gjpAnAgr6mu4A8GU7WvW9k0d/Rr5omzQoje3jqJfB19tvhhj3/IWtHa+ABjzgyvnp2VTL52YfbXlYoy9+F1Izrm8mvs38+SfVkE/ndV5fXqdfbNacI5d7ghmE4guwDIHaOFy67lI3R5A8NuQqrAPoDq58+gP1xdUPhcb/YG+mt6C9nXfhdbFL8qdFgSw7JNSVL5qIbngWWjf8INIpjctro+6PSgXZ+VuRhzf2lXV2g+JbdRKEt0U4aI7O2slJphxb9zJz1y9qAr7GnDD2vazB99FX4F+bXzt9q9sC14Z/fX0K+S3J5DsegHaV74SamK1HZkB0DeqM2haLXq/NY7WRTdAf/MbsfCZ34fqnD47++sMfA0wF6EgtmArugBrUeSBAVc2VyJKOFX2gazRi4OhLrn26A/2PU/BdnhQrl469Kvpt7ZcirFnvRmYWp8bYBTdj7TYU3hR+qtm0Lr8ZejtvRede/+5Evs3jDjMcWx9uHqV59TdD4IpOb0bC1FOES5ap5GmnMn+lPYbDjT8s10FfXNga4iDQbsDAcgp06+Nr+H8cNeHDv1q+QCQTG9C+9rXQG25FPL+lKLRGsAPKuj3+8ncRWg/83VI1m8d6v5aia9MkFW0kTzq7oeri/0ZU3AFRDiCNehABVDd3ILL9cP6gkuR8EqEfvV9ACZ+7nf6FsAFbvSr4SdtJFuvROvyl9v+CEDhyWexaTT6zk+2XYXWM14C/R9/DvS6mVCR9hD236ZKCa8JvqAocI6FqEawlnLzpHwawo4qZI1Hw5XtlUtF/fDKyYx+6ZwysoOFfj1827llZevDtQ/T0ulX0F81g9a1rwFWzSAk7+k5WU9/sK9Wb0Drwm+B2rgjqy+3PWgVrJutZ/pyGZx426yxX0RMgZUhqgDL7GBvxCrY6TnBehqwiHJdfB0sUApuelGJVRX9WvnCsZXZq9xGX4dHv3RfJQrJxgvQuuDZfaMzRTcFL3Y/En3fSbZdjdZ51wFJK5Ax8vagAG802oxYh8e6LNfd9xYV7LdYiG6K0JA3dJmW01el/DKyKD4Mwqvsy8ausmXhtGLhVBT9avvadXbQfj2Uu6oG/Ur5aE+kU4Or1sFQNA0W3s5Af4n+6lkk266Buv9fgSN708qy2gP841iup8Pt5tTX0Xef2w+sYrvBHYgwwJI3TRq8nS4bUtaItPbr5UFVWR9gLsIG+6YtKIVK52Kj79cn42vQ2vXCRUdpZPAgT1T0l+Yn514DNXchek/vHen+DX05AqSNl1Z79VBpnUYDfDiWcg9dk4lqihBYfCeHS1V2gCizLKdcZd/7TGKhPf5zVqBfH18Hfhi0hdAv10+2Xg41e16qB8HBYtBfuq/Wb0cytwNqbNxzRt0eVFbpfQzdX5QxWe19U5fTucU2XRjtCFbR3H7uFQkAZGV5BKmK+6ZeXoUYUR4QuSdt+pX3bVsQ5arlYqPv+61LX2xPPOGVfXjbQjgFRn8ZfnsCatMuYNV6qM4TZ7y/VuobXWU+4Ppplb2pQ27B5fqAH0zFOooVXYBldnDRFKE8SLzARfl1gDsRVtWXgZi2AkQvkAVkSlTTr74P2IDbBtGDHPqV8ZPzrst8d8JZyk3d9JfvJ5t2Qq2eRe/IE+W1B7g6+28Nqkxfrprim9UGBMaxEF2AtVgkra3nH0BQ/Q1LVdgH4F1teSdwsU25kgL9OvmAv4/7ergc6Jfnq/FVULPne4HBUqB/Zn4yey5U8FMYZbQH7b/1N5P168ZTDfBDYgqoQqILsBbd2eJkJ4MZryFlLUlV2NeAG9a2nz34LvoK9Gvjm4Ab8NqCV0Z/Pf3y/GTuIqA1ltWnC4qu7vNuZaC/TH/NHNT4VLoPSmoPGmAuQkFswVZ0AdaiyAMDrgzlN7Cq+wC8US8F1CbXHv3Bvucp2A4PytVLh341fDV7rhcIpPWLPyVH/wz9pAW1aSfw8H8Ap4+X0h5kx22OY+vD1as8p+5+EExpzVyEjScvqu6r06hcbkHmIqQvyxrOD3d96NCvhq9mtqXlnCAhL2AoCh7oL8NPWgBUae1BmSCraCN51N0PVxf7J6bgCohwBGvQgQqgurkFl+uH9QWXIuGVCP3q+wBM/Nzv9C2AC9zol+rbt0Hfs9h9ofRX4LfagErHEUpvD2H/baqU8JrgC4oC4ViIKsBayvCkFovNyc8M92oAEIFNlX2VLTNvtCgjp6wU/br5fVMVKigjx6Ffmg+4PqjoxuzFpsboL89XM1uBsVVQp46U0h5k8GHqFVx7SD9UutysEv6/6uYXMWg/NZWoAiwTXHkjVkHAZY4H7/hQruHooAVV2TfvTUHBLTDb0Nky+jXyEcquLJf3dWX0y/WBwsCg6ORDf4V+exIqSdxIi10xfTnb7UFl/7HHd8GxLteTx3kdfUk4YxQbUQVYkryhy7ScvoZXJNBZkKPC7VTXl41dZcuMbxapgoODfsV9LTo77ddDuStN0K+MDyD3ZFM0DVZ0cqK/dN9SVnuAfxzL9XS43Zz6Ovruc/v7IMZAK7oAS94EafB2umxIWSOyw73wy9AV9gHmImywb9qCUqhUrj36xX766p/8FxuBob8y3y0opz1AieDEeGm1Vw+V1mk0wHffevH+iIToniJcbCeHS1V2gCizLKdcZd/7TGKhPf5zVqBfH18Hfhi0hdAv15cs954U+iv3R90eVFbp/bN0f1HGZLX3TV1O58Z7sBpO3pMmg6YITcSOrCyPIFVx39TLqxAjygMi96RNv/K+bQuiXHauPfrFPuD6H1NO11W5y8IpMPrL9yVltAejq8wHXD+tsjd1yC24XB/wv/9YR7GiC7DMDi6aIpQHiRe4KL8OcCfCqvoyENNWgOgFsoBMiWr61fcBG3DbIHqQQ78SvmSxG7n7L/zon4kvKaU9wNXZf0dQVfncgsv1zWoDAuNYiC7AWiyS1tbzDyCo/oalKuwDYC7ChvuAv4/7ergc6JfrA64PWir0h+czF+HZ90NiCqhCoguwFt3Z4mQngxmvIWUtSVXY14Ab1rafPfgu+gr0a+ObgBvw2oJXRn89/fJ8yWJX93m3MtBfvm8pqT1ogLkIBbEFW9EFWIsiDwy4MpTfwKruA/BGvRRQm1x79Af7nqdgOzwoVy8d+tXw09e0sNQpMPor8y0ltQfZcYt/jQvGsnqV59TdD4IprZmLsPHkRdV9dRqVyy3IXIT0ZVnD+eGuDx36FfFNfU6QkBcwFAUP9Jfuh/ti1O1BmSCraCN51N0PVxf7J6bgCohwBGvQgQqgurkFl+uH9QWXIuGVCP3q+wBM/Nzv9C2AC9zol+rbt0Hfs9h9ofSH45feHsL+21Qp4TXBFxQFwrEQVYC1lOHJquYWXK6vsmXmjRZl5JSVol83v2+qQgVl5Dj0S/MB1wcV3Zi92NQY/eX5htx9N4L2IIMPU6/g2kP6odLlZpXw/1U3v3AfLGE/NY2oAiwTXHkjVjlXORqusSigMrkFl+ub96ag4BZUOtce/cE+QtmV5fK+rox+uT5QGBgUnXzoD9EvoT2o7D/2+C441uV68jivoy8JZ4xiI6oAS5I3dJmW09fwigQ6C3JUuJ3q+rKxq2yZ8f//9s42VrKjTu/Pv++d6xm/zAsePONX8O4Ke8GYZXnZeCOUCHlXDoRESNFuBAhtkq/5gljlQ5AigUBBEBCRkAhCBEIE2Q+wsGQdGZYJi4gBY978sn4BG+zBM57xjGc8b/fO3NvdlQ/nVNW/6pzTfa8906fq1PNIPV1d9aszt/tU1XlOVXX/bZF0dA7yifNGDXYmzIf4O02QT4YH0Hqx6VrW6ro4kd8879RXe0DYj3U9Ex+3JT9H3r/v8ByUaLSKM1h6E6RVcNJ1Q6obkZvuRZiGSZgHGItwwLxtCyJIJtYe+dl89Rxe/OfNwJB/abwv6Kc9QJQ5sVyVHeRDqjyDAfD+U+8+H4WouG8RzjvJcanUHURsWUs6ZT54T6rQ9f+WCuTz4U3Ex6YtFvl+ea2t7kkh/9L5RbcHqTODP8s0k9qTZc/bvJbBjXuwBq62b5rMWiK0jh11WvcgSZy3+fouxIK6Q7RetMknz7u2oNI5xeYrjQf8+GPTVV1pLYuXwMgzFmEuPBB+/qXOYhVnsOwJ7loi1J0kMC4S5gH+Qpgqr42YcQDUKFAbMlHZ5NPnAWe4nYmexZBPgteatzG7eeNH/sXwWr20B/g893dEWcnHFtwqb6vNMMalqDiDNc9JG8eFHQjSbFiSMA+AsQgHzgPhOW6McC0i3y8P+DFosyJ/8XjGIrz0fKySDFWs4gzW3JOtLnbazAQNqW5JkjBvAD+t7d579Fk0EuSz4a3hBoK2EKTRzCffH6817+6+bSsDecYizIpvMb6lma3iDNZc6Y4Bn4aEDSx1HkAw6yVANrH2yM/mA07gBjyIz9cM+TT46rlKbHYJjPxL4516ag964FZ/jTdjdb60MbnzkZkyhrEIB682V93IM0gutiBjEZLXaQPPx6c+Zsgnwtv8FpPQZhi6zAP5zfPxuVh0exBrsroO0qbc+bi6Oj8lmSugwBmsWR0VQLqxBbfKx/kdtyLxnQj59HkA1j83mUYBvHEj3yvvXkZjz7x9oeQvDt97e4jHb5slihsCr9RlhEtRUQZrM9OTqcYW3CovdZl9YVQaLWkR8rnxjaUKidJoYcj3xgN+DOramD1vaYz81nir1nO3gPagzYfNF/j2UL2pqtxWif+v3PjOc7CJ8zQ0FWWwrLkKZqxa7nIMfGMRIJnYglvl7WubEPiCpGO+K1nSAAAgAElEQVTtkZ/NI4Z9Wpc3hjLy/fJApzHouviQv4h8D+1B6n9c/+7o67qe7uc58lrxilFpKspgabVNXVbp6jm+I4GpTY7Ex0mX141d6jLL2yLp6BzkE+eNGuxMmA/xd5ognwwPoPVi07Ws1XVxIr953qmv9oCwH+t6Jj5uS36OvH/f4Tko0WgVZ7D0Jkir4KTrhlQ3IjfdizANkzAPMBbhgHnbFkSQTKw98rP56jm8+M+bgSH/0nhf0E97gChzYrkqO8iHVHkGA+D9p959PgpRcd8inHeS41KpO4jYspZ0ynzwnlSh6/8tFcjnw5uIj01bLPL98lpb3ZNC/qXzi24PUmcGf5ZpJrUny563eS2DG/dgDVxt3zSZtURoHTvqtO5Bkjhv8/VdiAV1h2i9aJNPnndtQaVzis1XGg/48cemq7rSWhYvgZFnLMJceCD8/EudxSrOYNkT3LVEqDtJYFwkzAP8hTBVXhsx4wCoUaA2ZKKyyafPA85wOxM9iyGfBK81b2N288aP/IvhtXppD/B57u+IspKPLbhV3labYYxLUXEGa56TNo4LOxCk2bAkYR4AYxEOnAfCc9wY4VpEvl8e8GPQZkX+4vGMRXjp+VglGapYxRmsuSdbXey0mQkaUt2SJGHeAH5a27336LNoJMhnw1vDDQRtIUijmU++P15r3t1921YG8oxFmBXfYnxLM1vFGay50h0DPg0JG1jqPIBg1kuAbGLtkZ/NB5zADXgQn68Z8mnw1XOV2OwSGPmXxjv11B70wK3+Gm/G6nxpY3LnIzNlDGMRDl5trrqRZ5BcbEHGIiSv0waej099zJBPhLf5LSahzTB0mQfym+fjc7Ho9iDWZHUdpE2583F1dX5KMldAgTNYszoqgHRjC26Vj/M7bkXiOxHy6fMArH9uMo0CeONGvlfevYzGnnn7QslfHL739hCP3zZLFDcEXqnLCJeiogzWZqYnU40tuFVe6jL7wqg0WtIi5HPjG0sVEqXRwpDvjQf8GNS1MXve0hj5rfFWreduAe1Bmw+bL/DtoXpTVbmtEv9fufGd52AT52loKspgWXMVzFi13OUY+MYiQDKxBbfK29c2IfAFScfaIz+bRwz7tC5vDGXk++WBTmPQdfEhfxH5HtqD1P+4/t3R13U93c9z5LXiFaPSVJTB0mqbuqzS1XN8RwJTmxyJj5Murxu71GWWt0XS0TnIJ84bNdiZMB/i7zRBPhkeQOvFpmtZq+viRH7zPNZOwUw2+msPCPuxrmfi47bk58j79x1a0BKNVnEGS2+CtApOum5IdSNy070I0zAJ8wBjEQ6Yt21BBMnE2iM/m6+ew5mVeTMw5F8if/oIsHE+MASMRXiJeXhtZg/dkFXctwjnneS4VOoOIrasJZ0yH7wnVej6f0sF8vnwJuJj0xaLfI/8+ELwcqt7Usi/dH7R7UHqzODPMs2k9mTZ8zavZXDjHqyBq+2bJrOWCK1jR53WPUgS522+vguxoO4QrRdt8snzri2odE6x+UrjzcmDwTJJfGcfl8VLYOS3zptzJ4DJ+os6XxeDt7jUPODHaalf5BBbcKs8EJqpUmexijNY9gR3LRHqThIYFwnzAH8hTJXXRsw4AGoUqA2ZqGzy6fOAM9zORM9iyCfBT5//Dazmbcxu3viR3yqPyQbM2WPAeL1msPj2AJ/n/tYoK/nYglvlbbUZxrgUFbdEaIwJOmaj3HFwTt3iccOShHkA1Q+Sxo2/Po7oA5g6n3wevJK9ewwrdYt8f7w5+QywsTZz/GmtR/5F8ebMUZjzpwOzs/D2IK57tx9G9W/js7LmY5VkqGIVO4PVKXtHgvCuxc4swOaLuuglyBvAT2u79x59Fo0E+Wx448+vbgtBGs188v3xmGzAHHsCct1r597dt21lIL81fnrsSZhzJ6tz0FN7MABjESqVZraKM1hzpTsGfNreiYhiUuaButGrzpBLrD3ys/mAE7gBD+LzNUM+HX78+Hexcv3tgTGY9y05AORfBD997lcw554Px8EFtwc9cNt+7Hj4fGljcucjM2VXj0oyWUUuEc7NM0gutiBjEZLXaQPPx6c+Zsinw08euQdmOgEQmoQ2w9BlHsjP57G+iunhh2FWTyz0/Ma8WJPVdZA25c7H1dX5KclcAQXOYM3qqADSjS24VT7O77gVie9EyKfPA7D+uck0CuCNG/neeXPyGUwPP4ylG17nxp54mSvWvGUx8k1+euQRmBMHq1ORSnuIx2+bJYobAq/UZYRLUVEzWJvZPGkErkG5WYW68Rj4tLtzSZSP75zs7JdpSaPuLOTz4N3gVqcdD98+bEsnnxaP8TomD/2tm8WKFc/G2NedG7nJN3kzxfS3D2D6/FO9twcjUd26nh3LtTkJjpkx36WSjJVVUQbLnuBgxio66S1mvTIsKp0Lb6ICEfjlRVFVhXxWvGJcZv2sj9EY8Mj3z0/WMfnl92BOP9uYnenaFDxvPxL5yHSdOozpMz+HWXshgrHw9iBAMBttZ6zjvq7TufNBUcd5K0VFGSwtfdLDNGBnFPTdCXQ6OE66vLvLgK9vBwE3DogfF8hnwgvcOQZ8WgD/Uw/Gp8mnwxsA5sxRTB75FsxkXJ/T0CToG0G9B8mK/Ax+Osb01z/C9OBPk2gPQDhOG1svyteuJXfeZZnwJ5FK2+AOFLgHq6sD+xeWqzqOm/ZV+b61JcwDjEU4YN62BREkE2uP/OZ4XDiLyUN3Y+nmP8bo2t+fOWMTzwDMm+EpnTcnn8Hkl9/F9NTR4Fz01R5gDVidJeKHaZ1vb6IMBsDDazN76Ias4maw5p3kuNTeoYgta0mnzAfvSRW6/t9SgXw+vIn42LTFIt8/DzPF9NgTGD/0TZj11Tk1vLa63FIaj401TJ+8F5Pf/KgTWXR7kDozeBummdSeLHve5rUMbqUtFxY7g9W1tt96RwIA9u5T9SBJnLf5+i7EgrpDtF60ySfPu7ag0jnF5iuZx/mzmDx2AEs3vB5Lr/7TCjfNbzfP+hYWeTWLNZ1ieuQxjH/xdWA1/HHRi3G+Xixvcal5wI/TUr/IIbbgVnkgNFOlzmIVZ7D0+n2cV6XVIKgaVwqxBbfKayNmHAA1CsAtMQr5fHjAGW5nomcx5BPkDfD8Uxj//GuQvTdDXv570Dd7zRu/Zj55xZ8+gvF9/xPTww8lcn7hFXkKE2UlH1twq7ytNsMYl6LilgjjjXeNcsfBOXWLxw1LEuYBpBM7j/zF5ZVSirVHfmu8mWxg8uS9GP/kr4Bzz3fW2eqySnH8hbOYPPANTB79O2CyMZNlLMJLz8cqyVDFKnYGq1P2jgThXYudWYDNF3XRS5A3gJ/Wdu89+iwaCfLZ8MafX90WgjSa+eQT4y+cw/gXX4dcsRfLb343ZMfOCjfNrQw6vytdHD9ex/iBb2Dj+58F1s8ld34NwFiESqWZreIM1lzpjgGftnciopiUeaBu9Koz5BJrj/xsPuAEbsCD+HzNkE+bx+pJbHz/vwHL27D8hn8NXHaFMxtt+5HmfauuJH566EGMD3wKZu10kudXD9y2HzsePl/amNz5yEzZ1aOSTFaRS4Rz8wySiy3IWITkddrA8/GpjxnyafPGAGbtNDb+7r9gfP+XgbVTM82GSHqx/xbOj9cxefhuXPgff4GpWl5N7fyKNVldB2lT7nxcXZ3PkswVUOAM1qyODSDd2IJb5eP8jluR+E6EfPo8AOufm0yjAN64kU+bH1/AxoFPAetrWHrjnwE790Nk1Bir5n0ja8i8MVNg7RTGD/0tNu75z8DGWvXx5XB+4/HbZonihsArdRnnUlSUwdrM9KRRxfbiZ6d7DQAoY5MyL3WZfWFUGi1pEfK58Y2lConSaGHIp81vnMf6//2vWD55ENvu+Atg362Q5ZXWmXcgvGh1fcNuKLwZr8Mc/zXGP/oSxg98A2Z9rebTPb/afNh8qRn/xqpyWyX+v3LjuzSrHQxVRRksa66CGavIcNn+EPQP8Q3HRC0oZd6+tgmBL7DHMHUZ+Yx4xLBP6/LGUEY+G37yi69jeuhBbPsn/x6jm94A2XPDpkzIvD1LWfLGwJw9hunTP8H4/q9g+vRPgMl6Uueri5f6H9e/O/q6rqf7eY68VrxiVJqKMlhabVOXVbp6ju9IYGqTI/Fx0uV1Y5e6zPK2SDo6B/nEeaMGOxPmo24roiuSz443x57E+v/+T1i69U4s3f7PMbr2NZCrrmmYEKuui1muvDFT4NwJTA8/hMnjf4/xI98Czhx90Z9nLzzCfqzrmfi4Lfk58v59++uqfV2a0SrOYOlNk1bBSdcNqW5EbroXYRomYR5gLMIB87YtiCC5WHvkLyJ/4QwmD/4Npgfvx9Kr/ilGr/wjjK59NWT3DcHSoTYn+sK2mW/tJcdPJzAvHML0mQcw/e3PMHni+zDHnwLMJP3zFfEQZU4sV2UH+ZAqz2AAPLw2s+duyCrOYM07ybpvVHxYHi/Ppc4H70nVdf1fDxjks+NNxMfnPhb5DHkzxfTEMzD3/y/I49+tDNa+WzHadwtGL/9dyNU3A9sua9Td6p6X3vkXDmH87D9geuQxmKOPV7/KfupZmMmkrt+skuT5UrzUmUF/Vi5E+TB/7Nx5m9dywkqbxSrOYLV/M8WoctT58HckAFCndeOSxHndCYI2HRmxhmkjnwXv2oJKpxJrj/wl4KcT4OQhTF44BDzxfcjO/ZBd10Ku2ofR3t8Btu+E7L6uuoBddhXkyr3QMi3ptrxLzl84C3PuBMx0DJw+ArN6Eub0EZjTRzA9cRDmhcPAxpr7fCSVz/9F8BYX9QHYcVrqFznEFtwqDyC6rpr6c4kGu4GrOIM1b6O77iSBcZEwD/AXwlR5bcSMA6BGAbglRiGfDw/4maz6/M9atiA/QH79PPD8U5gef6rK3rETWL4Msv2qClpegaxcjiQ1XofZWAPMtDJbG2vV89T4vpD6579ZHj7PykRZyccW3Cpvq9XX1Vk/izR0FWew5jlpZ05M2IEgzYYlCfMAgrut4AKujqkrCcjnxAPhOW6McC0iP1D+/OmqfZw55k2AIDArbYbAtrkU+Ev6+fTIm/BleBjj33vcvXPlY5VkqGIVZ7Dmnmx1sdNmJmhIarBIlTeAn9Z27z36LBoJ8tnw1nADQVsI0mjmkydPfnG8ARiLUKk0s1WcwZor3THg05CwgaXOAwhmvQTIJtYe+dl8wAncgAfx+ZohT558P7weuG0/djx8vrQxufORmWIswgLEWIQea6TJZ8MbeD4+9TFDnjz5fnixJqvrIG3KnY+r19dXxiIsQIxFGBbEdyLk0+eBqk4wVNkXjQJ440aePPn++Hj8tlmiuCHwSoxFWJAYixBhJ1BpEfK58Y2lConSaGHIkye/MF6bD5svNeOkxnN3zIz5LjEW4cDFWIS+IOlYe+Rn84hhn9bljaGMPHnyC+Wl/sf1746+ruvpfp4jr8VYhIWKsQgVpyHyefBGDXYmzEfdVkRXJE+e/OJ5hP1Y1zPxcVvyc+T9+zbQKtFoFWewGIsQWcTaIz+bd9P1gqRjsZEnXzIPgTcnlquyg3xIlWcwAB5epcciLO5bhJuJRRjy9cOWtaRT5oP3pApd/2+pQD4f3kR8bNpikSdPfnG81JnBZI5pJkVn587bvJbBjXuwBi7GIoTr+DMv2uST511bUOnUYrGRJ18yb3GpedRpvdSWQ2zBrfIAwFiEBRosxiKEGgXglhiFfD484Ay3M9GzGPLkyffDw+dZmSgr+diCW+Vttfq6WnIswuKWCO2vyXaWOw7OqVs8bliSMA8giETvuPo4og9g6nzyefBK9u4xrNQt8uTJL5AX173bD6P6t/FZWfOxSjJUsYqdweqUvSNBeNdiZxZg80Vd9BLkDeCntd17jz6LRoJ8Nrzx51e3hSCNZj558uQXxxuAsQiVSjNbxRmsudIdAz5t70REMSnzQN3oVWfIJdYe+dl8wAncgAfx+ZohT558P7weuG0/djx8vrQxufORmWIswgLEWIQea6TJZ8MbeD4+9TFDnjz5fnixJqvrIG3KnY+r19dXxiIsQIxFGBbEdyLk0+eBqk4wVNkXjQJ440aePPn++Hj8tlmiuCHwSoxFWJAYixBhJ1BpEfK58Y2lConSaGHIkye/MF6bD5svNeOkxnN3zIz5LjEW4cDFWIS+IOlYe+Rn84hhn9bljaGMPHnyC+Wl/sf1746+ruvpfp4jr8VYhIWKsQgVpyHyefBGDXYmzEfdVkRXJE+e/OJ5hP1Y1zPxcVvyc+T9+zbQKtFoFWewGIsQWcTaIz+bd9P1gqRjsZEnXzIPgTcnlquyg3xIlWcwAB5ejEVYmBiLsJLr/y0VyOfDm4iPTVss8uTJL46XOjOYzDHNpOjs3Hmb1zK4cQ/WwMVYhHAdf+ZFm3zyvGsLKp1aLDby5EvmLS41jzqtl9pyiC24VR4AGIuwQIPFWIRQowDcEqOQz4cHnOF2JnoWQ548+X54+DwrE2UlH1twq7ytVl9XGYuwIDEWYZUWfQBT55PPg1dKPhYbefIl8+K6d/thVP82PitrPlZJhipWsTNYnbJ3JAjvWuzMAmy+qItegrwB/LS2e+/RZ9FIkM+GN/786rYQpNHMJ0+e/OJ4AzAWoVJpZqs4gzVXumPAp+2diCgmZR6oG73qDLnE2iM/mw84gRvwID5fM+TJk++H1wO37ceOh8+XNiZ3PjJTjEVYgBiL0GONNPlseAPPx6c+ZsiTJ98PL9ZkdR2kTbnzcfX6+spYhAWIsQjDgvhOhHz6PFDVCYYq+6JRAG/cyJMn3x8fj982SxQ3BF6JsQgLEmMRIuwEKi1CPje+sVQhURotDHny5BfGa/Nh86VmnNR47o6ZMd8lxiIcuBiL0BckHWuP/GweMezTurwxlJEnT36hvNT/uP7d0dd1Pd3Pc+S1GIuwMOkfGm39pVko81L/45x71MkkYd7m6RktPSC09QlDPgu+1ZBFx9H5hjx58r3xLm3C/m2fA6NWHzxrXr+MZqxKM1rFbXLXsidfN4K4U1jHLqphCcIGliRfGzC9Id7W1208TpPPg7dc64y7HfDVlYA8efI98aZ6WNztk63zXX1rYHLn7dtWH4b9BmFpS4RFG6z2WEm+k9i0qLIuJkW+epMtb1x1GPeafF68HdglxMiTJ58YD1UWZ/qqzXT2fNtgVpaKWyKM92E1vkVYN6J4I6Oget3IT5QHZtSx7xVwA4WQz4YPNtHWT8FQZvPriuTJk++JN/B7Zk3Yl42uW6eHwLep1L1YxRmseA9WW7BnQdhp9HIcVCNye6ES5O1rRHVsp9Bp8nnxQDTgR4Ng2xhGnjz5HnhB85fcocZpezwDZ2Cy5x2jr6vGPZdksopeIuxaDzYB45+Namgmcd69jtqyKEinmwD5ZHlVYNSgZjwapMmTJ98Pry8xbbYiOI6ETO48VeAMVtvP94flNh9hr6obj54KdktyCfKuDsJ60SH89C75bPh4NlM34fgQtjmQJ09+8bzIjP5el0PxGADv33vzd69K+y2s4gxWrLYlwiq/fu0KfIPSTKq8rlO9aE0GDPl8eDuudYxtzXrkyZPvhW9dYlN1HGtQLS3mzlumxUiVZK6AwpcIO9eCtZmRMC8n3srE6XokaOSTz4LXs5YA3F2ybR9u+djmkydPvh8eYX7ASEv+oHgJ0vpRioqdwYrjI/mC2pmblrR05KfII+z48dQuAPd7JhLVJ58+D5Wnz7mrpESePPl+eBPzdRmMr+cuQRI9Z8pbvCvmb0mzWEXNYOlvMgQ/Lqp7iL2wBT2q0cYaTIq86wi2rH5I/TCiOgnIZ8lLaMZcfZUmT558j3z9AKpnYxD8gKeVmGHwWvpayx8aHbjaNri3brqb1QbElzssRb7u8Xq62v0Cb8dhyOfB2zJXV9XRjCFPnnyvfOOGCMqgKV5Uegh8lZa56aGrKIOlpdeCGz80au9C2tqBgY89ZdLlbR1XrR4A3B2I8fluoCCfBW/NmBvTjRr0VL5t1uTJk++JN6hmewSuc9u9Sy4fIZM7r9W2D6ukWaziDJaetWqLRWilXblP+HyB72Ap8sbUZcZzFrRLTvZYoo9FPnneAG4Q15ttGzLqiTx58ovn6z6tZ6PdXkpT1QvSA+Ddx9OyPMgfGi1IjEWoXpPPi6+5wFSTJ08+PR6qLM70VZvp7PlyjFSXivsWIWMR+j4igBsohHw2vKjzbvODoczm1xXJkyffE2+QXKxAxiJcnIozWIxF2EyTz4sHogE/GgTbxjDy5Mn3wAucEVMezI/T9ngGzsBkzztGX1eNey7JZBW9RMhYhC3/Afn0eVVg1KBmPBqkyZMn3w+vLzFttiI4joRM7jxV4AwWYxEGh/DTu+Sz4ePZTN2E40PY5kCePPnF8yIz+ntdDsVjALx/74xFWJzBisVYhORz5O241jG2NeuRJ0++F751iU3VcaxBmrEFt8pbpsVIlWSugMKXCBmLcAZDPllez1oCcHfJtn245WObT548+X54hPkBIy35g+IlSDMWYUFiLEL43zOJ6pNPn4fK0+fcVVIiT558P7yJ+boMxtdzlyCJnjPlLc5YhIXNYDEWYfWQ+pFFrD3ys3kJzZirr9LkyZPvka8fAHxkBqkr6THdDIPXYizCgsRYhN2HsoMD+fR5W+bqqjqaMeTJk++Vb9wQQRk0xYtKD4Gv0jI3PXQVZbC0GIvQ57uBgnwWvDVjbkw3atBT+bZZkydPvifeILlYgYxFuDgVZ7AYixBuyckeS/SxyCfPG8AN4nqzbUNGPZEnT37xfN2n9Wy020tpqnpBegC8+3halgf5Q6MFibEI1WvyefE1F5hq8uTJp8dDlcWZvmoznT1fjpHqUnHfImQsQt9HBHADhZDPhhd13m1+MJTZ/LoiefLke+INkosVyFiEi1NxBouxCJtp8nnxQDTgR4Ng2xhGnjz5HniBM2LKg/lx2h7PwBmY7HnH6Ouqcc8lmayilwgZi7DlPyCfPq8KjBrUjEeDNHny5Pvh9SWmzVYEx5GQyZ2nCpzBYizC4BB+epd8Nnw8m6mbcHwI2xzIkye/eF5kRn+vy6F4DID3752xCIszWLEYi5B8jrwd1zrGtmY98uTJ98K3LrGpOo41SDO24FZ5y7QYqZLMFVD4EiFjEc5gyCfL61lLAO4u2bYPt3xs88mTJ98PjzA/YKQlf1C8BGnGIixIjEUI/3smUX3y6fNQefqcu0pK5MmT74c3MV+Xwfh67hIk0XOmvMUZi7CwGSzGIqweUj+yiLVHfjYvoRlz9VWaPHnyPfL1A4CPzCB1JT2mm2HwWoxFWJAYi7D7UHZwIJ8+b8tcXVVHM4Y8efK98o0bIiiDpnhR6SHwVVrmpoeuogyWFmMR+nw3UJDPgrdmzI3pRg16Kt82a/LkyffEGyQXK5CxCBen4gwWYxHCLTnZY4k+FvnkeQO4QVxvtm3IqCfy5Mkvnq/7tJ6NdnspTVUvSA+Adx9Py/Igf2i0IDEWoXpNPi++5gJTTZ48+fR4qLI401dtprPnyzFSXSruW4SMRej7iABuoBDy2fCizrvND4Yym19XJE+efE+8QXKxAhmLcHEqzmAxFmEzTT4vHogG/GgQbBvDyJMn3wMvcEZMeTA/TtvjGTgDkz3vGH1dNe65JJNV9BIhYxG2/Afk0+dVgVGDmvFokCZPnnw/vL7EtNmK4DgSMrnzVIEzWIxFGBzCT++Sz4aPZzN1E44PYZsDefLkF8+LzOjvdTkUjwHw/r0zFmFxBisWYxGSz5G341rH2NasR548+V741iU2VcexBmnGFtwqb5kWI1WSuQIKWSLsOqkSX92iDS5GpRu9KzhQmryVidP1SNDIJ58Fr2ctAbi7ZNs+3PKxzSdPnnw/PML8gJGW/EHxEqQZi3BYmtYPnDx58owxZqoL47hIsnMfZMduoHbgbspXp6UjP0UeYcePp3YB+N8zieqTT5+HytPn3FVSIk+efD+8ifm6DMbXc/f/Ej1nystoGRgtY04swul0Oh1j4CpiBuvBBx88PJlM1mfFIpTLXwbZfpXrRfHactTGGkyKvOsItqx+2Mm6LGLtkZ/NS2jGXH2VJk+efI98/QDgIzNIXUmP6WYg/O7rIbuvrz4X0x6LcDKZjE+ePPkCBq6hGqxgturRRx89bYyZzoxFePkeyK7rIMsrQaNpyDYsKCxFvu7xerpa/xpv22HI58HbMldX1dGMIU+efK9844YIyqApXlQ6d16uuqZ6qOttnJ5MJucPHTr0PAauIRssN/149913H19dXT2hlwnjWIQigtH1t0N27oO7C5HGcQEDxiIk3ytvzZgb040a9FS+HdPIkyffE2+QXKzAS8ovrUD23Ai58uX1ZyT2U4H+3cnxeHz+5z//+WEMXEM1WOv1A6hns5555plfTqfTaVcsQmMMRjfUBgsIXLlP+HyB72Ap8sbUZcZzFrRLTvZYoo9FPnneAG4Q15ttGzLqiTx58ovn6z6tZ6PdXkpT1QvSmfOy+3qMrn01MFpqvcba/Vdra2svfPvb3z4Cv9o0RbTyNAQN2WDpDXTTBx988DFjTLCpLl4ylN03YHT9a4GVywEgnDmoX+v8rnQqfPWmWj4d1THca/J58TUXmGry5Mmnx0OVxZm+ajOdGz8aYbT/FoxufH3Ntw1mwGQyWT969OjBxx9/fLXOsitONFgZyZ6wKYDp5z73uYfW19dXZ8UilKVlLL32HZCd17o7ERFU6fp1nG9nkFLjbR3bH1wduPGh6hgRQz593p5rhbhzrl/Y1+TJk++JNwiX2+D7sqlB1+8lb16u3IvRzXc09l9Vn5G453p58JG6yJqqVQDnMTAN2WDZZcIpgOm999574vDhw4/pKUsAiH9odHTta7B029sg269wvUVUh3LLOOpC55iEeOgyVcfYfPEdxPYF8nnw9ikYxFHLqHwl8uTJ9+sJQ2QAAAxMSURBVMDbPm1NSP1wKxH1uK3rZckvLWN04+ux/Jq7ABkh/qa+vu6ura2d/sxnPvMA/CrTFP5aPSgN2WCdhz9pYwDjr33ta9/SQOsPkC5tw/Ib/gyj614LGY3al+GgOlCcToTXHVxLFKTTTYB8srwqcHeP6jAmSpMnT74fPrjhRVPBcSRkcuJl9/VYfvO7gXpze5em0+n4iSee+NmPf/zjF+BXmPSe6UFpyAZLu+IpgOknPvGJB48fP/6Uhtpctuy+Dtve+j73TYgqE36GqLbxbklO5yfCu2lr4zu6XXaKl6KCNPnkeV0v3ubgBjz4gZ48efL98CKovuVtx2hVz/FGV8iQ374Ty29+N0av/CPE386PNZlM1j/zmc8cgN/CM8ZAlweB4Rosa6qCWaxjx46tf/Ob3/yGBtt+q0NkhNEr3oDlO9/nwfpC5xqgCU2Mm1ZNhA/MFnzaGrNgWSpKk0+bB3xbiMZC99AMefLk++EB+G/hGV9fmxRn1KxJy4jH0jYs/+G/wvI/ei+wtA3xNwdjPfbYYz/48pe/fBDhxvZBbnAHgKW+/4BLqBGADQCX1Y8lAKPHH3/81Dvf+c7fv+qqq17etREPAGQ0wtJ1t0F27cf01z+CTDdqRvM24RudTdve1RevXwd3WoDb5xME5owZ8snyzljXEvEDuzXZQT558uT74RHmB8ysMTwDHttWsPyP/x1W7vqPgCwhjjPY8uOi6+9973s/9qtf/eokgAuoJj/OAThVpycYmIZssAA/Q7cDVdzFpbW1NdmzZ8/pN7/5zW9cWlra1rbZXTeM0b5bsbT/Vkyf/Qdg/SzMdAqI6mjqotdIS0d6AbyTfWH8S935DeBmTWx98unzVhKdc7H/6Dzy5Mn3wkPxNi0CZ8oE3rAF/0nSvABX7sXyHf8GK3/yl42ZKv2DojY9nU6nBw4c+OqHPvSh+1CZqwsA1gC8gMpgTeCHusFoyAbLNokJgG0AtgNY2tjYWDp06NDa6173ustuvPHG3xORUfyL7vrHSGW0BLn6Jizd+Icwa6dg1k5C1tdqHr5hqrQrQ5heNK8HALGDgnq0xrYjnxcvCJeQW9LkyZPvkVdl7gc767SWqOdk+cuuwui6V2Pbn/4HLL/xzwHZ3C6jI0eOPP6+973vy0899dQpeIN1FpXBuoDqz6DBykiuXdTajspojY4fPz45d+7cqTvuuOMVO3fu3BtxVeW650h9pZOd+7D0O3dArtgDjM8D4/Xq2RjX+Co+fHYNV8KZiEvO2zKdbxAsS2lWyGfDG/hzDkR16n/cayFPnnxvfJ1nVFpU2jKSMj8SYMcuLO27BUu3vwPb7vzL6sdEZalmRNVtps+cOfPcJz/5yf/+1a9+9enxeGw3tJ9HNXP1Ary5osHKSPZaBFSzWAK/F2v5ueeeu7Bnz57VW2655aYrrrhiV9e3H4LZrZUdGF33Gizd9EbIrv2QHbshl11etcLJOsRMVL06oTqeu+MRNJbzLjbfqGNcdtj51UWcfB68axNQrK3XMrjrfPLkyS+Qr/s3BP5GuC4LZqRtOhEeS8vVNW7vK7F00xux/Jq7sO2P/y2Wbns75PI9EBlBr/hY2Tx73VxbW3vh7rvv/ptPfvKTP33++efPoloWtHuvTqDaJz1Yg7Xc9x9wCTWF34M1ReWULwewAuD88ePHlz/72c8+dM011+x+xzve8S927969v+3X3fVyIQDIaBm4+pVYvvqVwO3/EtPjT8Ic+zXMqUMw66swZ49Xs1sURVEUlZNkVMXj3XYZRnteUcUWvOZ3gSv2Blhsqtp+7ujChQtnf/jDH/79xz/+8XsPHjx4Gj6E3Soqc3Ue6meULu0b60dDNlhWOphkYLKeeOKJ0x//+Mfv27Zt2/Jdd931tj179uyfdaDGtw537MTohj8AbvgD38jOPU+DRVEUReUnGUF27UfXl79af5y7RRsbG+cfeuihH33sYx878NOf/vQE/I+JngVwvH4epKnSGrrBimexVlGdXPu+lx9++OETH/nIR+6dTqd4+9vf/rZdu3btb/tGYdeMli1z/JVNp9/YON9y/EvBdwXbpPJX1/ltm30lT558P3wbB/hrxrxj9cXbvLb0PH51dfXE/fff//8+9alPHfjud797BN5crQJ4DsBphLGCB6sh78GyMlF6DP/7WEsAcOzYsY1HH330+I4dO07dfPPN+3bs2HHVaDSSNsPSZXZav4HYI9/2Gtj8oEA+fb5tkNTPXWny5Mkvjp+nzXI58GfOnHnuO9/5zrc/+MEPHjhw4MCz0+l0DdVS4AVUm9qPo9oTPUG4ujRIlWCwAAR7hYHKYE1QLRWOUH2zcPyzn/3s2OHDh3/zqle9aveePXteLlJ9B3Veh7LpLmPUF9/6QWyCIZ8Hb9uESHOzadsxyJMn3z/fVX+zSpE3xkyPHz/+26985Svf+OhHP/rDBx544AT8b12dR7UkeBR+35Xd1D5YcwWUY7DsFzz0NxXGqEzWZfVrOXv27PiBBx44c9999z26f//+tZtuuunGlZWVy1qO15DuZCnwW2E3M5NCPh3eyg7k+nWcH5eTJ09+cXwXqxl945wjv7Gxcf7+++//3gc+8IG/+tKXvvT4wYMHz8D/FIP9MdHnUH1z0M5cWWM1uG8Oam19VM9bI/VYrh+7AexHtfndboBfufrqqy9//etfv/fTn/70n99yyy1vjNeqddo2vFlr233w1HAV3x13tZG4vZAnT35xfFvZkPT0008/8oUvfOH/fO5zn3v06NGj56fTqTVWdtbqSP1s92FpczXo2SugPIMFdJusa1AZrO31YwXAyrZt21be9a533fT+97//n9188823bt++/fLRaLQs9S/Aa3OjtRkzdCl5Xcey8bHmGTnyafI6z2qW4SZPnnz6fJ/Xi83wADCdTsfj8Xj92Wef/fXnP//5ez784Q8/hGo1aAxvos6j2shuN7Tbn2coylwB5Ros+6xN1pUAXgZgJ7zRWkZltJa3b9++8ta3vnXve97znte96U1vun3fvn3XLS0trSwvL68sLS0t16ar8Z9tpjEvitedZlYe+Xx5oP1umzx58unwXQYmJd4YMx2Px+uTyWQ8Ho/Xz549+8IjjzzyyBe/+MX7/vqv//qZ1dVVbazGCGeu9LcFizRXQJkGC2g3WSNUZmo3gL3wJmsF3oQtA1jeuXPn8p133nnNW97ylhtvu+22m/bv3793165dL1taWhqtrKxcvug3Q1EURVEXQdONjY31yWQyPnv27NlDhw4defLJJ4/84Ac/ePqee+45fPToUT0bZc2TNVar8PEFz6JwcwWUa7CApsmKZ7N21896Nss+RtHD6V3vetdNC/jbKYqiKOqiajweT7/3ve89VxupoAjeKNm0/n2r0+oRG6sizRVQtsECQpMFhOZpBdVy4ZX1czyb1Way4meKoiiKykHTlrR9jg3WeVTmys5WdRmrYs0VQIMFhGYoNk12D5aeydIzWjEfH4uiKIqiclBssOKH3W91FuGSoDZWYzRNVZHmCqDB0mqbhVqOnlegfsoBobHSM1w0VxRFUVSO0rNUOiCzzVtF85uBnLVqEQ1WU217s9qWEEdoLina5UN9HIqiKIpKXdoYxd8QbJvNQkt+fKyiRYPVrrZlw650W1l8DIqiKIpKWV1Le20zU21pgMYqEA3WbMUmqWszOze3UxRFUUNR2zLfLDNFY9UiGqzNqc04dZkpmiyKoigqZ7UZps3mURRFURRFURRFURRFURRFURRFURRFURRFURRFURRFURRFURRFURRFURRFURRFURRFURRFURRFURRFURRFURRFURRFURRFURRFURRFURRFURRFURRFURRFURRFURRFURRFURRFURRFURRFURRFURRFURRFURRFURRFURRFURRFURRFURRFURRFURRFURRFURRFURRFURRFURRFURRFURRFURRFURRFURRFURRFURRFURRFURRFURRFURRFURRFURRFURRFURRFURRFURRFURRFURRFURRFURRFURRFURRFURRFURRFURRFURRFURRFURRFURRFURRFURRFURRFURRFURRFURRFURRFURRFURRFURRFURRFURRFURRFURRFURRFURRFURRFURRFURRFURRFURRFURRFURRFURRFURRFURRFURRFURRFURRFURRFURRFURRFURRFUVb/Hzeu60YLFDL5AAAAAElFTkSuQmCC;" vertex="1" parent="42">
                    <mxGeometry x="10" y="80" width="50" height="50" as="geometry"/>
                </mxCell>
                <mxCell id="46" value="Internal service" style="text;html=1;strokeColor=none;fillColor=none;align=left;verticalAlign=middle;whiteSpace=wrap;rounded=0;dashed=1;fontSize=19;" vertex="1" parent="1">
                    <mxGeometry x="-230" y="400" width="160" height="35" as="geometry"/>
                </mxCell>
                <mxCell id="47" value="External service" style="text;html=1;strokeColor=none;fillColor=none;align=left;verticalAlign=middle;whiteSpace=wrap;rounded=0;dashed=1;fontSize=19;" vertex="1" parent="1">
                    <mxGeometry x="-230" y="810" width="160" height="35" as="geometry"/>
                </mxCell>
            </root>
        </mxGraphModel>
    </diagram>
</mxfile>